<svg width="174" height="101" viewBox="0 0 174 101" fill="none" xmlns="http://www.w3.org/2000/svg">
<path d="M-31 95.8043C-14.8768 98.384 10.5978 97.1341 36.342 81.0619M36.342 81.0619C48.4839 73.4817 58.9654 62.4012 65.4865 46.4541C76.1143 20.4643 63.3014 3.35684 47.2455 1.30886C34.943 -0.260363 21.8831 3.84516 14.123 20.6796C6.58589 37.0302 15.5641 63.2578 36.342 81.0619ZM36.342 81.0619C40.1394 84.3158 44.331 87.2884 48.8878 89.8679C72.3947 103.174 123.23 111.046 160.221 57.9663" stroke="#CDD9E8" stroke-width="1.5" stroke-linecap="round"/>
<path d="M-28.0977 87.0848C-16.4774 90.2937 21.5928 94.0122 49.6108 76.4135M49.6108 76.4135C60.2952 69.7025 69.5177 59.8914 75.2543 45.7701C84.6034 22.7557 73.3249 7.60391 59.1946 5.7879C48.3675 4.39641 36.8748 8.03023 30.048 22.9372C23.4174 37.4158 31.3225 60.6436 49.6108 76.4135ZM49.6108 76.4135C90.1877 111.403 143.288 72.422 167.96 36.7926" stroke="#52D3C1" stroke-width="8" stroke-linecap="square"/>
</svg>
