<svg width="2582" height="466" viewBox="0 0 2582 466" fill="none" xmlns="http://www.w3.org/2000/svg">
<path d="M2570.5 209C2537.5 187.5 2440 110.5 2239.5 52.3816C2068.95 2.94331 1929.69 6.58823 1785 66.2101C1635 128.02 1580.5 229.495 1471.5 322.21C1354.85 421.432 1218.47 457.107 1143.5 462.71C896.5 481.172 803.778 382.172 721 181.71C642.63 -8.07655 462.793 -14.057 304 13.0001C145.207 40.0572 31 106 10.5 123" stroke="#D4DEEB" stroke-width="1.5" stroke-linecap="square"/>
<path d="M2570.5 287C2532 256 2394 142.5 2213 73.7541C2047.07 10.7313 1880.26 29.3706 1758.5 76.7099C1491 180.71 1461.13 276.293 1264 386.33C1185.76 430.002 1102.01 448.259 1041.5 444.71C847.5 433.331 765.026 313.696 705.5 168.71C644.6 20.3792 494.923 7.1691 352 39.4999C223.5 68.568 106 132 11.5 205.5" stroke="#52D3C1" stroke-width="16" stroke-linecap="square"/>
</svg>
