<svg width="3339" height="239" viewBox="0 0 3339 239" fill="none" xmlns="http://www.w3.org/2000/svg">
<path d="M1183 74.344C1215.67 58.4969 1298.5 37.8442 1383 74.3441" stroke="#52D3C1" stroke-width="15" stroke-linecap="square"/>
<path d="M2200 84.0007C2282.48 43.4931 2496.34 -19.3883 2705 84.0009C2871.5 166.5 2959.5 241.5 3331 230" stroke="#52D3C1" stroke-width="15" stroke-linecap="square"/>
<path d="M3145 124.875C2975.4 48.7758 2737 21.9175 2639 18.0009C2385.57 2.34825 2291 124.875 2196.5 156.001C2137.69 175.371 2065.65 165.01 1962.18 124.875C1858.7 84.7406 1800.72 106.012 1686.25 132.902C1571.78 159.793 1468.3 174.643 1278.35 80.7271C1088.4 -13.1884 963.936 170.228 864.462 174.643C784.882 178.175 734.557 152.323 717 142.535C529.5 38 379 -19.5 237.5 7.50015C114 31.0656 36.5 95.2425 39 102.5" stroke="#E8EDF3" stroke-width="1.5"/>
<path d="M1897 181.001C1864.33 196.848 1781.5 217.5 1697 181.001" stroke="#52D3C1" stroke-width="15" stroke-linecap="square"/>
<path d="M877 190C844.333 205.847 758.497 232.786 677 190C517 106 429.5 34.4997 273.5 34.4997C141.703 34.4997 43.3333 85.1663 10.5 106" stroke="#52D3C1" stroke-width="15" stroke-linecap="square"/>
</svg>
