<svg width="178" height="52" viewBox="0 0 178 52" fill="none" xmlns="http://www.w3.org/2000/svg">
<path d="M6.59259 0.5H171.407C174.779 0.5 177.5 3.19293 177.5 6.5V45.5C177.5 48.8071 174.779 51.5 171.407 51.5H6.59259C3.22106 51.5 0.5 48.8071 0.5 45.5V6.5C0.5 3.19294 3.22106 0.5 6.59259 0.5Z" stroke="#989DAB"/>
<path d="M89.844 28.2753C88.7368 28.2804 87.656 28.6088 86.7379 29.219C85.8199 29.8292 85.1057 30.6939 84.6857 31.7039C84.2656 32.7139 84.1584 33.824 84.3775 34.894C84.5967 35.964 85.1325 36.946 85.9172 37.7161C86.702 38.4862 87.7005 39.0098 88.7868 39.2209C89.8731 39.432 90.9984 39.3211 92.0208 38.9022C93.0432 38.4832 93.9169 37.7751 94.5315 36.8671C95.146 35.959 95.474 34.8919 95.474 33.8003C95.4848 33.0696 95.3463 32.3442 95.0668 31.6674C94.7874 30.9906 94.3726 30.3761 93.8473 29.8606C93.322 29.3451 92.6969 28.9391 92.0091 28.6667C91.3213 28.3944 90.585 28.2612 89.844 28.2753ZM89.844 37.1543C89.1631 37.2012 88.4836 37.0451 87.8938 36.7063C87.3041 36.3674 86.8314 35.8615 86.5371 35.2542C86.2429 34.647 86.1408 33.9665 86.244 33.3012C86.3472 32.636 86.651 32.0168 87.1159 31.524C87.5808 31.0313 88.1853 30.6878 88.8508 30.5383C89.5163 30.3887 90.2121 30.4401 90.8476 30.6856C91.4831 30.9311 92.0291 31.3594 92.4144 31.9149C92.7998 32.4703 93.0067 33.1273 93.0084 33.8003C93.0297 34.2267 92.9641 34.653 92.8156 35.054C92.667 35.455 92.4386 35.8227 92.1436 36.1353C91.8487 36.4479 91.4933 36.6991 91.0983 36.8741C90.7034 37.0491 90.2769 37.1444 89.844 37.1543ZM77.5686 28.2753C76.4608 28.2778 75.3787 28.604 74.4589 29.2127C73.5391 29.8214 72.8229 30.6851 72.4008 31.6949C71.9787 32.7047 71.8696 33.8152 72.0873 34.8861C72.305 35.957 72.8398 36.9402 73.624 37.7116C74.4082 38.483 75.4067 39.0079 76.4933 39.22C77.58 39.4322 78.706 39.322 79.7292 38.9034C80.7524 38.4849 81.6268 37.7767 82.242 36.8684C82.8571 35.9601 83.1854 34.8924 83.1854 33.8003C83.1962 33.0696 83.0577 32.3442 82.7783 31.6674C82.4988 30.9906 82.084 30.3761 81.5587 29.8606C81.0334 29.3451 80.4083 28.9391 79.7205 28.6667C79.0327 28.3944 78.2964 28.2612 77.5554 28.2753H77.5686ZM77.5686 37.1543C76.8873 37.2039 76.2067 37.0501 75.6153 36.713C75.024 36.3759 74.5492 35.871 74.2529 35.2642C73.9566 34.6573 73.8525 33.9766 73.9541 33.3106C74.0557 32.6446 74.3583 32.0241 74.8225 31.5301C75.2867 31.036 75.891 30.6911 76.5568 30.5404C77.2226 30.3897 77.919 30.4401 78.5553 30.6851C79.1916 30.93 79.7384 31.3582 80.1244 31.9138C80.5105 32.4694 80.718 33.1268 80.7198 33.8003C80.7411 34.2267 80.6755 34.653 80.527 35.054C80.3784 35.455 80.15 35.8227 79.8551 36.1353C79.5601 36.4479 79.2047 36.6991 78.8097 36.8741C78.4148 37.0491 77.9883 37.1444 77.5554 37.1543H77.5686ZM62.9462 29.9783V32.3183H68.6422C68.5529 33.4204 68.0882 34.4604 67.3237 35.2693C66.7538 35.8416 66.0687 36.2899 65.3125 36.5854C64.5564 36.881 63.7458 37.0172 62.933 36.9853C61.2545 36.9853 59.6447 36.3278 58.4578 35.1576C57.2709 33.9874 56.6041 32.4002 56.6041 30.7453C56.6041 29.0903 57.2709 27.5031 58.4578 26.3329C59.6447 25.1627 61.2545 24.5053 62.933 24.5053C64.5387 24.4794 66.0892 25.0825 67.2446 26.1823L68.9191 24.5313C68.1391 23.7526 67.2086 23.1362 66.1826 22.7186C65.1567 22.301 64.0561 22.0908 62.9462 22.1003C61.774 22.0553 60.6047 22.2441 59.5083 22.6553C58.4119 23.0666 57.411 23.6918 56.5656 24.4936C55.7201 25.2953 55.0475 26.2571 54.5881 27.3213C54.1287 28.3855 53.8918 29.5302 53.8918 30.6868C53.8918 31.8433 54.1287 32.988 54.5881 34.0522C55.0475 35.1164 55.7201 36.0782 56.5656 36.8799C57.411 37.6817 58.4119 38.3069 59.5083 38.7182C60.6047 39.1294 61.774 39.3182 62.9462 39.2733C64.0748 39.3235 65.2012 39.1349 66.2497 38.7201C67.2981 38.3052 68.2443 37.6738 69.0246 36.8683C70.4059 35.3719 71.1435 33.4047 71.0814 31.3823C71.0857 30.8895 71.0415 30.3976 70.9496 29.9132L62.9462 29.9783ZM122.688 31.7983C122.344 30.8008 121.701 29.9299 120.844 29.3008C119.987 28.6716 118.957 28.314 117.889 28.2753C117.168 28.2739 116.454 28.4183 115.791 28.6997C115.129 28.9812 114.532 29.3935 114.038 29.9113C113.544 30.4292 113.162 31.0415 112.918 31.7104C112.673 32.3792 112.57 33.0905 112.615 33.8003C112.599 34.5268 112.731 35.2492 113.005 35.9241C113.278 36.599 113.687 37.2126 114.206 37.7283C114.726 38.244 115.345 38.6512 116.028 38.9256C116.71 39.2 117.442 39.3359 118.179 39.3253C119.101 39.3302 120.01 39.1095 120.825 38.6829C121.64 38.2564 122.334 37.6374 122.846 36.8813L120.935 35.5813C120.649 36.0503 120.245 36.4382 119.762 36.7071C119.279 36.976 118.734 37.1166 118.179 37.1153C117.608 37.1367 117.043 36.9883 116.559 36.6892C116.075 36.3901 115.693 35.9542 115.463 35.4382L122.965 32.3833L122.688 31.7983ZM115.041 33.6443C115.014 33.2422 115.069 32.8388 115.202 32.4579C115.336 32.077 115.545 31.7262 115.817 31.4259C116.09 31.1257 116.421 30.8821 116.79 30.7094C117.159 30.5367 117.56 30.4384 117.968 30.4203C118.393 30.3926 118.817 30.4888 119.188 30.6968C119.558 30.9048 119.858 31.2155 120.051 31.5903L115.041 33.6443ZM108.949 39.0003H111.415V22.7503H108.949V39.0003ZM104.915 29.5103H104.822C104.451 29.1006 103.996 28.773 103.487 28.549C102.978 28.325 102.426 28.2095 101.869 28.2103C100.428 28.2791 99.0692 28.892 98.0741 29.9218C97.0791 30.9516 96.524 32.3194 96.524 33.7418C96.524 35.1641 97.0791 36.5319 98.0741 37.5617C99.0692 38.5915 100.428 39.2044 101.869 39.2733C102.428 39.2825 102.982 39.1709 103.492 38.9463C104.002 38.7217 104.456 38.3896 104.822 37.9733H104.901V38.7663C104.901 40.8853 103.754 42.0163 101.908 42.0163C101.294 42.0021 100.697 41.8078 100.195 41.4582C99.692 41.1087 99.3064 40.6196 99.0868 40.0533L96.9376 40.9373C97.3422 41.9075 98.0315 42.7365 98.9171 43.3179C99.8028 43.8993 100.844 44.2065 101.908 44.2003C104.796 44.2003 107.182 42.5233 107.182 38.4413V28.6003H104.915V29.5103ZM102.093 37.1543C101.242 37.0804 100.451 36.695 99.8743 36.0742C99.2977 35.4533 98.9778 34.6421 98.9778 33.8003C98.9778 32.9584 99.2977 32.1472 99.8743 31.5263C100.451 30.9055 101.242 30.5202 102.093 30.4462C102.515 30.4676 102.928 30.5719 103.308 30.7531C103.688 30.9343 104.028 31.1886 104.307 31.5012C104.586 31.8138 104.798 32.1782 104.932 32.573C105.066 32.9679 105.118 33.3851 105.086 33.8003C105.122 34.2172 105.072 34.6369 104.939 35.0342C104.805 35.4314 104.592 35.7979 104.311 36.1114C104.03 36.4249 103.687 36.679 103.304 36.8582C102.92 37.0375 102.504 37.1382 102.08 37.1543H102.093ZM134.238 22.7503H128.345V39.0003H130.81V32.8382H134.252C134.954 32.888 135.66 32.7945 136.324 32.5636C136.989 32.3327 137.598 31.9692 138.114 31.496C138.629 31.0227 139.041 30.4498 139.322 29.8129C139.603 29.1761 139.748 28.4889 139.748 27.7943C139.748 27.0996 139.603 26.4124 139.322 25.7756C139.041 25.1387 138.629 24.5658 138.114 24.0925C137.598 23.6193 136.989 23.2558 136.324 23.0249C135.66 22.794 134.954 22.7005 134.252 22.7503H134.238ZM134.238 30.5503H130.797V25.0123H134.291C135.041 25.0123 135.761 25.306 136.291 25.829C136.821 26.3519 137.119 27.0612 137.119 27.8008C137.119 28.5403 136.821 29.2496 136.291 29.7725C135.761 30.2955 135.041 30.5892 134.291 30.5892L134.238 30.5503ZM149.441 28.2103C148.543 28.1574 147.65 28.3642 146.87 28.8053C146.09 29.2464 145.457 29.9026 145.05 30.6933L147.239 31.5903C147.455 31.1981 147.782 30.8763 148.18 30.6639C148.578 30.4516 149.03 30.3579 149.481 30.3943C149.794 30.3582 150.111 30.384 150.413 30.4701C150.716 30.5562 150.999 30.7008 151.244 30.8957C151.49 31.0905 151.693 31.3316 151.843 31.6048C151.993 31.8781 152.086 32.1781 152.118 32.4873V32.6562C151.326 32.2428 150.443 32.0285 149.546 32.0323C147.186 32.0323 144.8 33.3323 144.8 35.6853C144.823 36.187 144.948 36.679 145.168 37.1322C145.387 37.5855 145.697 37.9907 146.078 38.324C146.459 38.6573 146.904 38.9119 147.386 39.0727C147.869 39.2335 148.379 39.2973 148.887 39.2603C149.508 39.3042 150.13 39.1826 150.686 38.9081C151.243 38.6336 151.715 38.2164 152.052 37.7003H152.131V39.0003H154.504V32.7472C154.504 29.9002 152.315 28.2493 149.507 28.2493L149.441 28.2103ZM149.138 37.1153C148.333 37.1153 147.213 36.7123 147.213 35.7373C147.213 34.4373 148.61 34.0083 149.85 34.0083C150.633 33.9892 151.407 34.1778 152.091 34.5543C152.009 35.2581 151.671 35.9088 151.141 36.3866C150.61 36.8644 149.922 37.137 149.204 37.1543L149.138 37.1153ZM163.154 28.6003L160.332 35.6462H160.253L157.326 28.6003H154.689L159.079 38.4543L156.574 43.9273H159.145L165.896 28.6003H163.154ZM140.989 39.0003H143.455V22.7503H140.989V39.0003Z" fill="#1B1B20"/>
<path d="M55.5231 18.551H54.5474V15.951H55.378C55.7568 15.5553 56.0429 15.0824 56.216 14.5658C56.3891 14.0492 56.4452 13.5013 56.3801 12.961V9.10003H61.6542V15.938H62.5376V18.538H61.5619V16.9H55.5231V18.551ZM57.3558 13C57.4173 14.0487 57.1553 15.0911 56.6043 15.99H60.5598V10.062H57.3558V13ZM70.4223 15.886C69.6515 16.6418 68.6087 17.066 67.5216 17.066C66.4345 17.066 65.3917 16.6418 64.6209 15.886C63.8716 15.1041 63.4542 14.0692 63.4542 12.9935C63.4542 11.9179 63.8716 10.883 64.6209 10.101C65.0008 9.7237 65.4527 9.42422 65.9505 9.21985C66.4484 9.01549 66.9823 8.91027 67.5216 8.91027C68.0609 8.91027 68.5948 9.01549 69.0927 9.21985C69.5905 9.42422 70.0424 9.7237 70.4223 10.101C71.1745 10.8815 71.5939 11.9169 71.5939 12.9935C71.5939 14.0701 71.1745 15.1056 70.4223 15.886ZM65.3724 15.236C65.9432 15.7965 66.716 16.1112 67.5216 16.1112C68.3272 16.1112 69.1 15.7965 69.6708 15.236C70.2341 14.6238 70.5461 13.8267 70.5461 13C70.5461 12.1734 70.2341 11.3763 69.6708 10.764C69.1 10.2036 68.3272 9.88891 67.5216 9.88891C66.716 9.88891 65.9432 10.2036 65.3724 10.764C64.8091 11.3763 64.4971 12.1734 64.4971 13C64.4971 13.8267 64.8091 14.6238 65.3724 15.236ZM76.7117 17.069C76.1674 17.0797 75.6265 16.9816 75.1216 16.7808C74.6167 16.5799 74.1583 16.2803 73.774 15.9002C73.3896 15.52 73.0873 15.0671 72.8852 14.5687C72.6831 14.0703 72.5853 13.5367 72.5979 13C72.5853 12.4634 72.6831 11.9298 72.8852 11.4314C73.0873 10.933 73.3896 10.48 73.774 10.0999C74.1583 9.71971 74.6167 9.42017 75.1216 9.2193C75.6265 9.01842 76.1674 8.92036 76.7117 8.93103C77.2634 8.91756 77.811 9.02754 78.3134 9.2527C78.8158 9.47786 79.2599 9.81235 79.6124 10.231L78.9004 10.907C78.64 10.5811 78.3042 10.3213 77.9211 10.1494C77.5381 9.9775 77.1188 9.89852 76.6985 9.91903C76.2938 9.90866 75.8911 9.97935 75.5149 10.1268C75.1387 10.2743 74.7968 10.4955 74.5098 10.777C73.9381 11.393 73.621 12.1976 73.621 13.0325C73.621 13.8674 73.9381 14.6721 74.5098 15.288C74.7968 15.5696 75.1387 15.7908 75.5149 15.9382C75.8911 16.0857 76.2938 16.1564 76.6985 16.146C77.1626 16.1419 77.6199 16.036 78.0373 15.8359C78.4547 15.6357 78.8216 15.3464 79.1114 14.989L79.8234 15.691C79.4645 16.1202 79.0144 16.4664 78.5049 16.705C77.942 16.9564 77.3294 17.0807 76.7117 17.069ZM83.9635 16.9H82.9483V10.062H80.7332V9.10003H86.1654V10.062H83.9635V16.9ZM93.1536 9.10003L90.1606 15.678C90.0408 16.0671 89.8014 16.41 89.4754 16.6592C89.1495 16.9083 88.7531 17.0516 88.341 17.069C88.0685 17.0656 87.7994 17.0081 87.5499 16.9L87.8136 15.977C87.9738 16.069 88.1556 16.1183 88.341 16.12C88.5348 16.1344 88.7284 16.089 88.8948 15.99C89.0536 15.8574 89.1761 15.6876 89.2508 15.496L89.5409 14.872L86.9038 9.11303H88.1037L90.0551 13.585L91.9537 9.10003H93.1536ZM94.3007 16.9V9.10003H100.023V16.9H99.0078V10.062H95.316V16.9H94.3007ZM101.829 16.9V9.10003H102.845V12.441H106.8V9.10003H107.816V16.9H106.8V13.377H102.845V16.9H101.829ZM116.109 15.886C115.338 16.6418 114.295 17.066 113.208 17.066C112.121 17.066 111.078 16.6418 110.308 15.886C109.558 15.1041 109.141 14.0692 109.141 12.9935C109.141 11.9179 109.558 10.883 110.308 10.101C110.687 9.7237 111.139 9.42422 111.637 9.21985C112.135 9.01549 112.669 8.91027 113.208 8.91027C113.748 8.91027 114.281 9.01549 114.779 9.21985C115.277 9.42422 115.729 9.7237 116.109 10.101C116.861 10.8815 117.281 11.9169 117.281 12.9935C117.281 14.0701 116.861 15.1056 116.109 15.886ZM111.059 15.236C111.63 15.7965 112.403 16.1112 113.208 16.1112C114.014 16.1112 114.787 15.7965 115.357 15.236C115.921 14.6238 116.233 13.8267 116.233 13C116.233 12.1734 115.921 11.3763 115.357 10.764C114.787 10.2036 114.014 9.88891 113.208 9.88891C112.403 9.88891 111.63 10.2036 111.059 10.764C110.496 11.3763 110.184 12.1734 110.184 13C110.184 13.8267 110.496 14.6238 111.059 15.236ZM121.423 16.9V9.10003H124.284C124.878 9.08897 125.454 9.303 125.892 9.69803C126.113 9.88655 126.288 10.1205 126.407 10.3833C126.525 10.6462 126.584 10.9315 126.578 11.219C126.584 11.5656 126.483 11.9057 126.288 12.194C126.094 12.4741 125.825 12.6948 125.51 12.831C125.893 12.9559 126.228 13.1914 126.473 13.507C126.726 13.8255 126.861 14.2202 126.855 14.625C126.862 14.9247 126.801 15.2222 126.678 15.4963C126.555 15.7704 126.372 16.0144 126.143 16.211C125.684 16.6286 125.08 16.8566 124.455 16.848L121.423 16.9ZM122.438 12.441H124.284C124.456 12.4481 124.628 12.4181 124.787 12.353C124.947 12.2879 125.09 12.1893 125.207 12.064C125.324 11.9597 125.418 11.8332 125.484 11.6921C125.55 11.5511 125.587 11.3984 125.591 11.2431C125.596 11.0878 125.569 10.9331 125.512 10.7883C125.455 10.6434 125.369 10.5114 125.26 10.4C125.149 10.2771 125.013 10.1797 124.86 10.1145C124.708 10.0494 124.542 10.0181 124.376 10.023H122.491L122.438 12.441ZM122.438 15.938H124.482C124.66 15.9439 124.838 15.9109 125.002 15.8412C125.166 15.7715 125.313 15.667 125.431 15.535C125.663 15.2973 125.795 14.9812 125.8 14.651C125.8 14.3063 125.661 13.9756 125.414 13.7318C125.167 13.488 124.831 13.351 124.482 13.351H122.477L122.438 15.938Z" fill="#1B1B20"/>
<path fill-rule="evenodd" clip-rule="evenodd" d="M67.5216 9.04027C66.9997 9.04027 66.483 9.14209 66.0012 9.33987C65.5199 9.53743 65.083 9.82685 64.7156 10.1915C63.9902 10.9491 63.5861 11.9516 63.5861 12.9935C63.5861 14.0353 63.9901 15.0377 64.7153 15.7953C65.4613 16.5259 66.4701 16.936 67.5216 16.936C68.5732 16.936 69.5821 16.5259 70.328 15.7952C71.0561 15.039 71.4621 14.0362 71.4621 12.9935C71.4621 11.9507 71.056 10.9478 70.3278 10.1916C69.9603 9.82692 69.5233 9.53746 69.042 9.33987C68.5602 9.14209 68.0435 9.04027 67.5216 9.04027ZM65.8999 9.09984C66.4138 8.88888 66.9649 8.78027 67.5216 8.78027C68.0783 8.78027 68.6294 8.88888 69.1433 9.09984C69.6572 9.3108 70.1237 9.61994 70.5159 10.0094L70.5179 10.0115C71.2934 10.816 71.7258 11.8836 71.7258 12.9935C71.7258 14.1035 71.2934 15.171 70.5179 15.9756L70.5154 15.9782C69.7198 16.7582 68.6435 17.196 67.5216 17.196C66.3997 17.196 65.3234 16.7582 64.5279 15.9782L64.525 15.9753C63.7526 15.1693 63.3224 14.1024 63.3224 12.9935C63.3224 11.8847 63.7527 10.8178 64.525 10.0118L64.5273 10.0094C64.9194 9.61991 65.386 9.3108 65.8999 9.09984ZM113.208 9.04027C112.686 9.04027 112.17 9.14209 111.688 9.33987C111.207 9.53742 110.77 9.82682 110.402 10.1914C109.677 10.9491 109.273 11.9516 109.273 12.9935C109.273 14.0353 109.677 15.0377 110.402 15.7953C111.148 16.5259 112.157 16.936 113.208 16.936C114.26 16.936 115.269 16.5258 116.015 15.7951C116.743 15.039 117.149 14.0362 117.149 12.9935C117.149 11.9508 116.743 10.9478 116.014 10.1916C115.647 9.82694 115.21 9.53746 114.729 9.33987C114.247 9.14209 113.73 9.04027 113.208 9.04027ZM111.587 9.09984C112.1 8.88888 112.652 8.78027 113.208 8.78027C113.765 8.78027 114.316 8.88888 114.83 9.09984C115.344 9.3108 115.81 9.61994 116.203 10.0094L116.205 10.0115C116.98 10.8161 117.412 11.8836 117.412 12.9935C117.412 14.1035 116.98 15.171 116.205 15.9756L116.202 15.9782C115.406 16.7582 114.33 17.196 113.208 17.196C112.086 17.196 111.01 16.7582 110.215 15.9782L110.212 15.9753C109.439 15.1693 109.009 14.1024 109.009 12.9935C109.009 11.8847 109.439 10.8178 110.212 10.0118L110.214 10.0094C110.606 9.61991 111.073 9.3108 111.587 9.09984ZM78.2588 9.37104C77.7746 9.15401 77.2467 9.04801 76.7149 9.06099L76.7091 9.06114C76.1825 9.05082 75.6593 9.14554 75.171 9.33985C74.6826 9.53416 74.2392 9.82391 73.8674 10.1917C73.4956 10.5594 73.2031 10.9975 73.0076 11.4797C72.8121 11.9618 72.7176 12.4779 72.7297 12.997L72.7299 13.003C72.7177 13.5221 72.8121 14.0383 73.0076 14.5204C73.2031 15.0025 73.4956 15.4407 73.8674 15.8084C74.2392 16.1761 74.6826 16.4659 75.171 16.6602C75.6593 16.8545 76.1825 16.9494 76.7091 16.9391L76.7117 17.069L76.7142 16.9391C77.3119 16.9504 77.9047 16.8301 78.4493 16.5871C78.905 16.3735 79.3113 16.0709 79.6441 15.6981L79.12 15.1814C78.8342 15.5029 78.4858 15.7654 78.095 15.9528C77.6603 16.1612 77.1841 16.2716 76.7008 16.276C76.2786 16.2867 75.8586 16.2129 75.4662 16.059C75.0734 15.9051 74.7164 15.6741 74.4168 15.3802L74.4124 15.3759C73.8185 14.736 73.4892 13.8999 73.4892 13.0325C73.4892 12.1651 73.8186 11.3292 74.4125 10.6893L74.4167 10.6848C74.7163 10.3908 75.0734 10.16 75.4662 10.006C75.8574 9.85265 76.2761 9.77883 76.6969 9.78895C77.1367 9.76828 77.5751 9.85126 77.9758 10.0311C78.3338 10.1917 78.6525 10.4255 78.9111 10.7164L79.4312 10.2226C79.1052 9.86163 78.706 9.57142 78.2588 9.37104ZM76.7117 17.1991C76.1505 17.2097 75.5928 17.1084 75.0723 16.9013C74.5509 16.6939 74.0775 16.3846 73.6806 15.992C73.2837 15.5994 72.9715 15.1316 72.7628 14.6169C72.5544 14.1032 72.4535 13.5532 72.466 13C72.4535 12.4469 72.5544 11.8969 72.7628 11.3831C72.9715 10.8684 73.2837 10.4007 73.6806 10.0081C74.0775 9.61551 74.5509 9.30618 75.0723 9.09874C75.5927 8.89166 76.1502 8.79039 76.7114 8.801C77.282 8.78751 77.8483 8.90146 78.368 9.13435C78.8885 9.36764 79.3487 9.7142 79.7139 10.148L79.7921 10.2409L78.887 11.1003L78.7968 10.9875C78.5494 10.6778 78.2304 10.431 77.8665 10.2677C77.5026 10.1044 77.1043 10.0294 76.705 10.0489L76.6951 10.0494C76.3082 10.0394 75.9233 10.1066 75.5636 10.2476C75.205 10.3882 74.8789 10.5989 74.6049 10.867C74.0568 11.4587 73.7529 12.2311 73.7529 13.0325C73.7529 13.8339 74.0568 14.6063 74.6049 15.198C74.8789 15.4661 75.205 15.6768 75.5636 15.8174C75.9233 15.9584 76.3082 16.026 76.6951 16.0161L76.6973 16.016C77.1418 16.0121 77.5799 15.9106 77.9796 15.719C78.3794 15.5273 78.7308 15.2502 79.0084 14.9079L79.1004 14.7944L80.0013 15.6826L79.9251 15.7737C79.554 16.2176 79.0884 16.5756 78.5614 16.8225L78.5593 16.8235C77.9794 17.0824 77.3482 17.2107 76.7117 17.1991ZM125.804 9.79403C125.39 9.42145 124.847 9.21957 124.286 9.23001L124.284 9.23003H121.554V16.7678L124.453 16.718L124.457 16.718C125.048 16.7261 125.619 16.5104 126.054 16.1155L126.056 16.1128C126.271 15.9288 126.443 15.7003 126.558 15.4437C126.673 15.187 126.729 14.9085 126.723 14.6279L126.723 14.6231C126.729 14.248 126.604 13.8824 126.369 13.5873L126.368 13.586C126.139 13.2911 125.826 13.0711 125.469 12.9544L125.143 12.8481L125.457 12.712C125.749 12.5857 125.999 12.3811 126.179 12.1214C126.359 11.8552 126.452 11.5412 126.446 11.2213V11.2165C126.452 10.948 126.397 10.6816 126.286 10.4361C126.176 10.1907 126.012 9.97225 125.806 9.79621L125.804 9.79403ZM125.98 9.60098C125.517 9.18446 124.909 8.95868 124.283 8.97003H121.291V17.0323L124.453 16.978L124.455 16.978C125.112 16.9865 125.748 16.7467 126.231 16.3079C126.474 16.099 126.668 15.8399 126.799 15.5489C126.929 15.2581 126.994 14.9425 126.987 14.6246L126.987 14.627L126.855 14.625L126.987 14.6222L126.987 14.6246C126.993 14.1911 126.848 13.7686 126.577 13.4274C126.375 13.1675 126.116 12.9585 125.82 12.8157C126.048 12.6745 126.244 12.488 126.397 12.2672L126.398 12.2662C126.607 11.9565 126.716 11.5913 126.71 11.2191L126.71 11.2216L126.578 11.219L126.71 11.2167L126.71 11.2191C126.716 10.9133 126.653 10.61 126.527 10.3305C126.401 10.0508 126.214 9.80179 125.98 9.60098ZM56.2483 8.97003H61.786V15.808H62.6695V18.668H61.43V17.03H55.6549V18.681H54.4155V15.821H55.3206C55.667 15.4476 55.9296 15.006 56.0908 14.525C56.2579 14.0264 56.312 13.4978 56.2492 12.9764L56.2483 12.9687V8.97003ZM56.512 9.23003V12.9534C56.5778 13.5101 56.5196 14.0743 56.3412 14.6066C56.162 15.1413 55.8659 15.6307 55.4739 16.0403L55.4349 16.081H54.6792V18.421H55.3912V16.77H61.6937V18.408H62.4057V16.068H61.5223V9.23003H56.512ZM80.6013 8.97003H86.2973V10.192H84.0954V17.03H82.8164V10.192H80.6013V8.97003ZM80.865 9.23003V9.93203H83.0801V16.77H83.8317V9.93203H86.0336V9.23003H80.865ZM91.8659 8.97003H93.3573L90.2842 15.7238C90.1557 16.1354 89.9015 16.4979 89.5562 16.7619C89.2087 17.0276 88.786 17.1803 88.3467 17.1989L88.3393 17.1992C88.0491 17.1956 87.7626 17.1342 87.4969 17.019L87.3919 16.9736L87.7328 15.7802L87.8799 15.8647C88.0204 15.9453 88.1797 15.9885 88.3422 15.99L88.3509 15.9901C88.514 16.0022 88.6768 15.9653 88.8177 15.884C88.9557 15.7665 89.0622 15.6172 89.1277 15.4494L89.1307 15.4418L89.396 14.8716L86.6996 8.98303H88.1905L90.0532 13.2519L91.8659 8.97003ZM92.0416 9.23003L90.0569 13.9182L88.0169 9.24303H87.108L89.6857 14.8724L89.3723 15.5466C89.2895 15.7569 89.1546 15.9435 88.98 16.0893L88.9719 16.096L88.9629 16.1014C88.7742 16.2135 88.5551 16.2654 88.3354 16.25C88.1847 16.248 88.0363 16.2182 87.8976 16.1624L87.7088 16.8232C87.9105 16.8966 88.1235 16.9359 88.339 16.939C88.7225 16.922 89.0912 16.7884 89.3946 16.5564C89.699 16.3237 89.9225 16.0036 90.0344 15.6403L90.0368 15.6324L92.9499 9.23003H92.0416ZM94.1689 8.97003H100.155V17.03H98.876V10.192H95.4478V17.03H94.1689V8.97003ZM94.4326 9.23003V16.77H95.1841V9.93203H99.1397V16.77H99.8912V9.23003H94.4326ZM101.698 8.97003H102.977V12.311H106.668V8.97003H107.947V17.03H106.668V13.507H102.977V17.03H101.698V8.97003ZM101.961 9.23003V16.77H102.713V13.247H106.932V16.77H107.684V9.23003H106.932V12.571H102.713V9.23003H101.961ZM65.2794 10.6719C65.8749 10.0872 66.6811 9.75891 67.5216 9.75891C68.3621 9.75891 69.1683 10.0872 69.7638 10.6719L69.7686 10.6766C70.3539 11.3128 70.678 12.1411 70.678 13C70.678 13.859 70.3538 14.6872 69.7684 15.3234L69.7639 15.3283C69.1684 15.913 68.3621 16.2412 67.5216 16.2412C66.6811 16.2412 65.8749 15.9129 65.2794 15.3281L65.3724 15.236L65.2748 15.3234C64.6894 14.6872 64.3652 13.859 64.3652 13C64.3652 12.1411 64.6894 11.3129 65.2748 10.6767L65.2794 10.6719ZM65.4678 15.1462C66.0137 15.681 66.752 15.9812 67.5216 15.9812C68.2912 15.9812 69.0295 15.681 69.5754 15.1462C70.1153 14.5582 70.4143 13.7933 70.4143 13C70.4143 12.2068 70.1153 11.4419 69.5754 10.8538C69.0295 10.3191 68.2912 10.0189 67.5216 10.0189C66.752 10.0189 66.0137 10.3191 65.4678 10.8538C64.9279 11.4419 64.6289 12.2068 64.6289 13C64.6289 13.7933 64.9279 14.5582 65.4678 15.1462ZM110.966 10.6719C111.562 10.0872 112.368 9.75891 113.208 9.75891C114.049 9.75891 114.855 10.0872 115.45 10.6719L115.455 10.6766C116.041 11.3128 116.365 12.1411 116.365 13C116.365 13.859 116.04 14.6872 115.455 15.3234L115.451 15.3283C114.855 15.913 114.049 16.2412 113.208 16.2412C112.368 16.2412 111.562 15.9129 110.966 15.3281L111.059 15.236L110.961 15.3234C110.376 14.6872 110.052 13.859 110.052 13C110.052 12.1411 110.376 11.3129 110.961 10.6767L110.966 10.6719ZM111.155 15.1463C111.7 15.681 112.439 15.9812 113.208 15.9812C113.978 15.9812 114.716 15.681 115.262 15.1463C115.802 14.5582 116.101 13.7933 116.101 13C116.101 12.2068 115.802 11.4418 115.262 10.8538C114.716 10.3191 113.978 10.0189 113.208 10.0189C112.439 10.0189 111.7 10.3191 111.155 10.8538C110.615 11.4418 110.316 12.2068 110.316 13C110.316 13.7933 110.615 14.5582 111.155 15.1463ZM124.374 9.89303C124.559 9.88787 124.743 9.92275 124.913 9.99521C125.082 10.0675 125.234 10.1756 125.356 10.3117C125.477 10.435 125.572 10.5811 125.635 10.7412C125.699 10.9023 125.729 11.0744 125.723 11.2471C125.718 11.4199 125.677 11.5898 125.604 11.7467C125.531 11.9018 125.428 12.041 125.3 12.1564C125.171 12.2934 125.013 12.4015 124.838 12.4731C124.662 12.5451 124.472 12.5785 124.281 12.571H122.303L122.362 9.89303H124.374ZM124.808 10.2338C124.673 10.1762 124.527 10.1486 124.38 10.153L124.376 10.153H122.62L122.573 12.311H124.289C124.443 12.3173 124.595 12.2907 124.737 12.2329C124.879 12.175 125.006 12.0873 125.11 11.976L125.114 11.9717L125.118 11.9677C125.222 11.8751 125.305 11.7628 125.364 11.6376C125.423 11.5124 125.455 11.3769 125.46 11.239C125.464 11.1012 125.44 10.9639 125.39 10.8353C125.339 10.7067 125.263 10.5895 125.165 10.4907L125.161 10.4862C125.063 10.3776 124.943 10.2914 124.808 10.2338ZM57.224 9.93203H60.6917V16.12H56.3705L56.4914 15.9228C57.0287 15.0463 57.2842 14.03 57.2242 13.0075L57.2238 13L57.224 9.93203ZM57.4877 10.192V12.9963C57.5455 13.994 57.3176 14.9861 56.8323 15.86H60.428V10.192H57.4877ZM122.348 13.221H124.482C124.866 13.221 125.235 13.3717 125.507 13.6399C125.779 13.908 125.932 14.2718 125.932 14.651L125.932 14.6529C125.927 15.0152 125.782 15.362 125.528 15.6233C125.397 15.7686 125.235 15.8838 125.054 15.9606C124.873 16.0376 124.677 16.0742 124.479 16.068H122.304L122.348 13.221ZM122.607 13.481L122.572 15.808H124.486C124.645 15.8133 124.804 15.7839 124.95 15.7218C125.096 15.6597 125.227 15.5665 125.332 15.4489L125.336 15.4447C125.545 15.231 125.664 14.9469 125.668 14.6501C125.668 14.3401 125.543 14.0429 125.321 13.8237C125.098 13.6043 124.796 13.481 124.482 13.481H122.607Z" fill="#1B1B20"/>
<path d="M13.9043 42.5081L30.0569 25.99L13.9178 9.50146C13.4867 9.75817 13.22 10.3525 13.22 11.1306V40.8948C13.2258 41.6728 13.4829 42.2238 13.9043 42.5081Z" fill="#1B1B20"/>
<path d="M30.6356 25.5338L35.4469 20.6129L15.8535 9.62584C15.5235 9.4298 15.1488 9.32625 14.7671 9.32568L30.6336 25.5318L30.6356 25.5338Z" fill="#1B1B20"/>
<path d="M30.6355 26.4482L14.7188 42.7255C15.1182 42.7323 15.5117 42.6257 15.8554 42.4174L35.4875 31.4007L30.6355 26.4482Z" fill="#1B1B20"/>
<path d="M42.545 24.6L36.0248 20.937L31.082 25.9922L36.0616 31.0789L42.5431 27.4258C43.9214 26.6497 43.9213 25.3721 42.545 24.6Z" fill="#1B1B20"/>
</svg>
