<svg width="64" height="64" viewBox="0 0 64 64" fill="none" xmlns="http://www.w3.org/2000/svg">
<circle cx="32" cy="32" r="32" fill="#1A64FF"/>
<path d="M17.0909 50.9091V32L25.8182 36.3637V44.8831L17.0909 50.9091Z" fill="#52D3C1"/>
<path fill-rule="evenodd" clip-rule="evenodd" d="M32.7273 23.1419C28.2367 23.1419 24.5964 26.7823 24.5964 31.2728C24.5964 35.7634 28.2367 39.4037 32.7273 39.4037C37.2179 39.4037 40.8582 35.7634 40.8582 31.2728C40.8582 26.7823 37.2179 23.1419 32.7273 23.1419ZM17.0909 31.2728C17.0909 22.6371 24.0916 15.6365 32.7273 15.6365C41.363 15.6365 48.3637 22.6371 48.3637 31.2728C48.3637 39.9086 41.363 46.9092 32.7273 46.9092C24.0916 46.9092 17.0909 39.9086 17.0909 31.2728Z" fill="white"/>
</svg>
