<svg width="700" height="564" viewBox="0 0 700 564" fill="none" xmlns="http://www.w3.org/2000/svg">
<g filter="url(#filter0_d_419_2714)">
<rect x="482" y="40" width="100" height="100" rx="30" fill="white"/>
</g>
<g filter="url(#filter1_d_419_2714)">
<rect x="52" y="57" width="100" height="100" rx="30" fill="white"/>
</g>
<g filter="url(#filter2_d_419_2714)">
<rect x="541" y="190" width="79" height="79" rx="24" fill="white"/>
</g>
<g filter="url(#filter3_d_419_2714)">
<rect x="455" y="317" width="89" height="89" rx="24" fill="white"/>
</g>
<g filter="url(#filter4_d_419_2714)">
<rect x="171" y="237" width="88" height="88" rx="24" fill="white"/>
</g>
<g filter="url(#filter5_d_419_2714)">
<rect x="28" y="263" width="65" height="65" rx="20" fill="white"/>
</g>
<g filter="url(#filter6_d_419_2714)">
<rect x="99" y="367" width="75" height="75" rx="24" fill="white"/>
</g>
<g filter="url(#filter7_d_419_2714)">
<rect x="542" y="463" width="63" height="63" rx="20" fill="white"/>
</g>
<path fill-rule="evenodd" clip-rule="evenodd" d="M604.958 215.932C604.385 213.422 602.69 211.442 600.535 210.762C596.637 209.545 581 209.545 581 209.545C581 209.545 565.37 209.545 561.465 210.762C559.318 211.432 557.623 213.412 557.042 215.932C556 220.487 556 230 556 230C556 230 556 239.512 557.042 244.067C557.615 246.577 559.31 248.557 561.465 249.237C565.37 250.455 581 250.455 581 250.455C581 250.455 596.637 250.455 600.535 249.237C602.682 248.567 604.378 246.587 604.958 244.067C606 239.512 606 230 606 230C606 230 606 220.487 604.958 215.932Z" stroke="#52D3C1" stroke-width="2" stroke-linecap="round" stroke-linejoin="round"/>
<path fill-rule="evenodd" clip-rule="evenodd" d="M576.005 237.5L588.995 230L576.005 222.5V237.5Z" stroke="#52D3C1" stroke-width="2" stroke-linecap="round" stroke-linejoin="round"/>
<path fill-rule="evenodd" clip-rule="evenodd" d="M87.6743 77.75H117.329C125.499 77.75 132.125 84.289 132.125 92.362V121.641C132.125 129.708 125.502 136.25 117.326 136.25H87.6743C79.5011 136.25 72.875 129.711 72.875 121.638V92.362C72.875 84.2922 79.4978 77.75 87.6743 77.75V77.75Z" stroke="#52D3C1" stroke-width="2" stroke-linecap="round" stroke-linejoin="round"/>
<path d="M118.791 89.8172C118.178 89.8205 117.681 90.3112 117.681 90.9157C117.681 91.5202 118.182 92.011 118.794 92.011C119.406 92.011 119.903 91.5202 119.903 90.9157C119.907 90.308 119.406 89.8172 118.791 89.8172" stroke="#52D3C1" stroke-width="2" stroke-linecap="round" stroke-linejoin="round"/>
<path d="M110.88 98.7268C115.507 103.296 115.507 110.704 110.88 115.273C106.252 119.842 98.7489 119.842 94.1212 115.273C89.4935 110.704 89.4935 103.296 94.1212 98.7268C98.7489 94.1577 106.252 94.1577 110.88 98.7268" stroke="#52D3C1" stroke-width="2" stroke-linecap="round" stroke-linejoin="round"/>
<path d="M132.387 404C127.801 404 124.083 407.694 124.083 412.25C124.083 416.806 127.801 420.5 132.387 420.5C136.972 420.5 140.69 416.806 140.69 412.25V392.083C140.998 394.222 143.273 399.05 149.916 401.25" stroke="#52D3C1" stroke-width="2" stroke-linecap="round" stroke-linejoin="round"/>
<path fill-rule="evenodd" clip-rule="evenodd" d="M125.375 381.75H148.635C155.05 381.75 160.25 386.95 160.25 393.365V416.638C160.25 423.05 155.05 428.25 148.635 428.25H125.365C118.95 428.25 113.75 423.05 113.75 416.635V393.375C113.75 386.955 118.955 381.75 125.375 381.75V381.75Z" stroke="#52D3C1" stroke-width="2" stroke-linecap="round" stroke-linejoin="round"/>
<path d="M211.018 266.708H217.346V298.342H217.337C210.823 298.342 203.667 294.386 198.587 287.094C190.966 276.412 188.884 268.335 188.884 266.708" stroke="#52D3C1" stroke-width="2" stroke-linecap="round" stroke-linejoin="round"/>
<path d="M242.125 298.342C242.125 298.342 239.823 293.49 235.155 288.15C232.043 284.503 227.659 282.527 223.671 282.527C227.659 282.527 232.043 280.55 235.155 276.903C239.823 271.56 242.125 266.708 242.125 266.708" stroke="#52D3C1" stroke-width="2" stroke-linecap="round" stroke-linejoin="round"/>
<path d="M223.665 282.535H217.334" stroke="#52D3C1" stroke-width="2" stroke-linecap="round" stroke-linejoin="round"/>
<path d="M636.587 117.496L640.314 100.655" stroke="#52D3C1" stroke-width="1.5" stroke-linecap="round" stroke-linejoin="round"/>
<path d="M653.902 91.0979C660.199 97.3951 660.199 107.605 653.902 113.902C647.605 120.199 637.395 120.199 631.098 113.902C624.801 107.605 624.801 97.3951 631.098 91.0979C637.395 84.8007 647.605 84.8007 653.902 91.0979" stroke="#52D3C1" stroke-width="1.5" stroke-linecap="round" stroke-linejoin="round"/>
<path d="M634.078 104.254C633.753 103.421 633.542 102.538 633.542 101.604C633.542 97.1519 637.554 93.5417 642.5 93.5417C647.447 93.5417 651.459 97.1519 651.459 101.604C651.459 106.056 647.848 109.667 643.396 109.667C641.622 109.667 639.997 109.077 638.666 108.106" stroke="#52D3C1" stroke-width="1.5" stroke-linecap="round" stroke-linejoin="round"/>
<path fill-rule="evenodd" clip-rule="evenodd" d="M516.25 58.625H547.764C556.454 58.625 563.5 65.7544 563.5 74.5483V106.455C563.5 115.246 556.454 122.375 547.764 122.375H516.236C507.545 122.375 500.5 115.246 500.5 106.452V74.5625C500.5 65.7615 507.553 58.625 516.25 58.625V58.625Z" stroke="#52D3C1" stroke-width="2" stroke-linecap="round" stroke-linejoin="round"/>
<path d="M528.85 93.6875H547.75" stroke="#52D3C1" stroke-width="2" stroke-linecap="round" stroke-linejoin="round"/>
<path d="M547.75 77.75H544.443C539.312 77.75 535.15 81.961 535.15 87.1531V90.5V122.375" stroke="#52D3C1" stroke-width="2" stroke-linecap="round" stroke-linejoin="round"/>
<path fill-rule="evenodd" clip-rule="evenodd" d="M579.982 478.851C583.561 482.431 583.561 488.236 579.982 491.815C576.402 495.395 570.597 495.395 567.018 491.815C563.438 488.236 563.438 482.431 567.018 478.851C570.597 475.272 576.402 475.272 579.982 478.851Z" stroke="#52D3C1" stroke-width="2" stroke-linecap="round" stroke-linejoin="round"/>
<path d="M562.042 496.792C568.917 501.375 578.084 501.375 584.959 496.792" stroke="#52D3C1" stroke-width="2" stroke-linecap="round" stroke-linejoin="round"/>
<path d="M582.666 512.833L573.5 503.667L564.333 512.833" stroke="#52D3C1" stroke-width="2" stroke-linecap="round" stroke-linejoin="round"/>
<path d="M498.86 374.831L492.407 381.109C491.288 382.197 489.416 381.716 488.963 380.222L484.663 366.066" stroke="#52D3C1" stroke-width="2" stroke-linecap="round" stroke-linejoin="round"/>
<path d="M484.66 366.063L471.919 362.088C470.46 361.631 470.391 359.591 471.819 359.041L520.303 340.341C522.097 339.65 523.944 341.222 523.544 343.103L515.291 382C514.863 384.013 512.5 384.909 510.847 383.688L496.375 372C495.032 371.009 494.928 369.041 496.169 367.922C500.319 364.175 510.847 353.25 510.847 353.25L485.438 365.75" stroke="#52D3C1" stroke-width="2" stroke-linecap="round" stroke-linejoin="round"/>
<path d="M78.9021 277.25L64.4538 292.259L64.0034 292.727L64.4021 293.24L81.1328 314.75H70.1386L58.4546 299.727L57.9229 299.043L57.3222 299.667L42.8033 314.75H41.096L56.7093 298.531L57.1597 298.063L56.761 297.55L40.9719 277.25H51.9662L62.7092 291.062L63.2409 291.746L63.8416 291.122L77.1948 277.25H78.9021ZM45.0109 278.434H43.4774L44.4189 279.644L70.5774 313.277L70.8026 313.566H71.1694H77.0932H78.6266L77.6852 312.356L51.5266 278.723L51.3014 278.434H50.9346H45.0109Z" fill="white" stroke="#52D3C1" stroke-width="1.5"/>
<path fill-rule="evenodd" clip-rule="evenodd" d="M644 301H662.008C666.974 301 671 305.026 671 309.992V328.01C671 332.974 666.974 337 662.008 337H643.992C639.026 337 635 332.974 635 328.008V310C635 305.03 639.03 301 644 301V301Z" stroke="#52D3C1" stroke-width="1.5" stroke-linecap="round" stroke-linejoin="round"/>
<path d="M645.24 317.2V328" stroke="#52D3C1" stroke-width="1.5" stroke-linecap="round" stroke-linejoin="round"/>
<path d="M652.438 328V321.7C652.438 319.214 654.452 317.2 656.938 317.2V317.2C659.424 317.2 661.438 319.214 661.438 321.7V328" stroke="#52D3C1" stroke-width="1.5" stroke-linecap="round" stroke-linejoin="round"/>
<path d="M645.236 310.676C644.988 310.676 644.786 310.878 644.788 311.126C644.788 311.374 644.99 311.576 645.238 311.576C645.486 311.576 645.688 311.374 645.688 311.126C645.688 310.876 645.486 310.676 645.236 310.676" stroke="#52D3C1" stroke-width="1.5" stroke-linecap="round" stroke-linejoin="round"/>
<path d="M83.063 515.587C83.647 514.705 83.643 513.283 83.059 512.407C82.471 511.531 81.523 511.531 80.939 512.413C80.355 513.295 80.355 514.717 80.939 515.593C81.523 516.469 82.475 516.469 83.063 515.587" stroke="#52D3C1" stroke-width="1.5" stroke-linecap="round" stroke-linejoin="round"/>
<path d="M95.063 515.587C95.647 514.705 95.643 513.283 95.059 512.407C94.471 511.531 93.523 511.531 92.939 512.413C92.355 513.295 92.355 514.717 92.939 515.593C93.523 516.469 94.475 516.469 95.063 515.587" stroke="#52D3C1" stroke-width="1.5" stroke-linecap="round" stroke-linejoin="round"/>
<path d="M98 521.437C95.0646 522.143 91.715 522.563 88 522.563C84.285 522.563 80.9354 522.143 78 521.437" stroke="#52D3C1" stroke-width="1.5" stroke-linecap="round" stroke-linejoin="round"/>
<path d="M92 502C91.4129 502 87.743 502 87 502C86.257 502 83.5871 502 83 502" stroke="#52D3C1" stroke-width="1.5" stroke-linecap="round" stroke-linejoin="round"/>
<path d="M94 523L96 526C98 526 102 525 105 522C105 517 105 510 100 502C99.3333 501.667 97 500.8 93 500L92 501" stroke="#52D3C1" stroke-width="1.5" stroke-linecap="round"/>
<path d="M81 523L79 526C77 526 73 525 70 522C70 517 70 510 75 502C75.6667 501.667 78 500.8 82 500L83 501" stroke="#52D3C1" stroke-width="1.5" stroke-linecap="round"/>
<path d="M622.001 399.608C621.765 399.608 621.574 399.799 621.576 400.035C621.576 400.271 621.767 400.462 622.003 400.462C622.238 400.462 622.43 400.271 622.43 400.035C622.43 399.799 622.238 399.608 622.001 399.608" stroke="#52D3C1" stroke-width="1.5" stroke-linecap="round" stroke-linejoin="round"/>
<path d="M610.926 399.465C610.69 399.465 610.499 399.656 610.5 399.892C610.5 400.127 610.692 400.319 610.927 400.319C611.163 400.319 611.354 400.127 611.354 399.892C611.354 399.656 611.163 399.465 610.926 399.465" stroke="#52D3C1" stroke-width="1.5" stroke-linecap="round" stroke-linejoin="round"/>
<path d="M626.842 385.97C627.092 385.719 627.09 385.314 626.841 385.065C626.59 384.816 626.185 384.816 625.935 385.067C625.686 385.318 625.686 385.723 625.935 385.972C626.185 386.222 626.591 386.222 626.842 385.97" stroke="#52D3C1" stroke-width="1.5" stroke-linecap="round" stroke-linejoin="round"/>
<path d="M622.111 405.032C620.464 405.635 618.585 405.994 616.501 405.994C614.417 405.994 612.537 405.635 610.891 405.032" stroke="#52D3C1" stroke-width="1.5" stroke-linecap="round" stroke-linejoin="round"/>
<path fill-rule="evenodd" clip-rule="evenodd" d="M602.434 400.599C602.142 400.449 601.862 400.278 601.621 400.052C600.216 398.73 600.148 396.521 601.47 395.117C602.777 393.728 604.952 393.651 606.36 394.931C608.92 393.096 612.494 391.931 616.5 391.931C620.506 391.931 624.08 393.096 626.641 394.929C628.047 393.649 630.222 393.726 631.53 395.115C632.852 396.519 632.784 398.73 631.38 400.051C631.141 400.276 630.859 400.449 630.567 400.597C630.635 400.983 630.681 401.373 630.681 401.767C630.681 407.05 624.429 411.606 616.5 411.606C608.572 411.606 602.319 407.05 602.319 401.767C602.319 401.373 602.366 400.983 602.434 400.599Z" stroke="#52D3C1" stroke-width="1.5" stroke-linecap="round" stroke-linejoin="round"/>
<path d="M616.5 391.931L617.575 387.139C617.981 385.326 619.76 384.172 621.581 384.537L625.775 385.378" stroke="#52D3C1" stroke-width="1.5" stroke-linecap="round" stroke-linejoin="round"/>
<path d="M52 195.832C50.8851 196.318 49.8408 197.017 48.9288 197.929C45.0237 201.834 45.0237 208.166 48.9288 212.071C50.8814 214.024 53.4407 215 56 215H82" stroke="#52D3C1" stroke-width="1.5" stroke-linecap="round" stroke-linejoin="round"/>
<path d="M70.5207 189.761C70.1193 189.109 69.6361 188.494 69.0712 187.929C65.1661 184.024 58.8339 184.024 54.9288 187.929C52.8124 190.045 51.843 192.875 52.0206 195.644" stroke="#52D3C1" stroke-width="1.5" stroke-linecap="round" stroke-linejoin="round"/>
<path d="M82.0039 215C84.0501 214.999 86.096 214.218 87.6571 212.657C90.7811 209.533 90.7811 204.467 87.6571 201.343C86.096 199.782 84.0501 199.001 82.0039 199" stroke="#52D3C1" stroke-width="1.5" stroke-linecap="round" stroke-linejoin="round"/>
<path d="M70.4443 189.831C73.4364 188.347 77.1644 188.851 79.6566 191.343C81.7316 193.418 82.4284 196.35 81.747 199" stroke="#52D3C1" stroke-width="1.5" stroke-linecap="round" stroke-linejoin="round"/>
<path fill-rule="evenodd" clip-rule="evenodd" d="M73.6569 197.343C76.781 200.467 76.781 205.533 73.6569 208.657C70.5329 211.781 65.4671 211.781 62.3431 208.657C59.219 205.533 59.219 200.467 62.3431 197.343C65.4671 194.219 70.5329 194.219 73.6569 197.343Z" stroke="#52D3C1" stroke-width="1.5" stroke-linecap="round" stroke-linejoin="round"/>
<path d="M68 200V203H71" stroke="#52D3C1" stroke-width="1.5" stroke-linecap="round" stroke-linejoin="round"/>
<path d="M48.2181 399.104C49.1168 396.879 48.6642 394.235 46.8602 392.431C44.4521 390.023 40.5473 390.023 38.1391 392.431C35.731 394.839 35.731 398.744 38.1391 401.152C38.6774 401.691 39.2905 402.109 39.945 402.406L34.0205 411.438" stroke="#52D3C1" stroke-width="1.5" stroke-linejoin="round"/>
<path d="M47.3887 416.569C49.7968 418.977 53.7016 418.977 56.1098 416.569C58.5179 414.161 58.5179 410.256 56.1098 407.848C54.0027 405.741 50.7498 405.477 48.3562 407.057L43.2695 398.333" stroke="#52D3C1" stroke-width="1.5" stroke-linejoin="round"/>
<path d="M32.1283 406.144C30.9417 406.362 29.8067 406.93 28.8891 407.848C26.481 410.256 26.481 414.161 28.8891 416.569C31.2973 418.977 35.2021 418.977 37.6102 416.569C38.8136 415.366 39.4156 413.789 39.4163 412.211H50.208" stroke="#52D3C1" stroke-width="1.5" stroke-linejoin="round"/>
<path d="M43.5898 397.882C44.1918 397.28 44.1918 396.304 43.5898 395.702C42.9878 395.099 42.0116 395.099 41.4095 395.702C40.8075 396.304 40.8075 397.28 41.4095 397.882C42.0116 398.484 42.9878 398.484 43.5898 397.882" stroke="#52D3C1" stroke-width="1.5" stroke-linecap="round" stroke-linejoin="round"/>
<path d="M52.8398 413.298C53.4418 412.696 53.4418 411.72 52.8398 411.118C52.2378 410.516 51.2616 410.516 50.6595 411.118C50.0575 411.72 50.0575 412.696 50.6595 413.298C51.2616 413.901 52.2378 413.901 52.8398 413.298" stroke="#52D3C1" stroke-width="1.5" stroke-linecap="round" stroke-linejoin="round"/>
<path d="M34.3398 413.298C34.9419 412.696 34.9419 411.72 34.3398 411.118C33.7378 410.516 32.7616 410.516 32.1595 411.118C31.5575 411.72 31.5575 412.696 32.1595 413.298C32.7616 413.901 33.7378 413.901 34.3398 413.298" stroke="#52D3C1" stroke-width="1.5" stroke-linecap="round" stroke-linejoin="round"/>
<defs>
<filter id="filter0_d_419_2714" x="458" y="22" width="148" height="148" filterUnits="userSpaceOnUse" color-interpolation-filters="sRGB">
<feFlood flood-opacity="0" result="BackgroundImageFix"/>
<feColorMatrix in="SourceAlpha" type="matrix" values="0 0 0 0 0 0 0 0 0 0 0 0 0 0 0 0 0 0 127 0" result="hardAlpha"/>
<feOffset dy="6"/>
<feGaussianBlur stdDeviation="12"/>
<feComposite in2="hardAlpha" operator="out"/>
<feColorMatrix type="matrix" values="0 0 0 0 0.680339 0 0 0 0 0.737448 0 0 0 0 0.808835 0 0 0 1 0"/>
<feBlend mode="normal" in2="BackgroundImageFix" result="effect1_dropShadow_419_2714"/>
<feBlend mode="normal" in="SourceGraphic" in2="effect1_dropShadow_419_2714" result="shape"/>
</filter>
<filter id="filter1_d_419_2714" x="28" y="39" width="148" height="148" filterUnits="userSpaceOnUse" color-interpolation-filters="sRGB">
<feFlood flood-opacity="0" result="BackgroundImageFix"/>
<feColorMatrix in="SourceAlpha" type="matrix" values="0 0 0 0 0 0 0 0 0 0 0 0 0 0 0 0 0 0 127 0" result="hardAlpha"/>
<feOffset dy="6"/>
<feGaussianBlur stdDeviation="12"/>
<feComposite in2="hardAlpha" operator="out"/>
<feColorMatrix type="matrix" values="0 0 0 0 0.680339 0 0 0 0 0.737448 0 0 0 0 0.808835 0 0 0 1 0"/>
<feBlend mode="normal" in2="BackgroundImageFix" result="effect1_dropShadow_419_2714"/>
<feBlend mode="normal" in="SourceGraphic" in2="effect1_dropShadow_419_2714" result="shape"/>
</filter>
<filter id="filter2_d_419_2714" x="517" y="172" width="127" height="127" filterUnits="userSpaceOnUse" color-interpolation-filters="sRGB">
<feFlood flood-opacity="0" result="BackgroundImageFix"/>
<feColorMatrix in="SourceAlpha" type="matrix" values="0 0 0 0 0 0 0 0 0 0 0 0 0 0 0 0 0 0 127 0" result="hardAlpha"/>
<feOffset dy="6"/>
<feGaussianBlur stdDeviation="12"/>
<feComposite in2="hardAlpha" operator="out"/>
<feColorMatrix type="matrix" values="0 0 0 0 0.680339 0 0 0 0 0.737448 0 0 0 0 0.808835 0 0 0 1 0"/>
<feBlend mode="normal" in2="BackgroundImageFix" result="effect1_dropShadow_419_2714"/>
<feBlend mode="normal" in="SourceGraphic" in2="effect1_dropShadow_419_2714" result="shape"/>
</filter>
<filter id="filter3_d_419_2714" x="431" y="299" width="137" height="137" filterUnits="userSpaceOnUse" color-interpolation-filters="sRGB">
<feFlood flood-opacity="0" result="BackgroundImageFix"/>
<feColorMatrix in="SourceAlpha" type="matrix" values="0 0 0 0 0 0 0 0 0 0 0 0 0 0 0 0 0 0 127 0" result="hardAlpha"/>
<feOffset dy="6"/>
<feGaussianBlur stdDeviation="12"/>
<feComposite in2="hardAlpha" operator="out"/>
<feColorMatrix type="matrix" values="0 0 0 0 0.680339 0 0 0 0 0.737448 0 0 0 0 0.808835 0 0 0 1 0"/>
<feBlend mode="normal" in2="BackgroundImageFix" result="effect1_dropShadow_419_2714"/>
<feBlend mode="normal" in="SourceGraphic" in2="effect1_dropShadow_419_2714" result="shape"/>
</filter>
<filter id="filter4_d_419_2714" x="147" y="219" width="136" height="136" filterUnits="userSpaceOnUse" color-interpolation-filters="sRGB">
<feFlood flood-opacity="0" result="BackgroundImageFix"/>
<feColorMatrix in="SourceAlpha" type="matrix" values="0 0 0 0 0 0 0 0 0 0 0 0 0 0 0 0 0 0 127 0" result="hardAlpha"/>
<feOffset dy="6"/>
<feGaussianBlur stdDeviation="12"/>
<feComposite in2="hardAlpha" operator="out"/>
<feColorMatrix type="matrix" values="0 0 0 0 0.680339 0 0 0 0 0.737448 0 0 0 0 0.808835 0 0 0 1 0"/>
<feBlend mode="normal" in2="BackgroundImageFix" result="effect1_dropShadow_419_2714"/>
<feBlend mode="normal" in="SourceGraphic" in2="effect1_dropShadow_419_2714" result="shape"/>
</filter>
<filter id="filter5_d_419_2714" x="4" y="245" width="113" height="113" filterUnits="userSpaceOnUse" color-interpolation-filters="sRGB">
<feFlood flood-opacity="0" result="BackgroundImageFix"/>
<feColorMatrix in="SourceAlpha" type="matrix" values="0 0 0 0 0 0 0 0 0 0 0 0 0 0 0 0 0 0 127 0" result="hardAlpha"/>
<feOffset dy="6"/>
<feGaussianBlur stdDeviation="12"/>
<feComposite in2="hardAlpha" operator="out"/>
<feColorMatrix type="matrix" values="0 0 0 0 0.680339 0 0 0 0 0.737448 0 0 0 0 0.808835 0 0 0 1 0"/>
<feBlend mode="normal" in2="BackgroundImageFix" result="effect1_dropShadow_419_2714"/>
<feBlend mode="normal" in="SourceGraphic" in2="effect1_dropShadow_419_2714" result="shape"/>
</filter>
<filter id="filter6_d_419_2714" x="75" y="349" width="123" height="123" filterUnits="userSpaceOnUse" color-interpolation-filters="sRGB">
<feFlood flood-opacity="0" result="BackgroundImageFix"/>
<feColorMatrix in="SourceAlpha" type="matrix" values="0 0 0 0 0 0 0 0 0 0 0 0 0 0 0 0 0 0 127 0" result="hardAlpha"/>
<feOffset dy="6"/>
<feGaussianBlur stdDeviation="12"/>
<feComposite in2="hardAlpha" operator="out"/>
<feColorMatrix type="matrix" values="0 0 0 0 0.680339 0 0 0 0 0.737448 0 0 0 0 0.808835 0 0 0 1 0"/>
<feBlend mode="normal" in2="BackgroundImageFix" result="effect1_dropShadow_419_2714"/>
<feBlend mode="normal" in="SourceGraphic" in2="effect1_dropShadow_419_2714" result="shape"/>
</filter>
<filter id="filter7_d_419_2714" x="518" y="445" width="111" height="111" filterUnits="userSpaceOnUse" color-interpolation-filters="sRGB">
<feFlood flood-opacity="0" result="BackgroundImageFix"/>
<feColorMatrix in="SourceAlpha" type="matrix" values="0 0 0 0 0 0 0 0 0 0 0 0 0 0 0 0 0 0 127 0" result="hardAlpha"/>
<feOffset dy="6"/>
<feGaussianBlur stdDeviation="12"/>
<feComposite in2="hardAlpha" operator="out"/>
<feColorMatrix type="matrix" values="0 0 0 0 0.680339 0 0 0 0 0.737448 0 0 0 0 0.808835 0 0 0 1 0"/>
<feBlend mode="normal" in2="BackgroundImageFix" result="effect1_dropShadow_419_2714"/>
<feBlend mode="normal" in="SourceGraphic" in2="effect1_dropShadow_419_2714" result="shape"/>
</filter>
</defs>
</svg>
