<?xml version="1.0" encoding="utf-8"?>
<svg xmlns="http://www.w3.org/2000/svg">
    <defs>
        <symbol id="post" viewBox="0 0 32 32" stroke="currentColor" fill="none">
            <path fill-rule="evenodd" clip-rule="evenodd"
                  d="M7.42296 27.9798H24.6937C26.4899 27.9798 27.9446 26.5338 27.9446 24.7486V7.43846C27.9446 5.65318 26.4899 4.20717 24.6937 4.20717H7.42296C5.6268 4.20717 4.172 5.65318 4.172 7.43846V24.7486C4.172 26.5338 5.6268 27.9798 7.42296 27.9798Z"
                  stroke-width="2.37726" stroke-linecap="round" stroke-linejoin="round"/>
            <path d="M4.172 10.8107H27.9446" stroke-width="2.37726"/>
        </symbol>
        <symbol id="stories" viewBox="0 0 32 32" stroke="currentColor" fill="none">
            <path d="M10.528 26.5856C12.2396 27.4973 14.1774 27.9792 16.1315 27.9792C17.0497 27.9792 17.9645 27.8746 18.8498 27.6686"
                  stroke-width="2.37726" stroke-linecap="round"/>
            <path d="M4.55383 18.9064C5.09407 21.1291 6.26548 23.1407 7.94054 24.7236" stroke-width="2.37726"
                  stroke-linecap="round"/>
            <path d="M5.32486 11.0828C4.76007 12.2912 4.40723 13.5783 4.27527 14.9081" stroke-width="2.37726"
                  stroke-linecap="round"/>
            <path d="M8.2912 7.09488C8.21522 7.18162 8.14078 7.26991 8.06726 7.3588" stroke-width="2.37726"
                  stroke-linecap="round"/>
            <path d="M22.2446 26.2996C25.8249 24.1611 28.0491 20.2504 28.0491 16.0935C28.0491 9.53938 22.7037 4.20717 16.1334 4.20717"
                  stroke-width="2.37726" stroke-linecap="round"/>
        </symbol>
        <symbol id="reels" viewBox="0 0 32 32" stroke="currentColor" fill="none">
            <path fill-rule="evenodd" clip-rule="evenodd"
                  d="M21.4584 27.9798H11.1975C7.46672 27.9798 4.44165 24.9547 4.44165 21.2239V10.963C4.44165 7.23224 7.46672 4.20717 11.1975 4.20717H21.4569C25.1892 4.20717 28.2143 7.23224 28.2143 10.963V21.2224C28.2143 24.9547 25.1892 27.9798 21.4584 27.9798Z"
                  stroke-width="2.37726" stroke-linecap="round" stroke-linejoin="round"/>
            <path d="M9.64185 4.20717L14.135 11.9062" stroke-width="2.37726"/>
            <path d="M17.8188 4.20717L22.312 11.9062" stroke-width="2.37726"/>
            <path d="M4.44165 12.1313H28.2143" stroke-width="2.37726"/>
            <path d="M14.8187 22.153V15.6986L20.4161 18.9166L14.8187 22.153Z"/>
            <path d="M14.6514 15.6021L14.6532 15.6031M14.8187 22.153V15.6986L20.4161 18.9166L14.8187 22.153Z"
                  stroke-width="2.37726" stroke-linejoin="round"/>
        </symbol>
        <symbol id="ai-chat" viewBox="0 0 51 56" fill="currentColor">
            <path fill-rule="evenodd" clip-rule="evenodd"
                  d="M5.61721 14.8427L21.5924 5.73649L13.3857 19.8756L5.16758 15.1521C5.30696 15.0376 5.45714 14.9339 5.61721 14.8427ZM4.24579 39.6065L13.7488 23.2342L23.7708 40.5193H4.82546C4.58114 40.2494 4.38529 39.9404 4.24579 39.6065ZM35.5162 20.2433H15.4847L24.8778 4.06029C25.2889 3.98027 25.7122 3.98034 26.1233 4.0605L35.5162 20.2433ZM27.23 40.5193L37.2521 23.2339L46.7546 39.6055C46.6151 39.9398 46.4191 40.2491 46.1745 40.5193H27.23ZM47 36.0442V17.6164C47 17.3522 46.9672 17.0926 46.9043 16.8423L38.6188 21.6045L47 36.0442ZM37.6148 19.8748L45.8321 15.1518C45.6928 15.0374 45.5428 14.9339 45.3829 14.8428L29.4091 5.73733L37.6148 19.8748ZM12.3817 21.6054L4 36.0459V17.6164C4 17.3524 4.0328 17.0929 4.09561 16.8428L12.3817 21.6054ZM8.01109 42.5193L23.8937 51.5727C24.088 51.6832 24.291 51.7722 24.4993 51.8395V42.5193H8.01109ZM26.4993 42.5193V51.8401C26.7078 51.7728 26.911 51.6838 27.1056 51.5732L42.9889 42.5193H26.4993ZM29.0846 0.948153C26.8629 -0.316051 24.1371 -0.316051 21.9154 0.948153L3.63634 11.3676C1.39059 12.6476 0 15.0307 0 17.6164V38.3811C0 40.9668 1.39063 43.3499 3.63645 44.6299L21.9154 55.0493C24.1371 56.3135 26.8629 56.3135 29.0846 55.0493L47.3636 44.6299C49.6094 43.3499 51 40.9668 51 38.3811V17.6164C51 15.0307 49.6094 12.6476 47.3636 11.3676L29.0846 0.948153ZM15.4861 22.2433L25.5004 39.5151L35.5146 22.2433H15.4861Z"/>
        </symbol>
        <symbol id="slash" viewBox="0 0 42 42" stroke="currentColor" fill="none">
            <path d="M16.7983 28.0029L25.2018 13.997" stroke-width="2.625" stroke-linecap="round"
                  stroke-linejoin="round"/>
            <path d="M28.0063 5.24338H13.9932C9.16067 5.24338 5.24316 9.16089 5.24316 13.9934V28.0065C5.24316 32.839 9.16067 36.7565 13.9932 36.7565H28.0063C32.8388 36.7565 36.7563 32.839 36.7563 28.0065V13.9934C36.7563 9.16089 32.8388 5.24338 28.0063 5.24338Z"
                  stroke-width="2.625" stroke-linecap="round" stroke-linejoin="round"/>
        </symbol>
        <symbol id="mic" viewBox="0 0 42 42" stroke="currentColor" fill="none">
            <path fill-rule="evenodd" clip-rule="evenodd"
                  d="M21 26.25C18.1003 26.25 15.75 23.8997 15.75 21V10.5C15.75 7.60025 18.1003 5.25 21 5.25C23.8997 5.25 26.25 7.60025 26.25 10.5V21C26.25 23.8997 23.8997 26.25 21 26.25Z"
                  stroke-width="2.625" stroke-linecap="round" stroke-linejoin="round"/>
            <path d="M31.5 17.5V21C31.5 26.7995 26.7995 31.5 21 31.5C15.2005 31.5 10.5 26.7995 10.5 21V17.5"
                  stroke-width="2.625" stroke-linecap="round" stroke-linejoin="round"/>
            <path d="M21 31.5V36.75" stroke-width="2.625" stroke-linecap="round" stroke-linejoin="round"/>
            <path d="M13.6846 36.75H28.3145" stroke-width="2.625" stroke-linecap="round" stroke-linejoin="round"/>
        </symbol>
        <symbol id="arrow-up" viewBox="0 0 42 42" stroke="currentColor" fill="none">
            <path fill-rule="evenodd" clip-rule="evenodd"
                  d="M36.75 21V21C36.75 29.6993 29.6993 36.75 21 36.75V36.75C12.3007 36.75 5.25 29.6993 5.25 21V21C5.25 12.3007 12.3007 5.25 21 5.25V5.25C29.6993 5.25 36.75 12.3007 36.75 21Z"
                  stroke-width="2.625" stroke-linecap="round" stroke-linejoin="round"/>
            <path d="M21 14V28" stroke-width="2.625" stroke-linecap="round" stroke-linejoin="round"/>
            <path d="M15.75 19.25L21 14L26.25 19.25" stroke-width="2.625" stroke-linecap="round"
                  stroke-linejoin="round"/>
        </symbol>
        <symbol id="pen" viewBox="0 0 98 98" stroke="currentColor" fill="none">
            <path fill-rule="evenodd" clip-rule="evenodd"
                  d="M44.9167 40.3556V53.0833H57.6445L84.5945 26.5743C86.2115 24.9818 86.2237 22.3807 84.619 20.776L77.22 13.377C75.6152 11.7722 73.0101 11.7845 71.4217 13.4015L44.9167 40.3556Z"
                  stroke-width="4" stroke-linecap="round" stroke-linejoin="round"/>
            <path d="M28.5833 53.0833H20.4167C15.9046 53.0833 12.25 56.7379 12.25 61.25V61.25C12.25 65.7621 15.9046 69.4166 20.4167 69.4166H77.5833C82.0954 69.4166 85.75 73.0712 85.75 77.5833V77.5833C85.75 82.0954 82.0954 85.75 77.5833 85.75H61.25"
                  stroke-width="4" stroke-linecap="round" stroke-linejoin="round"/>
        </symbol>
        <symbol id="masonry" viewBox="0 0 98 98" stroke="currentColor" fill="none">
            <rect x="85.7654" y="12.2349" width="16.3401" height="20.4252" rx="4" transform="rotate(90 85.7654 12.2349)"
                  stroke-width="4" stroke-linecap="round" stroke-linejoin="round"/>
            <rect x="53.085" y="12.2349" width="16.3401" height="40.8503" rx="4" transform="rotate(90 53.085 12.2349)"
                  stroke-width="4" stroke-linecap="round" stroke-linejoin="round"/>
            <rect x="85.7654" y="40.8301" width="16.3401" height="40.8503" rx="4" transform="rotate(90 85.7654 40.8301)"
                  stroke-width="4" stroke-linecap="round" stroke-linejoin="round"/>
            <rect x="32.6599" y="40.8301" width="16.3401" height="20.4252" rx="4" transform="rotate(90 32.6599 40.8301)"
                  stroke-width="4" stroke-linecap="round" stroke-linejoin="round"/>
            <rect x="85.7654" y="69.4253" width="16.3401" height="20.4252" rx="4" transform="rotate(90 85.7654 69.4253)"
                  stroke-width="4" stroke-linecap="round" stroke-linejoin="round"/>
            <rect x="53.085" y="69.4253" width="16.3401" height="40.8503" rx="4" transform="rotate(90 53.085 69.4253)"
                  stroke-width="4" stroke-linecap="round" stroke-linejoin="round"/>
        </symbol>
        <symbol id="document" viewBox="0 0 98 98" stroke="currentColor" fill="none">
            <path d="M28.5833 16.3333H20.4167C15.9063 16.3333 12.25 19.9896 12.25 24.4999V77.5832C12.25 82.0936 15.9063 85.7499 20.4167 85.7499H77.5833C82.0937 85.7499 85.75 82.0936 85.75 77.5832V24.4999C85.75 19.9896 82.0937 16.3333 77.5833 16.3333H69.4167"
                  stroke-width="4" stroke-linecap="round" stroke-linejoin="round"/>
            <path d="M42.875 12.25L49 18.375L59.2083 8.16663" stroke-width="4" stroke-linecap="round"
                  stroke-linejoin="round"/>
            <path d="M28.5833 44.9167H69.4166" stroke-width="4" stroke-linecap="round" stroke-linejoin="round"/>
            <path d="M28.5833 61.2499H69.4166" stroke-width="4" stroke-linecap="round" stroke-linejoin="round"/>
        </symbol>
        <symbol id="video" viewBox="0 0 98 98" stroke="currentColor" fill="none">
            <path fill-rule="evenodd" clip-rule="evenodd"
                  d="M12.25 53.0833V24.5C12.25 17.7345 17.7345 12.25 24.5 12.25H73.5C80.2655 12.25 85.75 17.7345 85.75 24.5V53.0833C85.75 59.8488 80.2655 65.3333 73.5 65.3333H24.5C17.7345 65.3333 12.25 59.8488 12.25 53.0833Z"
                  stroke-width="4" stroke-linecap="round" stroke-linejoin="round"/>
            <path fill-rule="evenodd" clip-rule="evenodd"
                  d="M41.2417 46.4802V31.1031C41.256 30.1902 41.755 29.3539 42.5516 28.9077C43.3482 28.4615 44.322 28.4728 45.108 28.9374L58.361 36.6284C59.1375 37.0719 59.6167 37.8975 59.6167 38.7917C59.6167 39.6858 59.1375 40.5114 58.361 40.9549L45.108 48.646C44.322 49.1106 43.3482 49.1219 42.5516 48.6757C41.755 48.2295 41.256 47.3931 41.2417 46.4802H41.2417Z"
                  stroke-width="4" stroke-linecap="round" stroke-linejoin="round"/>
            <path d="M81.6666 81.6667H40.8333" stroke-width="4" stroke-linecap="round" stroke-linejoin="round"/>
            <path d="M16.3333 81.6667H28.5833" stroke-width="4" stroke-linecap="round" stroke-linejoin="round"/>
            <ellipse cx="34.7083" cy="81.6666" rx="6.125" ry="6.125" stroke-width="4" stroke-linecap="round"
                     stroke-linejoin="round"/>
        </symbol>
        <symbol id="chevron" viewBox="0 0 24 24" stroke="currentColor" fill="none">
            <path d="M6 9L12 15L18 9" stroke-width="1.5" stroke-linecap="round" stroke-linejoin="round"/>
        </symbol>
        <symbol id="autopost" viewBox="0 0 35 34" stroke="currentColor" fill="none">
            <path fill-rule="evenodd" clip-rule="evenodd"
                  d="M18.2171 18.4167V12.0417C18.2171 10.8687 17.2597 9.91666 16.08 9.91666C14.9003 9.91666 13.9428 10.8687 13.9428 12.0417V22.6667L11.0477 21.7076C10.2028 21.4271 9.27103 21.6467 8.63987 22.2728C7.66105 23.2461 7.73514 24.8427 8.79659 25.7238L14.574 30.5107C15.0883 30.9343 15.7338 31.1667 16.3991 31.1667H22.8248C24.2624 31.1667 25.4734 30.1027 25.6529 28.6847L26.4266 22.5321C26.6161 21.0233 25.5746 19.6364 24.0672 19.3857L18.2171 18.4167Z"
                  stroke-width="1.5" stroke-linecap="round" stroke-linejoin="round"/>
            <path d="M22.0728 19.0556C24.0704 17.3669 25.3412 14.8538 25.3412 12.0417C25.3412 6.95584 21.1952 2.83334 16.0803 2.83334C10.9654 2.83334 6.81934 6.95584 6.81934 12.0417C6.81934 16.3951 9.8612 20.0331 13.9431 20.9936"
                  stroke-width="1.5" stroke-linecap="round" stroke-linejoin="round"/>
        </symbol>
        <symbol id="analytics" viewBox="0 0 35 34" stroke="currentColor" fill="none">
            <path d="M28.6094 17V28.3333" stroke-width="1.5" stroke-linecap="round"
                  stroke-linejoin="round"/>
            <path d="M21.0581 20.7825V28.3333" stroke-width="1.5" stroke-linecap="round"
                  stroke-linejoin="round"/>
            <path d="M5.81346 24.0833V28.3333" stroke-width="1.5" stroke-linecap="round"
                  stroke-linejoin="round"/>
            <path d="M13.3647 19.2667V28.3333" stroke-width="1.5" stroke-linecap="round"
                  stroke-linejoin="round"/>
            <path d="M22.8243 12.0538C23.798 13.022 23.798 14.5917 22.8243 15.5599C21.8505 16.528 20.2718 16.528 19.2982 15.5599C18.3244 14.5917 18.3244 13.022 19.2982 12.0538C20.2719 11.0856 21.8506 11.0856 22.8243 12.0538"
                  stroke-width="1.5" stroke-linecap="round" stroke-linejoin="round"/>
            <path d="M30.522 5.67454C31.4957 6.64272 31.4957 8.21244 30.522 9.18061C29.5483 10.1488 27.9696 10.1488 26.9959 9.18061C26.0222 8.21243 26.0222 6.64271 26.9959 5.67454C27.9696 4.70637 29.5483 4.70637 30.522 5.67454"
                  stroke-width="1.5" stroke-linecap="round" stroke-linejoin="round"/>
            <path d="M7.42679 13.3203C8.4005 14.2885 8.4005 15.8582 7.42679 16.8264C6.45308 17.7945 4.87439 17.7945 3.90069 16.8264C2.92698 15.8582 2.92698 14.2885 3.90069 13.3203C4.8744 12.3521 6.45309 12.3521 7.42679 13.3203"
                  stroke-width="1.5" stroke-linecap="round" stroke-linejoin="round"/>
            <path d="M15.126 6.94246C16.0997 7.91063 16.0997 9.48036 15.126 10.4485C14.1523 11.4167 12.5736 11.4167 11.5999 10.4485C10.6262 9.48035 10.6262 7.91062 11.5999 6.94246C12.5736 5.97428 14.1523 5.97428 15.126 6.94246"
                  stroke-width="1.5" stroke-linecap="round" stroke-linejoin="round"/>
            <path d="M26.8569 9.00999L22.9673 12.2258" stroke-width="1.5" stroke-linecap="round"
                  stroke-linejoin="round"/>
            <path d="M18.9783 12.4383L15.4307 10.0725" stroke-width="1.5" stroke-linecap="round"
                  stroke-linejoin="round"/>
            <path d="M7.58008 13.5008L11.4554 10.285" stroke-width="1.5" stroke-linecap="round"
                  stroke-linejoin="round"/>
        </symbol>
        <symbol id="message" viewBox="0 0 35 34" stroke="currentColor" fill="none">
            <path fill-rule="evenodd" clip-rule="evenodd"
                  d="M19.7047 27.2085L24.9065 29.7684V25.0977C28.011 22.9882 30.0342 19.6421 30.0342 15.8412C30.0342 9.41092 24.2667 4.25 17.2113 4.25C10.1559 4.25 4.38847 9.41092 4.38847 15.8412C4.38847 22.2714 10.1559 27.4323 17.2113 27.4323C18.0648 27.4323 18.8968 27.353 19.7047 27.2085V27.2085Z"
                  stroke-width="1.5" stroke-linecap="round" stroke-linejoin="round"/>
        </symbol>
        <symbol id="messenger" viewBox="0 0 35 34" stroke="currentColor" fill="none">
            <path fill-rule="evenodd" clip-rule="evenodd"
                  d="M20.9785 28.203L28.752 7.34967C29.1752 6.2135 28.0624 5.1085 26.9212 5.52925L5.94158 13.2643C4.62937 13.7488 4.73195 15.6273 6.08975 15.9658L15.8266 18.3983L18.2586 28.0543C18.6006 29.4058 20.4912 29.5092 20.9785 28.203V28.203Z"
                  stroke-width="1.5" stroke-linecap="round" stroke-linejoin="round"/>
            <path d="M28.4245 5.85083L15.8296 18.4025" stroke-width="1.5" stroke-linecap="round"
                  stroke-linejoin="round"/>
        </symbol>
        <symbol id="rss" viewBox="0 0 35 34" stroke="currentColor" fill="none">
            <path fill-rule="evenodd" clip-rule="evenodd"
                  d="M8.6567 22.6667C10.2306 22.6667 11.5125 23.9511 11.5125 25.5C11.4998 27.0615 10.2179 28.3333 8.6567 28.3333C7.09552 28.3333 5.80088 27.0615 5.81357 25.5C5.80088 23.9385 7.07013 22.6667 8.6567 22.6667Z"
                  stroke-width="1.5" stroke-linecap="round" stroke-linejoin="round"/>
            <path d="M5.81348 14.1667C13.6655 14.1667 20.0611 20.5889 20.0611 28.3333"
                  stroke-width="1.5" stroke-linecap="round" stroke-linejoin="round"/>
            <path d="M5.81348 5.66667C18.3767 5.66667 28.6097 15.9422 28.6097 28.3333"
                  stroke-width="1.5" stroke-linecap="round" stroke-linejoin="round"/>
        </symbol>
        <symbol id="hexagon" viewBox="0 0 35 34" stroke="currentColor" fill="none">
            <path fill-rule="evenodd" clip-rule="evenodd"
                  d="M30.0344 11.3432V22.6567C30.0344 23.6725 29.4873 24.6103 28.6011 25.1146L18.6277 30.7912C17.7501 31.2899 16.673 31.2899 15.7953 30.7912L5.82198 25.1146C4.93578 24.6103 4.38867 23.6725 4.38867 22.6567V11.3432C4.38867 10.3275 4.93578 9.38964 5.82198 8.88531L15.7953 3.20872C16.673 2.71006 17.7501 2.71006 18.6277 3.20872L28.6011 8.88531C29.4873 9.38964 30.0344 10.3275 30.0344 11.3432Z"
                  stroke-width="1.5" stroke-linecap="round" stroke-linejoin="round"/>
            <path d="M4.80176 9.8742L10.8 13.3167" stroke-width="1.5" stroke-linecap="round"
                  stroke-linejoin="round"/>
            <path d="M29.6213 9.8742L23.623 13.3167" stroke-width="1.5" stroke-linecap="round"
                  stroke-linejoin="round"/>
            <path d="M29.4357 24.3667H4.98682" stroke-width="1.5" stroke-linecap="round"
                  stroke-linejoin="round"/>
            <path d="M16.8698 2.8757L4.67383 23.8565" stroke-width="1.5" stroke-linecap="round"
                  stroke-linejoin="round"/>
            <path d="M17.5537 2.8757L29.7497 23.8565" stroke-width="1.5" stroke-linecap="round"
                  stroke-linejoin="round"/>
            <path fill-rule="evenodd" clip-rule="evenodd" d="M17.2122 24.3609L10.8008 13.3194H23.6236L17.2122 24.3609Z"
                  stroke-width="1.5" stroke-linecap="round" stroke-linejoin="round"/>
            <path d="M17.2119 24.3666V31.1666" stroke-width="1.5" stroke-linecap="round"
                  stroke-linejoin="round"/>
        </symbol>
        <symbol id="vk" viewBox="0 0 28 28" stroke="currentColor" fill="none">
            <path d="M12.2324 8.16669H14.7279V20.6419H14.7244C12.1554 20.6419 9.33325 19.082 7.33008 16.2062C4.32475 11.9934 3.50342 8.80835 3.50342 8.16669"
                  stroke-width="1.5" stroke-linecap="round" stroke-linejoin="round"/>
            <path d="M24.4998 20.6419C24.4998 20.6419 23.5922 18.7285 21.7512 16.6227C20.5238 15.1842 18.7948 14.4049 17.2222 14.4049C18.7948 14.4049 20.5238 13.6255 21.7512 12.187C23.5922 10.08 24.4998 8.16669 24.4998 8.16669"
                  stroke-width="1.5" stroke-linecap="round" stroke-linejoin="round"/>
            <path d="M17.2198 14.4083H14.7231" stroke-width="1.5" stroke-linecap="round" stroke-linejoin="round"/>
        </symbol>
        <symbol id="tg" viewBox="0 0 28 28" stroke="currentColor" fill="none">
            <path d="M13.7611 19.7237L11.3519 22.0675C10.9343 22.4735 10.2354 22.2938 10.0663 21.7362L8.46094 16.4512"
                  stroke-width="1.5" stroke-linecap="round" stroke-linejoin="round"/>
            <path d="M8.45955 16.45L3.70305 14.966C3.15821 14.7957 3.13255 14.0339 3.66571 13.8285L21.7665 6.84719C22.4362 6.58936 23.1257 7.17619 22.9764 7.87853L19.8952 22.4C19.7354 23.1514 18.8534 23.4862 18.2362 23.03L12.8334 18.6667C12.3318 18.2969 12.2933 17.5619 12.7564 17.1442C14.3058 15.7454 18.2362 11.6667 18.2362 11.6667L8.7501 16.3334"
                  stroke-width="1.5" stroke-linecap="round" stroke-linejoin="round"/>
        </symbol>
        <symbol id="inst" viewBox="0 0 28 28" stroke="currentColor" fill="none">
            <path fill-rule="evenodd" clip-rule="evenodd"
                  d="M8.74533 3.5H19.2558C22.1515 3.5 24.5 5.84733 24.5 8.74533V19.2558C24.5 22.1515 22.1527 24.5 19.2547 24.5H8.74533C5.8485 24.5 3.5 22.1527 3.5 19.2547V8.74533C3.5 5.8485 5.84733 3.5 8.74533 3.5V3.5Z"
                  stroke-width="1.5" stroke-linecap="round" stroke-linejoin="round"/>
            <path d="M19.7737 7.83186C19.5567 7.83302 19.3805 8.00919 19.3805 8.22619C19.3805 8.44319 19.5578 8.61936 19.7748 8.61936C19.9918 8.61936 20.168 8.44319 20.168 8.22619C20.1692 8.00802 19.9918 7.83186 19.7737 7.83186"
                  stroke-width="1.5" stroke-linecap="round" stroke-linejoin="round"/>
            <path d="M16.9697 11.0301C18.6099 12.6703 18.6099 15.3296 16.9697 16.9698C15.3295 18.61 12.6702 18.61 11.03 16.9698C9.38975 15.3296 9.38975 12.6703 11.03 11.0301C12.6702 9.38994 15.3295 9.38994 16.9697 11.0301"
                  stroke-width="1.5" stroke-linecap="round" stroke-linejoin="round"/>
        </symbol>
        <symbol id="tt" viewBox="0 0 28 28" stroke="currentColor" fill="none">
            <path d="M11.9166 13.5483C9.84557 13.5483 8.1665 15.2166 8.1665 17.2742C8.1665 19.3318 9.84557 21 11.9166 21C13.9876 21 15.6666 19.3318 15.6666 17.2742V8.16669C15.8055 9.13263 16.8332 11.3129 19.8332 12.3065"
                  stroke-width="1.5" stroke-linecap="round" stroke-linejoin="round"/>
            <path fill-rule="evenodd" clip-rule="evenodd"
                  d="M8.75 3.5H19.2547C22.1515 3.5 24.5 5.8485 24.5 8.74533V19.2558C24.5 22.1515 22.1515 24.5 19.2547 24.5H8.74533C5.8485 24.5 3.5 22.1515 3.5 19.2547V8.75C3.5 5.85083 5.85083 3.5 8.75 3.5V3.5Z"
                  stroke-width="1.5" stroke-linecap="round" stroke-linejoin="round"/>
        </symbol>
        <symbol id="pinterest" viewBox="0 0 28 28" stroke="currentColor" fill="none">
            <path d="M10.1499 23.765L12.5766 12.7983" stroke-width="1.5" stroke-linecap="round"
                  stroke-linejoin="round"/>
            <path d="M21.4246 6.57538C25.5251 10.6759 25.5251 17.3241 21.4246 21.4246C17.3241 25.5251 10.6759 25.5251 6.57538 21.4246C2.47487 17.3241 2.47487 10.6759 6.57538 6.57538C10.6759 2.47487 17.3241 2.47487 21.4246 6.57538"
                  stroke-width="1.5" stroke-linecap="round" stroke-linejoin="round"/>
            <path d="M8.51534 15.1421C8.30417 14.5996 8.1665 14.0245 8.1665 13.4166C8.1665 10.5175 10.7787 8.16663 13.9998 8.16663C17.221 8.16663 19.8332 10.5175 19.8332 13.4166C19.8332 16.3158 17.4823 18.6666 14.5832 18.6666C13.4282 18.6666 12.37 18.2828 11.5032 17.6505"
                  stroke-width="1.5" stroke-linecap="round" stroke-linejoin="round"/>
        </symbol>
        <symbol id="reddit" viewBox="0 0 28 28" stroke="currentColor" fill="none">
            <path d="M17.7565 15.4396C17.5955 15.4396 17.4648 15.5703 17.466 15.7313C17.466 15.8923 17.5967 16.0229 17.7577 16.0229C17.9187 16.0229 18.0493 15.8923 18.0493 15.7313C18.0493 15.5703 17.9187 15.4396 17.7565 15.4396"
                  stroke-width="1.5" stroke-linecap="round" stroke-linejoin="round"/>
            <path d="M10.193 15.3416C10.032 15.3416 9.90134 15.4723 9.90251 15.6333C9.90251 15.7943 10.0332 15.9249 10.1942 15.9249C10.3552 15.9249 10.4858 15.7943 10.4858 15.6333C10.4858 15.4723 10.3552 15.3416 10.193 15.3416"
                  stroke-width="1.5" stroke-linecap="round" stroke-linejoin="round"/>
            <path d="M21.0628 6.12617C21.2331 5.95467 21.232 5.67817 21.0616 5.50784C20.8901 5.3375 20.6136 5.3375 20.4433 5.509C20.273 5.6805 20.273 5.957 20.4433 6.12734C20.6136 6.29767 20.8913 6.29767 21.0628 6.12617"
                  stroke-width="1.5" stroke-linecap="round" stroke-linejoin="round"/>
            <path d="M17.8311 19.1438C16.7065 19.5557 15.4231 19.8007 13.9998 19.8007C12.5765 19.8007 11.2931 19.5557 10.1685 19.1438"
                  stroke-width="1.5" stroke-linecap="round" stroke-linejoin="round"/>
            <path fill-rule="evenodd" clip-rule="evenodd"
                  d="M4.39344 16.1163C4.19394 16.0137 4.00261 15.897 3.83811 15.743C2.87911 14.84 2.83244 13.3315 3.73544 12.3725C4.62794 11.424 6.11311 11.3715 7.07444 12.2453C8.82327 10.9923 11.2639 10.1967 13.9998 10.1967C16.7356 10.1967 19.1763 10.9923 20.9251 12.2442C21.8853 11.3703 23.3704 11.4228 24.2641 12.3713C25.1671 13.3303 25.1204 14.84 24.1614 15.7418C23.9981 15.8958 23.8056 16.0137 23.6061 16.1152C23.6528 16.3788 23.6843 16.6448 23.6843 16.9143C23.6843 20.5217 19.4143 23.6332 13.9998 23.6332C8.58527 23.6332 4.31527 20.5217 4.31527 16.9143C4.31527 16.6448 4.34677 16.3788 4.39344 16.1163Z"
                  stroke-width="1.5" stroke-linecap="round" stroke-linejoin="round"/>
            <path d="M14 10.1966L14.7338 6.92413C15.0115 5.6863 16.226 4.89763 17.4697 5.1473L20.3338 5.7213"
                  stroke-width="1.5" stroke-linecap="round" stroke-linejoin="round"/>
        </symbol>
        <symbol id="ok" viewBox="0 0 28 28" stroke="currentColor" fill="none">
            <path fill-rule="evenodd" clip-rule="evenodd"
                  d="M17.3 6.03341C19.1224 7.85579 19.1224 10.8108 17.3 12.6332C15.4777 14.4556 12.5227 14.4556 10.7003 12.6332C8.8779 10.8108 8.8779 7.85579 10.7003 6.03341C12.5227 4.21103 15.4777 4.21103 17.3 6.03341Z"
                  stroke-width="1.5" stroke-linecap="round" stroke-linejoin="round"/>
            <path d="M8.1665 15.1666C11.6665 17.5 16.3332 17.5 19.8332 15.1666" stroke-width="1.5"
                  stroke-linecap="round" stroke-linejoin="round"/>
            <path d="M18.6668 23.3333L14.0002 18.6666L9.3335 23.3333" stroke-width="1.5" stroke-linecap="round"
                  stroke-linejoin="round"/>
        </symbol>
        <symbol id="medium" viewBox="0 0 28 28" stroke="currentColor" fill="none">
            <path d="M22.8351 14.5835V14.6651C22.824 16.5101 22.4391 18.1426 21.8563 19.2923C21.2436 20.5009 20.5336 20.9727 19.9659 20.9727C19.3981 20.9727 18.6882 20.5009 18.0755 19.2923C17.4841 18.1257 17.0964 16.4619 17.0964 14.5835C17.0964 12.705 17.4841 11.0412 18.0754 9.87461C18.688 8.66605 19.3979 8.19422 19.9656 8.19422C20.5335 8.19422 21.2434 8.66595 21.856 9.87428C22.4474 11.0407 22.8351 12.7045 22.8351 14.5835ZM8.40564 7.75C11.9568 7.75 14.8943 10.7763 14.8943 14.5835C14.8943 18.3906 11.9566 21.4167 8.40564 21.4167C4.8546 21.4167 1.91675 18.3906 1.91675 14.5835C1.91675 10.7763 4.85441 7.75 8.40564 7.75ZM25.3961 10.2075C25.4488 9.94266 25.5043 9.713 25.5605 9.51883C25.6167 9.71299 25.6722 9.94262 25.7249 10.2075C25.9431 11.3036 26.0834 12.8511 26.0834 14.5835C26.0834 16.3153 25.9432 17.8628 25.725 18.9591C25.6723 19.2242 25.6167 19.454 25.5605 19.6483C25.5043 19.4541 25.4487 19.2244 25.396 18.9594C25.1779 17.8632 25.0377 16.3157 25.0377 14.5835C25.0377 12.8513 25.1779 11.3037 25.3961 10.2075Z"
                  stroke-width="1.5"/>
        </symbol>
        <symbol id="fb" viewBox="0 0 28 28" stroke="currentColor" fill="none">
            <path fill-rule="evenodd" clip-rule="evenodd"
                  d="M8.75 3.5H19.2547C22.1515 3.5 24.5 5.8485 24.5 8.74533V19.2558C24.5 22.1515 22.1515 24.5 19.2547 24.5H8.74533C5.8485 24.5 3.5 22.1515 3.5 19.2547V8.75C3.5 5.85083 5.85083 3.5 8.75 3.5V3.5Z"
                  stroke-width="1.5" stroke-linecap="round" stroke-linejoin="round"/>
            <path d="M12.9502 15.05H19.2502" stroke-width="1.5" stroke-linecap="round" stroke-linejoin="round"/>
            <path d="M19.2498 9.79999H18.1473C16.437 9.79999 15.0498 11.1872 15.0498 12.8975V14V24.5" stroke-width="1.5"
                  stroke-linecap="round" stroke-linejoin="round"/>
        </symbol>
        <symbol id="yt" viewBox="0 0 28 28" stroke="currentColor" fill="none">
            <path fill-rule="evenodd" clip-rule="evenodd"
                  d="M25.1803 7.43518C24.9132 6.26385 24.1222 5.33985 23.1165 5.02251C21.2977 4.45435 14.0002 4.45435 14.0002 4.45435C14.0002 4.45435 6.70616 4.45435 4.88383 5.02251C3.88166 5.33518 3.09066 6.25918 2.82 7.43518C2.3335 9.56085 2.3335 14 2.3335 14C2.3335 14 2.3335 18.4392 2.82 20.5648C3.08716 21.7362 3.87816 22.6602 4.88383 22.9775C6.70616 23.5457 14.0002 23.5457 14.0002 23.5457C14.0002 23.5457 21.2977 23.5457 23.1165 22.9775C24.1187 22.6648 24.9097 21.7408 25.1803 20.5648C25.6668 18.4392 25.6668 14 25.6668 14C25.6668 14 25.6668 9.56085 25.1803 7.43518Z"
                  stroke-width="1.5" stroke-linecap="round" stroke-linejoin="round"/>
            <path fill-rule="evenodd" clip-rule="evenodd" d="M11.6689 17.5L17.7309 14L11.6689 10.5V17.5Z"
                  stroke-width="1.5" stroke-linecap="round" stroke-linejoin="round"/>
        </symbol>
        <symbol id="tw" viewBox="0 0 52 52" stroke="none" fill="currentColor">
            <path d="M4.43894 6.5L21.1694 28.0107L4.3335 45.5H8.12289L22.8631 30.1875L34.7723 45.5H47.6668L29.9946 22.7795L45.6656 6.5H41.8762L28.3017 20.602L17.3335 6.5H4.43894ZM10.0114 9.18377H15.9351L42.0936 42.8162H36.1699L10.0114 9.18377Z"/>
        </symbol>
        <symbol id="bitrix" viewBox="0 0 28 28" stroke="currentColor" fill="none">
            <path d="M4.6665 10.9852C4.01616 11.2687 3.40697 11.6765 2.87498 12.2085C0.59701 14.4864 0.59701 18.1802 2.87498 20.4582C4.01397 21.5972 5.5069 22.1667 6.99984 22.1667H22.1665"
                  stroke-width="1.5" stroke-linecap="round" stroke-linejoin="round"/>
            <path d="M15.4703 7.44406C15.2361 7.06385 14.9542 6.7047 14.6247 6.37517C12.3467 4.09719 8.65296 4.09719 6.37498 6.37517C5.1404 7.60975 4.57492 9.26018 4.67854 10.8757"
                  stroke-width="1.5" stroke-linecap="round" stroke-linejoin="round"/>
            <path d="M22.1689 22.1666C23.3626 22.1661 24.556 21.7105 25.4666 20.7999C27.289 18.9775 27.289 16.0225 25.4666 14.2001C24.556 13.2895 23.3626 12.8339 22.1689 12.8333"
                  stroke-width="1.5" stroke-linecap="round" stroke-linejoin="round"/>
            <path d="M15.4263 7.48471C17.1716 6.61894 19.3463 6.91297 20.8001 8.36678C22.0105 9.57721 22.417 11.2873 22.0195 12.8333"
                  stroke-width="1.5" stroke-linecap="round" stroke-linejoin="round"/>
            <path fill-rule="evenodd" clip-rule="evenodd"
                  d="M17.3 11.8668C19.1224 13.6892 19.1224 16.6442 17.3 18.4665C15.4777 20.2889 12.5227 20.2889 10.7003 18.4665C8.8779 16.6442 8.8779 13.6892 10.7003 11.8668C12.5227 10.0444 15.4777 10.0444 17.3 11.8668Z"
                  stroke-width="1.5" stroke-linecap="round" stroke-linejoin="round"/>
            <path d="M14 13.4167V15.1667H15.75" stroke-width="1.5" stroke-linecap="round" stroke-linejoin="round"/>
        </symbol>
        <symbol id="linkedin" viewBox="0 0 28 28" stroke="currentColor" fill="none">
            <path fill-rule="evenodd" clip-rule="evenodd"
                  d="M8.75 3.5H19.2547C22.1515 3.5 24.5 5.8485 24.5 8.74533V19.2558C24.5 22.1515 22.1515 24.5 19.2547 24.5H8.74533C5.8485 24.5 3.5 22.1515 3.5 19.2547V8.75C3.5 5.85083 5.85083 3.5 8.75 3.5V3.5Z"
                  stroke-width="1.5" stroke-linecap="round" stroke-linejoin="round"/>
            <path d="M9.47347 12.95V19.25" stroke-width="1.5" stroke-linecap="round"
                  stroke-linejoin="round"/>
            <path d="M13.6719 19.25V15.575C13.6719 14.1248 14.8467 12.95 16.2969 12.95V12.95C17.747 12.95 18.9219 14.1248 18.9219 15.575V19.25"
                  stroke-width="1.5" stroke-linecap="round" stroke-linejoin="round"/>
            <path d="M9.47084 9.14432C9.32618 9.14432 9.20834 9.26215 9.20951 9.40682C9.20951 9.55149 9.32734 9.66932 9.47201 9.66932C9.61668 9.66932 9.73451 9.55149 9.73451 9.40682C9.73451 9.26099 9.61668 9.14432 9.47084 9.14432"
                  stroke-width="1.5" stroke-linecap="round" stroke-linejoin="round"/>
        </symbol>
        <symbol id="discord" viewBox="0 0 28 28" stroke="currentColor" fill="none">
            <path d="M11.1202 15.509C11.4609 14.9945 11.4586 14.165 11.1179 13.654C10.7749 13.143 10.2219 13.143 9.88124 13.6575C9.54058 14.172 9.54058 15.0015 9.88124 15.5125C10.2219 16.0235 10.7772 16.0235 11.1202 15.509"
                  stroke-width="1.5" stroke-linecap="round" stroke-linejoin="round"/>
            <path d="M18.1202 15.509C18.4609 14.9945 18.4586 14.165 18.1179 13.654C17.7749 13.143 17.2219 13.143 16.8812 13.6575C16.5406 14.172 16.5406 15.0015 16.8812 15.5125C17.2219 16.0235 17.7772 16.0235 18.1202 15.509"
                  stroke-width="1.5" stroke-linecap="round" stroke-linejoin="round"/>
            <path d="M19.8332 18.9215C18.1208 19.3334 16.1669 19.5784 13.9998 19.5784C11.8328 19.5784 9.87885 19.3334 8.1665 18.9215"
                  stroke-width="1.5" stroke-linecap="round" stroke-linejoin="round"/>
            <path d="M16.3335 7.58325C15.991 7.58325 13.8502 7.58325 13.4168 7.58325C12.9834 7.58325 11.426 7.58325 11.0835 7.58325"
                  stroke-width="1.5" stroke-linecap="round" stroke-linejoin="round"/>
            <path d="M17.5002 19.8333L18.6668 21.5833C19.8335 21.5833 22.1668 21 23.9168 19.25C23.9168 16.3333 23.9168 12.25 21.0002 7.58329C20.6113 7.38885 19.2502 6.88329 16.9168 6.41663L16.3335 6.99996"
                  stroke-width="1.5" stroke-linecap="round"/>
            <path d="M9.91683 19.8333L8.75016 21.5833C7.5835 21.5833 5.25016 21 3.50016 19.25C3.50016 16.3333 3.50016 12.25 6.41683 7.58329C6.80572 7.38885 8.16683 6.88329 10.5002 6.41663L11.0835 6.99996"
                  stroke-width="1.5" stroke-linecap="round"/>
        </symbol>
        <symbol id="webhook" viewBox="0 0 28 28" stroke="currentColor" fill="none">
            <path d="M18.3276 9.91669C19.0077 8.23262 18.6652 6.23193 17.3 4.8668C15.4777 3.04442 12.5227 3.04442 10.7003 4.8668C8.8779 6.68918 8.8779 9.64419 10.7003 11.4666C11.1076 11.8739 11.5716 12.1902 12.0669 12.4155L7.5835 19.25"
                  stroke-width="1.5" stroke-linejoin="round"/>
            <path d="M17.7002 23.1332C19.5226 24.9556 22.4776 24.9556 24.3 23.1332C26.1223 21.3108 26.1223 18.3558 24.3 16.5335C22.7054 14.9389 20.2437 14.7396 18.4324 15.9354L14.583 9.33333"
                  stroke-width="1.5" stroke-linejoin="round"/>
            <path d="M6.15158 15.244C5.25358 15.4092 4.3947 15.839 3.70028 16.5335C1.8779 18.3558 1.8779 21.3108 3.70028 23.1332C5.52266 24.9556 8.47767 24.9556 10.3 23.1332C11.2107 22.2226 11.6663 21.0292 11.6668 19.8355H19.8335"
                  stroke-width="1.5" stroke-linejoin="round"/>
            <path d="M14.8251 8.99168C15.2807 8.53608 15.2807 7.79733 14.8251 7.34174C14.3695 6.88614 13.6308 6.88614 13.1752 7.34174C12.7196 7.79733 12.7196 8.53608 13.1752 8.99168C13.6308 9.44727 14.3695 9.44727 14.8251 8.99168"
                  stroke-width="1.5" stroke-linecap="round" stroke-linejoin="round"/>
            <path d="M21.8251 20.6583C22.2807 20.2027 22.2807 19.464 21.8251 19.0084C21.3695 18.5528 20.6308 18.5528 20.1752 19.0084C19.7196 19.464 19.7196 20.2027 20.1752 20.6583C20.6308 21.1139 21.3695 21.1139 21.8251 20.6583"
                  stroke-width="1.5" stroke-linecap="round" stroke-linejoin="round"/>
            <path d="M7.82513 20.6583C8.28073 20.2027 8.28073 19.464 7.82513 19.0084C7.36954 18.5528 6.63079 18.5528 6.17519 19.0084C5.7196 19.464 5.7196 20.2027 6.17519 20.6583C6.63079 21.1139 7.36954 21.1139 7.82513 20.6583"
                  stroke-width="1.5" stroke-linecap="round" stroke-linejoin="round"/>
        </symbol>
        <symbol id="idea" viewBox="0 0 54 55" stroke="currentColor" fill="none">
            <path fill-rule="evenodd" clip-rule="evenodd"
                  d="M13.7659 8.28083C14.1574 7.55178 14.918 7.09692 15.7455 7.09692C16.573 7.09692 17.3336 7.55178 17.7251 8.28083L19.471 11.476C19.6778 11.8559 19.9899 12.1679 20.3697 12.3748L23.5649 14.1207C24.294 14.5122 24.7488 15.2727 24.7488 16.1002C24.7488 16.9278 24.294 17.6883 23.5649 18.0798L20.3697 19.8257C19.9899 20.0326 19.6778 20.3446 19.471 20.7245L17.7251 23.9197C17.3336 24.6487 16.573 25.1036 15.7455 25.1036C14.918 25.1036 14.1574 24.6487 13.7659 23.9197L12.0201 20.7245C11.8132 20.3446 11.5011 20.0326 11.1213 19.8257L7.92609 18.0798C7.19704 17.6883 6.74219 16.9278 6.74219 16.1002C6.74219 15.2727 7.19704 14.5122 7.92609 14.1207L11.1213 12.3748C11.5011 12.1679 11.8132 11.8559 12.0201 11.476L13.7659 8.28083Z"
                  stroke-width="2" stroke-linecap="round" stroke-linejoin="round"/>
            <path fill-rule="evenodd" clip-rule="evenodd"
                  d="M39.0212 16.9885C39.3149 16.4417 39.8853 16.1006 40.5059 16.1006C41.1265 16.1006 41.6969 16.4417 41.9906 16.9885L43.3 19.3849C43.4551 19.6698 43.6892 19.9038 43.9741 20.059L46.3705 21.3684C46.9173 21.662 47.2584 22.2324 47.2584 22.8531C47.2584 23.4737 46.9173 24.0441 46.3705 24.3377L43.9741 25.6472C43.6892 25.8023 43.4551 26.0364 43.3 26.3212L41.9906 28.7176C41.6969 29.2644 41.1265 29.6056 40.5059 29.6056C39.8853 29.6056 39.3149 29.2644 39.0212 28.7176L37.7118 26.3212C37.5567 26.0364 37.3226 25.8023 37.0377 25.6472L34.6413 24.3377C34.0946 24.0441 33.7534 23.4737 33.7534 22.8531C33.7534 22.2324 34.0946 21.662 34.6413 21.3684L37.0377 20.059C37.3226 19.9038 37.5567 19.6698 37.7118 19.3849L39.0212 16.9885Z"
                  stroke-width="2" stroke-linecap="round" stroke-linejoin="round"/>
            <path fill-rule="evenodd" clip-rule="evenodd"
                  d="M24.1427 32.8931C24.4853 32.2552 25.1507 31.8572 25.8748 31.8572C26.5989 31.8572 27.2643 32.2552 27.6069 32.8931L29.1346 35.6887C29.3156 36.0211 29.5886 36.2942 29.921 36.4752L32.7167 38.0028C33.3546 38.3454 33.7526 39.0109 33.7526 39.7349C33.7526 40.459 33.3546 41.1244 32.7167 41.467L29.921 42.9947C29.5886 43.1757 29.3156 43.4487 29.1346 43.7811L27.6069 46.5768C27.2643 47.2147 26.5989 47.6127 25.8748 47.6127C25.1507 47.6127 24.4853 47.2147 24.1427 46.5768L22.615 43.7811C22.4341 43.4487 22.161 43.1757 21.8286 42.9947L19.033 41.467C18.3951 41.1244 17.9971 40.459 17.9971 39.7349C17.9971 39.0109 18.3951 38.3454 19.033 38.0028L21.8286 36.4752C22.161 36.2942 22.4341 36.0211 22.615 35.6887L24.1427 32.8931Z"
                  stroke-width="2" stroke-linecap="round" stroke-linejoin="round"/>
            <path d="M9.10569 34.2203C9.10569 34.2825 9.0553 34.3329 8.99314 34.3329C8.93099 34.3329 8.8806 34.2825 8.8806 34.2203C8.8806 34.1582 8.93099 34.1078 8.99314 34.1078"
                  stroke-width="2" stroke-linecap="round" stroke-linejoin="round"/>
            <path d="M8.99302 34.1078C9.05518 34.1078 9.10557 34.1582 9.10557 34.2203" stroke-width="2"
                  stroke-linecap="round" stroke-linejoin="round"/>
            <path d="M42.8694 40.8606C42.8694 40.9227 42.819 40.9731 42.7568 40.9731C42.6947 40.9731 42.6443 40.9227 42.6443 40.8606C42.6443 40.7984 42.6947 40.748 42.7568 40.748"
                  stroke-width="2" stroke-linecap="round" stroke-linejoin="round"/>
            <path d="M42.7572 40.748C42.8193 40.748 42.8697 40.7984 42.8697 40.8606" stroke-width="2"
                  stroke-linecap="round" stroke-linejoin="round"/>
            <path d="M33.9783 9.34739C33.9783 9.40955 33.9279 9.45994 33.8657 9.45994C33.8035 9.45994 33.7532 9.40955 33.7532 9.34739C33.7532 9.28523 33.8035 9.23485 33.8657 9.23485"
                  stroke-width="2" stroke-linecap="round" stroke-linejoin="round"/>
            <path d="M33.8661 9.23484C33.8959 9.23484 33.9245 9.2467 33.9457 9.26781C33.9668 9.28892 33.9786 9.31754 33.9786 9.34739"
                  stroke-width="2" stroke-linecap="round" stroke-linejoin="round"/>
        </symbol>
        <symbol id="plan" viewBox="0 0 54 55" stroke="currentColor" fill="none">
            <path d="M41.3618 18.355H43.749C45.684 18.355 47.25 19.921 47.25 21.856V44.1062C47.25 46.039 45.684 47.605 43.749 47.605H19.251C17.316 47.605 15.75 46.039 15.75 44.104V40.855"
                  stroke-width="2" stroke-linecap="round" stroke-linejoin="round"/>
            <path fill-rule="evenodd" clip-rule="evenodd"
                  d="M9.00246 40.855H34.4545C35.9597 40.855 37.3637 40.1035 38.1985 38.8502L39.85 36.3707C40.8355 34.8925 41.362 33.1555 41.362 31.378V13.855C41.362 11.3687 39.3482 9.35498 36.862 9.35498H14.362C11.8757 9.35498 9.86196 11.3687 9.86196 13.855V29.731C9.86196 31.1282 9.53571 32.5052 8.91246 33.7562L6.99096 37.5992C6.24171 39.0955 7.33071 40.855 9.00246 40.855Z"
                  stroke-width="2" stroke-linecap="round" stroke-linejoin="round"/>
            <path d="M18.8569 7.10498V11.605" stroke-width="2" stroke-linecap="round" stroke-linejoin="round"/>
            <path d="M32.3569 7.10498V11.605" stroke-width="2" stroke-linecap="round" stroke-linejoin="round"/>
            <path d="M18.4263 20.605H31.9263" stroke-width="2" stroke-linecap="round" stroke-linejoin="round"/>
            <path d="M18.4263 29.605H31.9263" stroke-width="2" stroke-linecap="round" stroke-linejoin="round"/>
        </symbol>
        <symbol id="click" viewBox="0 0 54 55" stroke="currentColor" fill="none">
            <path d="M40.9432 36.202V36.202L45.3892 40.648C46.3702 41.629 46.3702 43.222 45.3892 44.203L42.7207 46.8715C41.7397 47.8525 40.1467 47.8525 39.1657 46.8715L34.7197 42.4255L31.3695 45.7758C30.708 46.4373 29.583 46.1718 29.2882 45.2853L22.8262 25.897C22.4977 24.9138 23.4337 23.98 24.417 24.3063L43.8052 30.7683C44.6917 31.063 44.9572 32.188 44.2957 32.8495L40.9432 36.202"
                  stroke-width="2" stroke-linecap="round" stroke-linejoin="round"/>
            <path d="M10.755 24.9475H5.625" stroke-width="2" stroke-linecap="round" stroke-linejoin="round"/>
            <path d="M14.4902 15.97L10.8452 12.325" stroke-width="2" stroke-linecap="round" stroke-linejoin="round"/>
            <path d="M14.3999 34.015L10.7549 37.66" stroke-width="2" stroke-linecap="round" stroke-linejoin="round"/>
            <path d="M23.4673 12.235V7.10498" stroke-width="2" stroke-linecap="round" stroke-linejoin="round"/>
            <path d="M32.5352 15.88L36.1802 12.235" stroke-width="2" stroke-linecap="round" stroke-linejoin="round"/>
        </symbol>
        <symbol id="pen2" viewBox="0 0 54 55" stroke="currentColor" fill="none">
            <path d="M42.1154 12.2394C50.4629 20.5869 50.4629 34.1207 42.1154 42.4682C33.7679 50.8157 20.2341 50.8157 11.8866 42.4682C3.5391 34.1207 3.5391 20.5869 11.8866 12.2394C20.2319 3.89416 33.7679 3.89416 42.1154 12.2394"
                  stroke-width="2" stroke-linecap="round" stroke-linejoin="round"/>
            <path d="M18 46.7477V35.5225C18 34.465 18.2475 33.421 18.7268 32.4782L27 16.105L35.2733 32.4782C35.7525 33.421 36 34.465 36 35.5225V46.7477"
                  stroke-width="2" stroke-linecap="round" stroke-linejoin="round"/>
            <path d="M35.8268 34.0439L31.5586 37.2457L27.0001 33.8257L22.4416 37.2457L18.1733 34.0439" stroke-width="2"
                  stroke-linecap="round" stroke-linejoin="round"/>
        </symbol>
        <symbol id="message-check" viewBox="0 0 54 55" stroke="currentColor" fill="none">
            <path d="M27.153 36.8635C25.6657 37.2235 24.111 37.435 22.5 37.435C21.2197 37.435 19.971 37.309 18.7628 37.0772L11.7 40.5557C11.7 38.1482 11.6955 35.8555 11.6978 34.1545C7.3395 31.189 4.5 26.4865 4.5 21.145C4.5 12.1067 12.5955 4.85498 22.5 4.85498C32.4045 4.85498 40.5 12.1067 40.5 21.145C40.5 23.3522 40.0095 25.4492 39.1365 27.364"
                  stroke-width="2" stroke-linecap="round" stroke-linejoin="round"/>
            <path d="M38.25 49.855C32.0378 49.855 27 44.8172 27 38.605C27 32.3927 32.0378 27.355 38.25 27.355C44.4645 27.355 49.5 32.3927 49.5 38.605C49.5 44.8172 44.4645 49.855 38.25 49.855"
                  stroke-width="2" stroke-linecap="round" stroke-linejoin="round"/>
            <path d="M43.2495 36.1055L36.999 42.356L33.2505 38.6052" stroke-width="2" stroke-linecap="round"
                  stroke-linejoin="round"/>
            <path d="M22.8982 21.0775C23.1187 21.298 23.1187 21.6535 22.8982 21.874C22.6777 22.0945 22.3223 22.0945 22.1018 21.874C21.8813 21.6535 21.8813 21.298 22.1018 21.0775C22.3223 20.8592 22.6777 20.8592 22.8982 21.0775"
                  stroke-width="2" stroke-linecap="round" stroke-linejoin="round"/>
            <path d="M30.8968 21.0775C31.1173 21.298 31.1173 21.6535 30.8968 21.874C30.6763 22.0945 30.3208 22.0945 30.1003 21.874C29.8798 21.6535 29.8798 21.298 30.1003 21.0775C30.3208 20.8592 30.6785 20.8592 30.8968 21.0775"
                  stroke-width="2" stroke-linecap="round" stroke-linejoin="round"/>
            <path d="M14.8973 21.0775C15.1178 21.298 15.1178 21.6535 14.8973 21.874C14.6768 22.0945 14.3213 22.0945 14.1008 21.874C13.8803 21.6535 13.8803 21.298 14.1008 21.0775C14.3213 20.8592 14.679 20.8592 14.8973 21.0775"
                  stroke-width="2" stroke-linecap="round" stroke-linejoin="round"/>
        </symbol>
        <symbol id="sync" viewBox="0 0 54 55" stroke="currentColor" fill="none">
            <path d="M3.36523 25.6757L6.74164 22.2993L10.118 25.6757" stroke-width="2" stroke-linecap="round"
                  stroke-linejoin="round"/>
            <path d="M50.6351 29.043L47.2587 32.4194L43.8823 29.043" stroke-width="2" stroke-linecap="round"
                  stroke-linejoin="round"/>
            <path d="M10.5186 15.6276C16.0909 7.72276 26.4794 4.86862 35.3082 8.81691C44.1371 12.7652 48.9356 22.4111 46.7586 31.8344"
                  stroke-width="2" stroke-linecap="round" stroke-linejoin="round"/>
            <path d="M43.4723 39.0822C37.9 46.9871 27.5115 49.8412 18.6827 45.8929C9.85383 41.9446 5.05534 32.2988 7.23226 22.8755"
                  stroke-width="2" stroke-linecap="round" stroke-linejoin="round"/>
            <path d="M36.0036 36.3589C35.7419 35.7003 35.3357 35.1088 34.8151 34.6279V34.6279C33.9379 33.8126 32.7849 33.3591 31.5873 33.3584H22.4147C21.2164 33.3592 20.0627 33.8126 19.1846 34.6279V34.6279C18.6652 35.1098 18.2592 35.701 17.9961 36.3589"
                  stroke-width="2" stroke-linecap="round" stroke-linejoin="round"/>
            <ellipse cx="27.0002" cy="23.4157" rx="5.06461" ry="5.06461" stroke-width="2" stroke-linecap="round"
                     stroke-linejoin="round"/>
        </symbol>
        <symbol id="lock" viewBox="0 0 54 55" stroke="currentColor" fill="none">
            <path fill-rule="evenodd" clip-rule="evenodd"
                  d="M31.5 27.355H22.5C20.0137 27.355 18 25.3412 18 22.855V18.355C18 15.8687 20.0137 13.855 22.5 13.855H31.5C33.9863 13.855 36 15.8687 36 18.355V22.855C36 25.3412 33.9863 27.355 31.5 27.355Z"
                  stroke-width="2" stroke-linecap="round" stroke-linejoin="round"/>
            <path fill-rule="evenodd" clip-rule="evenodd"
                  d="M38.25 47.605H15.75C12.0217 47.605 9 44.5832 9 40.855V40.855C9 37.1267 12.0217 34.105 15.75 34.105H38.25C41.9783 34.105 45 37.1267 45 40.855V40.855C45 44.5832 41.9783 47.605 38.25 47.605Z"
                  stroke-width="2" stroke-linecap="round" stroke-linejoin="round"/>
            <path d="M16.875 40.8325C16.8682 40.8325 16.8638 40.837 16.8638 40.8438C16.8638 40.8505 16.8682 40.855 16.875 40.855C16.8818 40.855 16.8862 40.8505 16.8862 40.8438C16.8862 40.837 16.8818 40.8325 16.875 40.8325"
                  stroke-width="2" stroke-linecap="round" stroke-linejoin="round"/>
            <path d="M23.625 40.855C23.6182 40.855 23.6138 40.8595 23.6138 40.8662C23.6138 40.873 23.6182 40.8775 23.625 40.8775C23.6318 40.8775 23.6362 40.873 23.6362 40.8662C23.6362 40.8595 23.6318 40.855 23.625 40.855"
                  stroke-width="2" stroke-linecap="round" stroke-linejoin="round"/>
            <path d="M30.3638 40.8437C30.357 40.8437 30.3525 40.8482 30.3525 40.855C30.3525 40.8617 30.357 40.8662 30.3638 40.8662C30.3705 40.8662 30.375 40.8617 30.375 40.855C30.375 40.8482 30.3705 40.8437 30.3638 40.8437"
                  stroke-width="2" stroke-linecap="round" stroke-linejoin="round"/>
            <path d="M37.1138 40.8437C37.107 40.8437 37.1025 40.8482 37.1025 40.855C37.1025 40.8617 37.107 40.8662 37.1138 40.8662C37.1205 40.8662 37.125 40.8617 37.125 40.855C37.125 40.8482 37.1205 40.8437 37.1138 40.8437"
                  stroke-width="2" stroke-linecap="round" stroke-linejoin="round"/>
            <path d="M31.5 13.855V9.07373C31.5 6.74273 29.4863 4.85498 27 4.85498C24.5137 4.85498 22.5 6.74273 22.5 9.07373V13.855"
                  stroke-width="2" stroke-linecap="round" stroke-linejoin="round"/>
        </symbol>
        <symbol id="watch" viewBox="0 0 74 74" stroke="currentColor" fill="none">
            <path d="M43.1667 41.6248L37 36.9998V29.2915" stroke-width="3" stroke-linecap="round"
                  stroke-linejoin="round"/>
            <path d="M48.47 22.5022L46.6817 11.8246C46.4319 10.3384 45.1462 9.25 43.6415 9.25H30.3647C28.8569 9.25 27.5681 10.3415 27.3214 11.8277L25.5547 22.5022"
                  stroke-width="3" stroke-linecap="round" stroke-linejoin="round"/>
            <path d="M50.0815 23.9185C57.3062 31.1432 57.3062 42.8568 50.0815 50.0815C42.8568 57.3062 31.1432 57.3062 23.9185 50.0815C16.6938 42.8568 16.6938 31.1432 23.9185 23.9185C31.1432 16.6938 42.8568 16.6938 50.0815 23.9185"
                  stroke-width="3" stroke-linecap="round" stroke-linejoin="round"/>
            <path d="M25.5547 51.498L27.3245 62.1695C27.5681 63.6587 28.8569 64.7502 30.3647 64.7502H43.6415C45.1493 64.7502 46.435 63.6618 46.6817 62.1756L48.47 51.498"
                  stroke-width="3" stroke-linecap="round" stroke-linejoin="round"/>
        </symbol>
        <symbol id="adaptive" viewBox="0 0 74 74" stroke="currentColor" fill="none">
            <path d="M58.5923 36.9998V15.4075C58.5923 12.0003 55.8302 9.23828 52.4231 9.23828H20.2073C16.8001 9.23828 14.0381 12.0003 14.0381 15.4075V30.8306"
                  stroke-width="3" stroke-linecap="round" stroke-linejoin="round"/>
            <path fill-rule="evenodd" clip-rule="evenodd"
                  d="M61.6768 61.6769H52.423C50.7194 61.6769 49.3384 60.2959 49.3384 58.5923V40.0846C49.3384 38.381 50.7194 37 52.423 37H61.6768C63.3804 37 64.7615 38.381 64.7615 40.0846V58.5923C64.7615 60.2959 63.3804 61.6769 61.6768 61.6769Z"
                  stroke-width="3" stroke-linecap="round" stroke-linejoin="round"/>
            <path d="M49.3381 46.2537H33.915" stroke-width="3" stroke-linecap="round" stroke-linejoin="round"/>
            <rect x="9.23828" y="30.8306" width="24.6769" height="33.9308" rx="1.5" stroke-width="3"
                  stroke-linecap="round" stroke-linejoin="round"/>
        </symbol>
        <symbol id="publication" viewBox="0 0 74 74" stroke="currentColor" fill="none">
            <path fill-rule="evenodd" clip-rule="evenodd"
                  d="M23.1191 27.746H13.8652C11.3098 27.746 9.23828 25.6744 9.23828 23.1191V13.8652C9.23828 11.3098 11.3098 9.23828 13.8652 9.23828H23.1191C25.6744 9.23828 27.746 11.3098 27.746 13.8652V23.1191C27.746 25.6744 25.6744 27.746 23.1191 27.746Z"
                  stroke-width="3" stroke-linecap="round" stroke-linejoin="round"/>
            <path fill-rule="evenodd" clip-rule="evenodd"
                  d="M60.1346 27.746H41.6269C39.0715 27.746 37 25.6744 37 23.1191V13.8652C37 11.3098 39.0715 9.23828 41.6269 9.23828H60.1346C62.69 9.23828 64.7616 11.3098 64.7616 13.8652V23.1191C64.7616 25.6744 62.69 27.746 60.1346 27.746Z"
                  stroke-width="3" stroke-linecap="round" stroke-linejoin="round"/>
            <path d="M35.6766 41.627L22.3448 54.678L17.9678 50.2947" stroke-width="3" stroke-linecap="round"
                  stroke-linejoin="round"/>
            <path d="M25.7626 38.3232H16.919C12.677 38.3232 9.23828 41.762 9.23828 46.0039V57.0808C9.23828 61.3227 12.677 64.7615 16.919 64.7615H27.9958C32.2378 64.7615 35.6765 61.3227 35.6765 57.0808V54.8475"
                  stroke-width="3" stroke-linecap="round" stroke-linejoin="round"/>
            <path fill-rule="evenodd" clip-rule="evenodd"
                  d="M60.1347 55.5077H50.8808C48.3255 55.5077 46.2539 53.4362 46.2539 50.8808V41.6269C46.2539 39.0715 48.3255 37 50.8808 37H60.1347C62.6901 37 64.7616 39.0715 64.7616 41.6269V50.8808C64.7616 53.4362 62.6901 55.5077 60.1347 55.5077Z"
                  stroke-width="3" stroke-linecap="round" stroke-linejoin="round"/>
        </symbol>
        <symbol id="action" viewBox="0 0 74 74" stroke="currentColor" fill="none">
            <path d="M23.2913 33.9165H12.3332C8.92609 33.9165 6.1665 31.1569 6.1665 27.7498V12.3332C6.1665 8.92609 8.92609 6.1665 12.3332 6.1665H61.6665C65.0736 6.1665 67.8332 8.92609 67.8332 12.3332V27.7498C67.8332 31.1569 65.0736 33.9165 61.6665 33.9165H32.5413"
                  stroke-width="3" stroke-linecap="round" stroke-linejoin="round"/>
            <path fill-rule="evenodd" clip-rule="evenodd"
                  d="M32.5413 40.083V26.208C32.5413 23.655 30.4693 21.583 27.9163 21.583V21.583C25.3633 21.583 23.2913 23.655 23.2913 26.208V33.9163V49.333L20.5132 46.5549C18.6416 44.6833 15.6076 44.6833 13.736 46.5549V46.5549C12.1204 48.1706 11.8706 50.702 13.1379 52.6013L21.4598 65.0858C22.6037 66.8032 24.5308 67.833 26.5935 67.833H42.8982C46.0093 67.833 48.6301 65.5174 49.0186 62.431L50.6898 49.0586C51.0999 45.7687 48.8367 42.7408 45.5653 42.2074L32.5413 40.083Z"
                  stroke-width="3" stroke-linecap="round" stroke-linejoin="round"/>
            <path d="M57.0413 16.958L49.333 24.6663L44.708 20.0413" stroke-width="3" stroke-linecap="round"
                  stroke-linejoin="round"/>
        </symbol>
        <symbol id="not-vpn" viewBox="0 0 74 74" stroke="currentColor" fill="none">
            <path d="M15.0713 20.0415C15.7835 19.1195 16.5328 18.2223 17.3776 17.3775C28.2155 6.53954 45.7844 6.53954 56.6223 17.3775C56.8696 17.6248 57.109 17.8766 57.3417 18.1322"
                  stroke-width="3" stroke-linecap="round" stroke-linejoin="round"/>
            <path d="M15.0713 53.958C15.7805 54.8799 16.5328 55.7772 17.3776 56.622C28.2155 67.4599 45.7844 67.4599 56.6223 56.622C57.4671 55.7772 58.2164 54.8799 58.9286 53.958"
                  stroke-width="3" stroke-linecap="round" stroke-linejoin="round"/>
            <path d="M52.022 44.708V29.686L64.0408 44.708V29.686" stroke-width="3" stroke-linecap="round"
                  stroke-linejoin="round"/>
            <path d="M30.9875 29.6924V44.7082" stroke-width="3" stroke-linecap="round" stroke-linejoin="round"/>
            <path d="M57.0415 18.5L43.1665 30.8333" stroke-width="3" stroke-linecap="round" stroke-linejoin="round"/>
            <path d="M30.8332 40.083L15.4165 53.958" stroke-width="3" stroke-linecap="round" stroke-linejoin="round"/>
            <path d="M30.9902 29.686H38.3132C40.9032 29.686 43.0091 31.7889 43.0091 34.382V34.382C43.0091 36.972 40.9062 39.0779 38.3132 39.0779H30.9902"
                  stroke-width="3" stroke-linecap="round" stroke-linejoin="round"/>
            <path d="M9.95898 29.2915L15.1082 44.7082H16.8256L21.9778 29.2915" stroke-width="3" stroke-linecap="round"
                  stroke-linejoin="round"/>
        </symbol>
        <symbol id="burger" viewBox="0 0 34 34" fill="none">
            <path d="M19 17H5" stroke="#52D3C1" stroke-width="2" stroke-linecap="round" stroke-linejoin="round"/>
            <path d="M29 8H5" stroke="#1A64FF" stroke-width="2" stroke-linecap="round" stroke-linejoin="round"/>
            <path d="M29 26H5" stroke="#1A64FF" stroke-width="2" stroke-linecap="round" stroke-linejoin="round"/>
        </symbol>
        <symbol id="cross" viewBox="0 0 34 34" stroke="currentColor" fill="none">
            <path d="M25.5563 25.3848L8.58579 8.41421" stroke-width="2" stroke-linecap="round" stroke-linejoin="round"/>
            <path d="M25.5562 8.41411L8.5856 25.3847" stroke-width="2" stroke-linecap="round" stroke-linejoin="round"/>
        </symbol>
        <symbol id="arrow" viewBox="0 0 34 34" stroke="currentColor" fill="none">
            <path d="M12.75 24.0833L5.66667 16.9999L12.75 9.91658" stroke-width="2" stroke-linecap="round"/>
            <path d="M5.66683 17L28.3335 17" stroke-width="2" stroke-linecap="round"/>
        </symbol>
        <symbol id="letter" viewBox="0 0 28 28" stroke="currentColor" fill="none">
            <path d="M7 22.1667L14.0019 5.83337L21 22.1667" stroke-width="1.5" stroke-linecap="round"
                  stroke-linejoin="round"/>
            <path d="M9.54541 16.3334H18.4545" stroke-width="1.5" stroke-linecap="round"
                  stroke-linejoin="round"/>
            <path d="M4.6665 22.1666H9.33317" stroke-width="1.5" stroke-linecap="round"
                  stroke-linejoin="round"/>
            <path d="M23.3332 22.1666H18.6665" stroke-width="1.5" stroke-linecap="round"
                  stroke-linejoin="round"/>
        </symbol>
        <symbol id="hashtag" viewBox="0 0 28 28" stroke="currentColor" fill="none">
            <path d="M11.0832 5.83337L9.9165 22.1667" stroke-width="1.5" stroke-linecap="round"
                  stroke-linejoin="round"/>
            <path d="M18.0832 5.83337L16.9165 22.1667" stroke-width="1.5" stroke-linecap="round"
                  stroke-linejoin="round"/>
            <path d="M5.25 17.5H21.5833" stroke-width="1.5" stroke-linecap="round"
                  stroke-linejoin="round"/>
            <path d="M6.4165 10.5H22.7498" stroke-width="1.5" stroke-linecap="round"
                  stroke-linejoin="round"/>
        </symbol>
        <symbol id="smile" viewBox="0 0 28 28" stroke="currentColor" fill="none">
            <path d="M3.5 14C3.5 8.2005 8.2005 3.5 14 3.5C19.7995 3.5 24.5 8.2005 24.5 14"
                  stroke-width="1.5" stroke-linecap="round" stroke-linejoin="round"/>
            <path d="M24.5 14C24.5 19.7995 19.7995 24.5 14 24.5C8.2005 24.5 3.5 19.7995 3.5 14"
                  stroke-width="1.5" stroke-linecap="round" stroke-linejoin="round"/>
            <path d="M9.9165 10.5V11.6667" stroke-width="1.5" stroke-linecap="round"
                  stroke-linejoin="round"/>
            <path d="M18.0835 10.5V11.6667" stroke-width="1.5" stroke-linecap="round"
                  stroke-linejoin="round"/>
            <path d="M18.0832 17.136C18.0832 17.136 16.5513 18.6667 13.9998 18.6667C11.4472 18.6667 9.9165 17.136 9.9165 17.136"
                  stroke-width="1.5" stroke-linecap="round" stroke-linejoin="round"/>
        </symbol>
        <symbol id="pause" viewBox="0 0 24 24" stroke="none" fill="currentColor">
            <rect x="6.37646" y="5.37671" width="3.77922" height="13.8571"/>
            <rect x="13.9351" y="5.37671" width="3.77922" height="13.8571"/>
        </symbol>
        <symbol id="volume" viewBox="0 0 24 24" stroke="currentColor" fill="currentColor">
            <path d="M14.8442 16.0843V8.52588C14.8442 8.52588 17.3637 9.06574 17.3637 12.3051C17.3637 15.5445 14.8442 16.0843 14.8442 16.0843Z"
                  stroke="none"/>
            <path d="M15.4741 5.37671C15.4741 5.37671 19.8832 6.36645 19.8832 12.3053C19.8832 18.2441 15.4741 19.2339 15.4741 19.2339"
                  fill="none" stroke-width="1.25974" stroke-linecap="round"/>
            <path d="M3.50635 15.6769V8.9336H8.54531L13.5843 4.11694V20.4936L8.54531 15.6769H3.50635Z" stroke="none"/>
        </symbol>
        <symbol id="discuss" viewBox="0 0 54 55" stroke="currentColor" fill="none">
            <path fill-rule="evenodd" clip-rule="evenodd"
                  d="M33.75 43.4707H24.75C22.2637 43.4707 20.25 41.457 20.25 38.9707V26.5957C20.25 24.1095 22.2637 22.0957 24.75 22.0957H42.75C45.2363 22.0957 47.25 24.1095 47.25 26.5957V38.9707C47.25 41.457 45.2363 43.4707 42.75 43.4707H40.5V47.9707L33.75 43.4707Z"
                  stroke-width="2" stroke-linecap="round" stroke-linejoin="round"/>
            <path d="M39.6203 22.0957V12.9495C39.6203 9.9232 37.1677 7.4707 34.1415 7.4707H12.2287C9.2025 7.4707 6.75 9.9232 6.75 12.9495V28.0155C6.75 31.0417 9.2025 33.4942 12.2287 33.4942H14.967V38.9707L20.25 35.4495"
                  stroke-width="2" stroke-linecap="round" stroke-linejoin="round"/>
        </symbol>
        <symbol id="pair" viewBox="0 0 54 55" stroke="currentColor" fill="none">
            <ellipse cx="36.0038" cy="26.6086" rx="4.50187" ry="4.50187" stroke-width="2"
                     stroke-linecap="round" stroke-linejoin="round"/>
            <rect x="6.7417" y="7.46216" width="40.5169" height="40.5169" rx="7" stroke-width="2"
                  stroke-linecap="round" stroke-linejoin="round"/>
            <ellipse cx="20.2475" cy="25.4831" rx="5.62734" ry="5.62734" stroke-width="2"
                     stroke-linecap="round" stroke-linejoin="round"/>
            <path d="M32.6277 47.9791V45.7281C32.6277 41.3771 29.1005 37.8499 24.7494 37.8499H15.8695C12.2252 37.8552 9.06219 40.3642 8.22754 43.9116"
                  stroke-width="2" stroke-linecap="round" stroke-linejoin="round"/>
            <path d="M36.0039 37.8633H39.3938C42.4851 37.8718 45.2803 39.7032 46.5225 42.534"
                  stroke-width="2" stroke-linecap="round" stroke-linejoin="round"/>
        </symbol>
        <symbol id="key" viewBox="0 0 54 55" stroke="currentColor" fill="none">
            <path fill-rule="evenodd" clip-rule="evenodd"
                  d="M9.33975 37.6117C7.69725 34.6867 6.75 31.3162 6.75 27.7207C6.75 16.536 15.8152 7.4707 27 7.4707C38.1848 7.4707 47.25 16.536 47.25 27.7207C47.25 38.9055 38.1848 47.9707 27 47.9707C23.4045 47.9707 20.034 47.0235 17.109 45.381L6.75 47.9707L9.33975 37.6117Z"
                  stroke-width="2" stroke-linecap="round" stroke-linejoin="round"/>
            <path d="M38.25 27.7207H24.75" stroke-width="2" stroke-linecap="round"
                  stroke-linejoin="round"/>
            <path d="M39.375 32.2207V27.7207" stroke-width="2" stroke-linecap="round"
                  stroke-linejoin="round"/>
            <path d="M33.75 32.2207V27.7207" stroke-width="2" stroke-linecap="round"
                  stroke-linejoin="round"/>
            <path d="M23.1025 22.6182C25.2992 24.8149 25.2992 28.3765 23.1025 30.5732C20.9058 32.7699 17.3442 32.7699 15.1475 30.5732C12.9508 28.3765 12.9508 24.8149 15.1475 22.6182C17.3442 20.4215 20.9058 20.4215 23.1025 22.6182"
                  stroke-width="2" stroke-linecap="round" stroke-linejoin="round"/>
        </symbol>
        <symbol id="star" viewBox="0 0 24 24" stroke="none" fill="currentColor">
            <path d="M11.0824 2.60013C11.4292 1.79996 12.5708 1.79996 12.9176 2.60013L15.0069 7.42138C15.1515 7.75514 15.4681 7.98371 15.8322 8.01727L21.0919 8.50204C21.9648 8.5825 22.3176 9.66151 21.659 10.2365L17.6905 13.701C17.4158 13.9408 17.2949 14.3106 17.3753 14.6651L18.5367 19.786C18.7294 20.6359 17.8058 21.3028 17.052 20.858L12.5101 18.1779C12.1957 17.9923 11.8043 17.9923 11.4899 18.1779L6.94802 20.858C6.1942 21.3028 5.27058 20.6359 5.46333 19.786L6.62472 14.6651C6.70512 14.3106 6.5842 13.9408 6.30948 13.701L2.34104 10.2365C1.6824 9.66151 2.03519 8.5825 2.90813 8.50204L8.16782 8.01727C8.53193 7.98371 8.8485 7.75514 8.99314 7.42138L11.0824 2.60013Z"/>
        </symbol>
        <symbol id="stat-up" viewBox="0 0 54 55" stroke="currentColor" fill="none">
            <path d="M36.0037 27.7084V20.6022H28.8975" stroke-width="2" stroke-linecap="round"
                  stroke-linejoin="round"/>
            <path d="M42.7559 11.5985L45.0068 9.34753" stroke-width="2" stroke-linecap="round"
                  stroke-linejoin="round"/>
            <path d="M45.0068 18.3513H47.2578" stroke-width="2" stroke-linecap="round"
                  stroke-linejoin="round"/>
            <path d="M36.0034 9.3475V7.09656" stroke-width="2" stroke-linecap="round"
                  stroke-linejoin="round"/>
            <path d="M47.2581 27.355V36.3587C47.2581 42.5745 42.2192 47.6134 36.0034 47.6134H17.9959C11.7801 47.6134 6.74121 42.5745 6.74121 36.3587V18.3512C6.74121 12.1355 11.7801 7.09656 17.9959 7.09656H26.9996"
                  stroke-width="2" stroke-linecap="round" stroke-linejoin="round"/>
            <path d="M6.74121 27.355V27.355C14.5941 32.5903 25.0506 31.5549 31.7244 24.8812L36.0034 20.6022"
                  stroke-width="2" stroke-linecap="round" stroke-linejoin="round"/>
        </symbol>
        <symbol id="graph" viewBox="0 0 54 55" stroke="currentColor" fill="none">
            <path d="M16.8701 34.1078H37.1286" stroke-width="2" stroke-linecap="round" stroke-linejoin="round"/>
            <path d="M26.9995 34.1078V18.3512" stroke-width="2" stroke-linecap="round" stroke-linejoin="round"/>
            <path d="M33.7524 34.1078V22.8531" stroke-width="2" stroke-linecap="round" stroke-linejoin="round"/>
            <path d="M20.2466 34.1078V25.104" stroke-width="2" stroke-linecap="round" stroke-linejoin="round"/>
            <circle cx="26.9996" cy="27.355" r="20.2584" stroke-width="2" stroke-linecap="round"
                    stroke-linejoin="round"/>
        </symbol>
        <symbol id="stat-story" viewBox="0 0 54 55" stroke="currentColor" fill="none">
            <path d="M36 20.605V16.105H31.5" stroke-width="2" stroke-linecap="round" stroke-linejoin="round"/>
            <path fill-rule="evenodd" clip-rule="evenodd"
                  d="M13.0005 7.10498H40.9995C43.209 7.10498 45 9.11873 45 11.605V43.105C45 45.5912 43.209 47.605 40.9995 47.605H13.0005C10.791 47.605 9 45.5912 9 43.105V11.605C9 9.11873 10.791 7.10498 13.0005 7.10498Z"
                  stroke-width="2" stroke-linecap="round" stroke-linejoin="round"/>
            <path d="M18 30.73H36" stroke-width="2" stroke-linecap="round" stroke-linejoin="round"/>
            <path d="M18 38.605H27" stroke-width="2" stroke-linecap="round" stroke-linejoin="round"/>
            <path d="M36 16.105L29.25 22.855L23.1435 18.355L18 22.855" stroke-width="2" stroke-linecap="round"
                  stroke-linejoin="round"/>
        </symbol>
        <symbol id="demography" viewBox="0 0 54 55" stroke="currentColor" fill="none">
            <path fill-rule="evenodd" clip-rule="evenodd"
                  d="M33.7496 22.855C33.7496 22.855 41.6291 16.3862 41.6291 10.48C41.6291 6.13073 38.1011 2.60498 33.7496 2.60498C29.3981 2.60498 25.8701 6.13073 25.8701 10.48C25.8701 16.3862 33.7496 22.855 33.7496 22.855Z"
                  stroke-width="2" stroke-linecap="round" stroke-linejoin="round"/>
            <path d="M33.7522 10.1425C34.0627 10.1425 34.3147 10.3945 34.3125 10.705C34.3125 11.0155 34.0605 11.2675 33.75 11.2675C33.4395 11.2675 33.1875 11.0155 33.1875 10.705C33.1875 10.3945 33.4395 10.1425 33.7522 10.1425"
                  stroke-width="2" stroke-linecap="round" stroke-linejoin="round"/>
            <path d="M25.9448 9.41125C15.255 9.96475 6.75 18.778 6.75 29.605C6.75 40.7898 15.8152 49.855 27 49.855C38.1848 49.855 47.25 40.7898 47.25 29.605C47.25 23.638 44.658 18.292 40.5517 14.5953"
                  stroke-width="2" stroke-linecap="round" stroke-linejoin="round"/>
            <path d="M17.9996 47.758V47.5983C17.9996 43.0983 26.9996 43.6293 26.9996 38.5983C26.9996 34.0983 20.2496 34.0983 20.2496 27.3483C20.2496 20.9853 15.7496 20.5983 8.99955 20.5983H8.8623"
                  stroke-width="2" stroke-linecap="round" stroke-linejoin="round"/>
            <path d="M40.4325 44.725C40.0927 44.5945 39.7552 44.4573 39.4335 44.2683C36.2025 42.3783 35.118 38.2293 37.0057 34.9983C38.8957 31.7673 43.0447 30.6828 46.2757 32.5705C46.5142 32.71 46.7145 32.8855 46.9305 33.0475"
                  stroke-width="2" stroke-linecap="round" stroke-linejoin="round"/>
        </symbol>
        <symbol id="man-speak" viewBox="0 0 54 55" stroke="currentColor" fill="none">
            <path d="M6.74121 43.1115C6.74245 38.24 10.6912 34.2913 15.5626 34.29H24.3841C29.2555 34.2913 33.2042 38.24 33.2055 43.1115"
                  stroke-width="2" stroke-linecap="round" stroke-linejoin="round"/>
            <path d="M44.3066 11.5984C48.2412 15.533 48.2412 21.9122 44.3066 25.8468" stroke-width="2"
                  stroke-linecap="round" stroke-linejoin="round"/>
            <path d="M37.6153 15.1616C39.5826 17.1289 39.5826 20.3185 37.6153 22.2858" stroke-width="2"
                  stroke-linecap="round" stroke-linejoin="round"/>
            <ellipse cx="19.9718" cy="19.4767" rx="7.31555" ry="7.31555" stroke-width="2" stroke-linecap="round"
                     stroke-linejoin="round"/>
        </symbol>
        <symbol id="updates" viewBox="0 0 54 55" stroke="currentColor" fill="none">
            <path fill-rule="evenodd" clip-rule="evenodd"
                  d="M29.5312 33.682C29.5312 31.5872 31.23 29.8862 33.327 29.8862C35.424 29.8862 37.1227 31.585 37.1227 33.682C37.1227 35.779 35.424 37.4777 33.327 37.4777C31.2367 37.4867 29.538 35.8015 29.5312 33.7112C29.5312 33.7022 29.5312 33.6932 29.5312 33.682Z"
                  stroke-width="2" stroke-linecap="round" stroke-linejoin="round"/>
            <path d="M30.6455 31L23.3555 23.71" stroke-width="2" stroke-linecap="round" stroke-linejoin="round"/>
            <path d="M36.0225 31L43.29 23.71" stroke-width="2" stroke-linecap="round" stroke-linejoin="round"/>
            <path fill-rule="evenodd" clip-rule="evenodd"
                  d="M24.4688 21.028C24.4688 23.1228 22.77 24.8238 20.673 24.8238C18.576 24.8238 16.875 23.125 16.875 21.028C16.875 18.9288 18.5737 17.23 20.673 17.23C22.7632 17.221 24.462 18.9063 24.4688 20.9965C24.4688 21.0078 24.4688 21.0168 24.4688 21.028Z"
                  stroke-width="2" stroke-linecap="round" stroke-linejoin="round"/>
            <path d="M10.71 31L17.9775 23.71" stroke-width="2" stroke-linecap="round" stroke-linejoin="round"/>
            <path fill-rule="evenodd" clip-rule="evenodd"
                  d="M49.7812 21.028C49.7812 23.1227 48.0825 24.8237 45.9855 24.8237C43.8885 24.8237 42.1875 23.125 42.1875 21.028C42.1875 18.931 43.8863 17.2322 45.9833 17.2322C48.0735 17.2232 49.7723 18.9085 49.779 20.9987C49.7813 21.0077 49.7812 21.0167 49.7812 21.028V21.028Z"
                  stroke-width="2" stroke-linecap="round" stroke-linejoin="round"/>
            <path fill-rule="evenodd" clip-rule="evenodd"
                  d="M4.21875 33.682C4.21875 31.5872 5.9175 29.8862 8.0145 29.8862C10.1115 29.8862 11.8125 31.585 11.8125 33.682C11.8125 35.779 10.1137 37.4777 8.01675 37.4777C5.9265 37.4867 4.22775 35.8015 4.221 33.7112C4.21875 33.7022 4.21875 33.6932 4.21875 33.682Z"
                  stroke-width="2" stroke-linecap="round" stroke-linejoin="round"/>
            <path d="M6.95025 30.0572C6.83325 29.1707 6.75 28.273 6.75 27.355C6.75 16.1702 15.8152 7.10498 27 7.10498C34.5938 7.10498 41.2043 11.2922 44.6693 17.4775"
                  stroke-width="2" stroke-linecap="round" stroke-linejoin="round"/>
            <path d="M9.33105 37.2326C12.7961 43.4178 19.4066 47.6051 27.0003 47.6051C38.1851 47.6051 47.2503 38.5398 47.2503 27.3551C47.2503 26.4371 47.1671 25.5393 47.0501 24.6528"
                  stroke-width="2" stroke-linecap="round" stroke-linejoin="round"/>
        </symbol>
        <symbol id="raports" viewBox="0 0 54 55" stroke="currentColor" fill="none">
            <path d="M31.5 22.855V28.48C31.5 30.343 33.012 31.855 34.875 31.855V31.855C36.738 31.855 38.25 30.343 38.25 28.48V12.73C38.25 9.62273 35.7323 7.10498 32.625 7.10498V7.10498C29.5177 7.10498 27 9.62273 27 12.73V13.855"
                  stroke-width="2" stroke-linecap="round" stroke-linejoin="round"/>
            <path fill-rule="evenodd" clip-rule="evenodd"
                  d="M42.7498 39.3542H17.9998C15.9275 39.3542 14.249 37.6757 14.249 35.6035V18.355C14.249 15.8687 16.2628 13.855 18.749 13.855H42.7498C45.236 13.855 47.2498 15.8687 47.2498 18.355V34.8542C47.2498 37.3405 45.236 39.3542 42.7498 39.3542Z"
                  stroke-width="2" stroke-linecap="round" stroke-linejoin="round"/>
            <path d="M40.5 39.3542V43.105C40.5 45.5912 38.4863 47.605 36 47.605H11.25C8.76375 47.605 6.75 45.5912 6.75 43.105V22.855C6.75 20.3687 8.76375 18.355 11.25 18.355H14.2492"
                  stroke-width="2" stroke-linecap="round" stroke-linejoin="round"/>
        </symbol>
        <symbol id="export-pdf" viewBox="0 0 54 55" stroke="currentColor" fill="none">
            <path d="M45.0076 18.3511H36.0039C34.7607 18.3511 33.7529 17.3433 33.7529 16.1002V7.09644" stroke-width="2"
                  stroke-linecap="round" stroke-linejoin="round"/>
            <path d="M13.4941 18.3511V11.5983C13.4941 9.11199 15.5097 7.09644 17.996 7.09644H34.1397C35.3336 7.09644 36.4785 7.57116 37.3226 8.41548L43.6882 14.7811C44.5325 15.6252 45.0073 16.7701 45.0073 17.964V43.1114C45.0073 45.5978 42.9917 47.6133 40.5054 47.6133H17.996C15.5097 47.6133 13.4941 45.5978 13.4941 43.1114V40.8605"
                  stroke-width="2" stroke-linecap="round" stroke-linejoin="round"/>
            <path d="M14.3741 25.1038C14.5545 25.2823 14.6093 25.552 14.5128 25.7866C14.4164 26.0213 14.1878 26.1745 13.9341 26.1745C13.6803 26.1745 13.4517 26.0213 13.3553 25.7866C13.2588 25.552 13.3136 25.2823 13.494 25.1038C13.7388 24.8609 14.1338 24.8609 14.3786 25.1038"
                  stroke-width="2" stroke-linecap="round" stroke-linejoin="round"/>
            <path d="M29.2509 27.2424C25.7914 26.7128 22.2736 27.7268 19.6266 30.0164C16.9796 32.306 15.4697 35.6411 15.4954 39.1408C15.499 39.7167 15.5449 40.2915 15.6327 40.8606"
                  stroke-width="2" stroke-linecap="round" stroke-linejoin="round"/>
            <rect x="6.74121" y="18.3511" width="22.5094" height="22.5094" rx="3" stroke-width="2"
                  stroke-linecap="round" stroke-linejoin="round"/>
        </symbol>
        <symbol id="crm" viewBox="0 0 54 54" stroke="currentColor" fill="none">
            <path d="M14.103 38.25H10.0508C7.56453 38.25 5.55078 36.2363 5.55078 33.75V10.6493C5.55078 8.16304 7.56453 6.14929 10.0508 6.14929H43.9515C46.4378 6.14929 48.4515 8.16304 48.4515 10.6493V33.75C48.4515 36.2363 46.4378 38.25 43.9515 38.25H41.2853"
                  stroke-width="2" stroke-linecap="round" stroke-linejoin="round"/>
            <path fill-rule="evenodd" clip-rule="evenodd"
                  d="M28.3475 29.25V19.125C28.3475 17.262 26.8355 15.75 24.9725 15.75V15.75C23.1095 15.75 21.5975 17.262 21.5975 19.125V24.75V36L19.5703 33.9727C18.2045 32.607 15.9905 32.607 14.6248 33.9727V33.9727C13.4458 35.1517 13.2635 36.999 14.1883 38.385L20.261 47.4953C21.0958 48.7485 22.502 49.5 24.005 49.5H35.903C38.1733 49.5 40.0858 47.8103 40.3693 45.558L41.5888 35.7998C41.888 33.399 40.2365 31.1895 37.8493 30.8003L28.3475 29.25V29.25Z"
                  stroke-width="2" stroke-linecap="round" stroke-linejoin="round"/>
        </symbol>
        <symbol id="user" viewBox="0 0 54 54" stroke="currentColor" fill="none">
            <path d="M26.9999 16.245C29.4862 16.245 31.5018 18.2606 31.5018 20.7469C31.5018 23.2332 29.4862 25.2487 26.9999 25.2487C24.5136 25.2487 22.498 23.2332 22.498 20.7469C22.498 18.2606 24.5136 16.245 26.9999 16.245"
                  stroke-width="2" stroke-linecap="round" stroke-linejoin="round"/>
            <path d="M36.0036 33.7528C35.7419 33.0942 35.3357 32.5027 34.8151 32.0218V32.0218C33.9379 31.2065 32.7849 30.753 31.5873 30.7523H22.4147C21.2164 30.7531 20.0627 31.2065 19.1846 32.0218V32.0218C18.6652 32.5037 18.2592 33.095 17.9961 33.7528"
                  stroke-width="2" stroke-linecap="round" stroke-linejoin="round"/>
            <path fill-rule="evenodd" clip-rule="evenodd"
                  d="M31.5015 42.7566H40.5053C44.2347 42.7566 47.2581 39.7332 47.2581 36.0038V13.4944C47.2581 9.76491 44.2347 6.74158 40.5053 6.74158H13.494C9.76455 6.74158 6.74121 9.76491 6.74121 13.4944V36.0038C6.74121 39.7332 9.76455 42.7566 13.494 42.7566H22.4978L26.9996 47.2585L31.5015 42.7566Z"
                  stroke-width="2" stroke-linecap="round" stroke-linejoin="round"/>
        </symbol>
        <symbol id="fast-answer" viewBox="0 0 54 54" stroke="currentColor" fill="none">
            <path d="M22.5 11.25H11.75C8.98858 11.25 6.75 13.4886 6.75 16.25V47.25L16.875 41.175H37.75C40.5114 41.175 42.75 38.9364 42.75 36.175V24.75"
                  stroke-width="2" stroke-linecap="round" stroke-linejoin="round"/>
            <path d="M47.25 11.25H31.5" stroke-width="2" stroke-linecap="round" stroke-linejoin="round"/>
            <path d="M42.748 6.75L47.2503 11.25L42.748 15.75" stroke-width="2" stroke-linecap="round"
                  stroke-linejoin="round"/>
        </symbol>
        <symbol id="important" viewBox="0 0 54 54" stroke="currentColor" fill="none">
            <path d="M45.9319 8.06843C47.6892 9.82568 47.6892 12.6742 45.9319 14.4314C44.1747 16.1887 41.3262 16.1887 39.5689 14.4314C37.8117 12.6742 37.8117 9.82568 39.5689 8.06843C41.3262 6.31118 44.1769 6.31118 45.9319 8.06843"
                  stroke-width="2" stroke-linecap="round" stroke-linejoin="round"/>
            <path d="M31.5 7.39572C30.051 7.08972 28.5503 6.90747 27 6.90747C15.858 6.90747 6.75 15.102 6.75 25.3147C6.75 31.3515 9.945 36.666 14.8477 40.0185C14.8455 41.94 14.85 44.532 14.85 47.25L22.7925 43.3125L22.7948 43.3215C24.1538 43.5825 25.5577 43.7242 27 43.7242C38.142 43.7242 47.25 35.5275 47.25 25.3147C47.25 24.3247 47.142 23.3572 46.971 22.41"
                  stroke-width="2" stroke-linecap="round" stroke-linejoin="round"/>
        </symbol>
        <symbol id="clock" viewBox="0 0 24 24" stroke="currentColor" fill="none">
            <path d="M12.0527 7.77124V12.2271L15.5552 14.362" stroke-width="1.5" stroke-linecap="round"
                  stroke-linejoin="round"/>
            <path d="M18.3639 5.63592C21.8787 9.15064 21.8787 14.8491 18.3639 18.3638C14.8492 21.8785 9.15074 21.8785 5.63604 18.3638C2.12132 14.8491 2.12132 9.15062 5.63604 5.63592C9.15076 2.1212 14.8492 2.1212 18.3639 5.63592"
                  stroke-width="1.5" stroke-linecap="round" stroke-linejoin="round"/>
        </symbol>
        <symbol id="support" viewBox="0 0 72 72" stroke="currentColor" fill="none">
            <path d="M58.6797 21.3569C64.4397 30.2669 64.4367 41.7389 58.6827 50.6459" stroke-width="2"
                  stroke-linecap="round" stroke-linejoin="round"/>
            <path d="M46.6429 25.3573C52.5207 31.2351 52.5207 40.7649 46.6429 46.6426C40.7651 52.5204 31.2353 52.5204 25.3576 46.6426C19.4798 40.7649 19.4798 31.2351 25.3576 25.3573C31.2353 19.4795 40.7651 19.4795 46.6429 25.3573"
                  stroke-width="2" stroke-linecap="round" stroke-linejoin="round"/>
            <path d="M42.9609 22.6531L50.7129 13.2361C51.8409 11.8651 53.9049 11.7661 55.1619 13.0201L58.9809 16.8391C60.2379 18.0961 60.1359 20.1601 58.7649 21.2881L49.3479 29.0401"
                  stroke-width="2" stroke-linecap="round" stroke-linejoin="round"/>
            <path d="M29.0359 49.347L21.2839 58.764C20.1559 60.135 18.0919 60.234 16.8349 58.98L13.0159 55.161C11.7589 53.904 11.8609 51.84 13.2319 50.712L22.6489 42.96"
                  stroke-width="2" stroke-linecap="round" stroke-linejoin="round"/>
            <path d="M22.6526 29.0371L13.2326 21.2851C11.8616 20.1571 11.7626 18.0931 13.0166 16.8361L16.8356 13.0171C18.0926 11.7601 20.1566 11.8621 21.2846 13.2331L29.0366 22.6501"
                  stroke-width="2" stroke-linecap="round" stroke-linejoin="round"/>
            <path d="M49.346 42.9629L58.763 50.7149C60.134 51.8429 60.233 53.9069 58.979 55.1639L55.16 58.9829C53.903 60.2399 51.839 60.1379 50.711 58.7669L42.959 49.3499"
                  stroke-width="2" stroke-linecap="round" stroke-linejoin="round"/>
            <path d="M50.6445 58.6829C41.7375 64.4369 30.2625 64.4399 21.3555 58.6799" stroke-width="2"
                  stroke-linecap="round" stroke-linejoin="round"/>
            <path d="M13.3162 21.354C7.56225 30.261 7.55925 41.733 13.3192 50.643" stroke-width="2"
                  stroke-linecap="round" stroke-linejoin="round"/>
            <path d="M50.6425 13.32C41.7325 7.55998 30.2605 7.56298 21.3535 13.317" stroke-width="2"
                  stroke-linecap="round" stroke-linejoin="round"/>
        </symbol>
        <symbol id="like" viewBox="0 0 24 24" stroke="currentColor" fill="none">
            <path d="M7 21H4C3.46957 21 2.96086 20.7893 2.58579 20.4142C2.21071 20.0391 2 19.5304 2 19V12C2 11.4696 2.21071 10.9609 2.58579 10.5858C2.96086 10.2107 3.46957 10 4 10H7M14 8V4C14 3.20435 13.6839 2.44129 13.1213 1.87868C12.5587 1.31607 11.7956 1 11 1L7 10V21H18.28C18.7623 21.0055 19.2304 20.8364 19.5979 20.524C19.9654 20.2116 20.2077 19.7769 20.28 19.3L21.66 10.3C21.7035 10.0134 21.6842 9.72068 21.6033 9.44225C21.5225 9.16382 21.3821 8.90629 21.1919 8.68751C21.0016 8.46873 20.7661 8.29393 20.5016 8.17522C20.2371 8.0565 19.9499 7.99672 19.66 8H14Z"
                  stroke-width="1.5" stroke-linecap="round" stroke-linejoin="round"/>
        </symbol>
        <symbol id="minus" viewBox="0 0 24 24" stroke="currentColor" fill="none">
            <path d="M7 12H17" stroke-width="1.5" stroke-linecap="round" stroke-linejoin="round"/>
        </symbol>
        <symbol id="plus" viewBox="0 0 24 24" stroke="currentColor" fill="none">
            <path d="M12 7V17" stroke-width="1.5" stroke-linecap="round" stroke-linejoin="round"/>
            <path d="M7 12H17" stroke-width="1.5" stroke-linecap="round" stroke-linejoin="round"/>
        </symbol>
        <symbol id="check" viewBox="0 0 34 34" stroke="currentColor" fill="none">
            <path d="M26.9167 11.3333L15.5833 22.6666L8.5 15.9999" stroke-width="2" stroke-linecap="round"
                  stroke-linejoin="round"/>
        </symbol>
        <symbol id="check2" viewBox="0 0 20 20" stroke="currentColor" fill="none">
            <path d="M16.5335 5.09985L7.55013 14.0832L3.4668 9.99985" stroke-width="2" stroke-linecap="round"
                  stroke-linejoin="round"/>
        </symbol>
        <symbol id="snapchat" viewBox="0 0 24 24" stroke="currentColor" fill="none">
            <path fill-rule="evenodd" clip-rule="evenodd"
                  d="M16.882 7.84202C16.882 5.14602 14.696 2.96002 12 2.96002C9.304 2.96002 7.118 5.14602 7.118 7.84202C7.118 12.115 6.905 14.251 3 15.96C5 16.842 5 16.842 6 18.96C9 18.96 10 20.96 12 20.96C14 20.96 15 18.96 18 18.96C19 16.842 19 16.842 21 15.96C17.094 14.251 16.882 12.115 16.882 7.84202V7.84202Z"
                  stroke-width="1.5" stroke-linecap="round" stroke-linejoin="round"/>
            <path d="M3 15.961C7 13.843 7 11.843 4 8.84302" stroke-width="1.5" stroke-linecap="round"
                  stroke-linejoin="round"/>
            <path d="M21 15.961C17 13.843 17 11.843 20 8.84302" stroke-width="1.5"
                  stroke-linecap="round" stroke-linejoin="round"/>
        </symbol>
        <symbol id="tumblr" viewBox="0 0 24 24" stroke="currentColor" fill="none">
            <path d="M13.3263 15.9825C13.3263 17.5361 14.0907 18.0613 15.2799 18.0613H17V22H13.751C10.8417 22 8.65444 20.4464 8.65444 16.7484V10.8184H6V7.60175C8.90927 6.814 10.1409 4.23195 10.2896 2H13.3263V7.09847H16.8513V10.8184H13.3263V15.9825Z"
                  stroke-width="1.5" stroke-linecap="round" stroke-linejoin="round"/>
        </symbol>
        <symbol id="mastodon" viewBox="0 0 24 24" stroke="currentColor" fill="none">
            <path d="M8.49999 3.00001C5.69999 3.40001 4.50004 5 3.99997 6.50001C3.65422 7.60641 3.47335 9.59547 3.5 11.5C3.53758 14.1858 4.03736 16.9522 5.50006 19C7.49999 21.8 12.5 21.1667 14.5 20.5C8.49997 20.5 7.33332 17.5 7.49999 16C9.09206 16.4549 11.093 17 13 17C16.5 17 18.0001 16.5 19 15.5C20.4577 14.0422 20.4999 11 20.5 8.5C20.5 5.5 19 4.00001 17.5 3.50001C16 3.00001 12 2.50001 8.49999 3.00001Z"
                  stroke-width="1.5" stroke-linecap="round" stroke-linejoin="round"/>
            <path d="M8.5 12.5V9.25C8.5 8.2835 9.2835 7.5 10.25 7.5V7.5C11.2165 7.5 12 8.2835 12 9.25V10.5"
                  stroke-width="1.5" stroke-linecap="round" stroke-linejoin="round"/>
            <path d="M15.5 12.5L15.5 9.25C15.5 8.2835 14.7165 7.5 13.75 7.5V7.5C12.7835 7.5 12 8.2835 12 9.25V10.5"
                  stroke-width="1.5" stroke-linecap="round" stroke-linejoin="round"/>
        </symbol>
        <symbol id="viber" viewBox="0 0 24 24" stroke="currentColor" fill="none">
            <path d="M16.9319 3.45097C13.6649 2.84968 10.2723 2.84968 7.00523 3.45097C4.8 3.85685 3.73822 5.43525 3.42408 6.7581C2.85864 9.34368 2.85864 11.9894 3.42408 14.575C3.8607 16.5714 5.62304 17.5814 7.00523 17.8821C7.06806 17.8821 7.13089 17.9422 7.13089 18.0023V21.7905C7.13089 21.9709 7.3822 22.0912 7.50785 21.9108L9.39267 20.0467C9.39267 20.0467 10.9005 18.5435 11.1518 18.303C11.1518 18.303 11.2147 18.2429 11.2775 18.2429C13.1623 18.303 15.1099 18.1226 16.9948 17.822C19.2 17.4762 20.2618 15.8377 20.5759 14.5148C21.1414 11.9292 21.1414 9.28355 20.5759 6.69797C20.199 5.43525 18.9916 3.83005 16.9319 3.45097Z"
                  stroke-width="1.5"/>
            <path d="M15.9395 14.4923C15.6487 15.0722 15 15.5 14.7182 15.826C14.3947 16.2003 14.0878 15.9838 13.6132 15.826C11.7521 15.0722 10.0074 14.0284 8.61161 12.5206C7.85556 11.6508 7.21583 10.6649 6.69241 9.62113C6.45978 9.09923 6.22715 8.63531 6.05267 8.1134C5.8782 7.64948 6.16899 7.18557 6.45978 6.83763C6.75056 6.48969 7.09951 6.25773 7.50662 6.08376C7.79741 5.90979 8.08819 6.02577 8.32083 6.25773C8.78609 6.83763 9.25135 7.41753 9.60029 8.05541C9.83292 8.46134 9.77477 8.92526 9.36766 9.21521C9.25135 9.2732 9.19319 9.33119 9.07687 9.44717C9.01872 9.50515 8.9024 9.56314 8.84424 9.67912C8.72793 9.85309 8.72793 10.0271 8.78608 10.201C9.25135 11.5348 10.1237 12.5786 11.4613 13.1585C11.694 13.2745 11.8684 13.3325 12.1592 13.3325C12.5663 13.2745 12.7408 12.8106 13.0316 12.5786C13.3224 12.3466 13.6713 12.3467 14.0203 12.5206C14.3111 12.6946 14.6019 12.9265 14.9508 13.1585C15.2416 13.3905 15.5324 13.5644 15.8232 13.7964C15.9976 13.9124 16.0558 14.2023 15.9395 14.4923Z"
                  fill="currentColor"/>
            <path d="M12 8C12.6667 8 14 8.4 14 10" stroke-linecap="round"/>
            <path d="M11 6C12.6667 6 16 7 16 11" stroke-linecap="round"/>
        </symbol>
        <symbol id="videos" viewBox="0 0 24 24" stroke="currentColor" fill="none">
            <path fill-rule="evenodd" clip-rule="evenodd"
                  d="M19.1191 6V18C19.1191 19.105 18.2241 20 17.1191 20H6.8811C5.7761 20 4.8811 19.105 4.8811 18V6C4.8811 4.895 5.7761 4 6.8811 4H17.1201C18.2241 4 19.1191 4.895 19.1191 6Z"
                  stroke-width="1.5996" stroke-linecap="round" stroke-linejoin="round"/>
            <path d="M19.1191 6H20.7211C21.5491 6 22.2211 6.672 22.2211 7.5V16.5C22.2211 17.328 21.5491 18 20.7211 18H19.1191"
                  stroke-width="1.4685" stroke-linecap="round" stroke-linejoin="round"/>
            <path d="M4.88108 18H3.27808C2.45008 18 1.77808 17.328 1.77808 16.5V7.5C1.77808 6.672 2.45008 6 3.27808 6H4.88008"
                  stroke-width="1.4685" stroke-linecap="round" stroke-linejoin="round"/>
            <path fill-rule="evenodd" clip-rule="evenodd"
                  d="M11.4041 9.83618L14.1751 11.4752C14.5741 11.7112 14.5741 12.2892 14.1751 12.5252L11.4041 14.1642C10.9971 14.4052 10.4841 14.1112 10.4841 13.6392V10.3612C10.4841 9.88818 10.9981 9.59518 11.4041 9.83618V9.83618Z"
                  stroke-width="1.5" stroke-linecap="round" stroke-linejoin="round"/>
        </symbol>
        <symbol id="play" viewBox="0 0 50 50" fill="currentColor">
            <path d="M42.8719 22.1974C44.9324 23.3915 44.9324 26.3768 42.8719 27.5709L17.373 42.348C15.3125 43.5421 12.7368 42.0495 12.7368 39.6613L12.7368 10.107C12.7368 7.71879 15.3125 6.22616 17.373 7.42027L42.8719 22.1974Z"/>
        </symbol>
        <symbol id="heart-bordered" viewBox="0 0 24 24" stroke="currentColor">
            <path fill-rule="evenodd" clip-rule="evenodd"
                  d="M12.0001 6.70855C12.914 5.61074 14.2733 4.98219 15.7016 4.99683C18.873 4.99683 21.0038 7.97807 21.0038 10.7542C21.0038 16.5576 13.7788 21.0035 12.0001 21.0035C10.2213 21.0035 2.99634 16.5576 2.99634 10.7542C2.99634 7.97807 5.12723 4.99683 8.29855 4.99683C9.72692 4.98219 11.0861 5.61074 12.0001 6.70855Z"
                  stroke-width="1.5" stroke-linecap="round" stroke-linejoin="round"/>
        </symbol>
        <symbol id="heart-filled" viewBox="0 0 24 24" stroke="currentColor" fill="currentColor">
            <path fill-rule="evenodd" clip-rule="evenodd"
                  d="M12.0001 6.70855C12.914 5.61074 14.2733 4.98219 15.7016 4.99683C18.873 4.99683 21.0038 7.97807 21.0038 10.7542C21.0038 16.5576 13.7788 21.0035 12.0001 21.0035C10.2213 21.0035 2.99634 16.5576 2.99634 10.7542C2.99634 7.97807 5.12723 4.99683 8.29855 4.99683C9.72692 4.98219 11.0861 5.61074 12.0001 6.70855Z"
                  stroke-width="1.5" stroke-linecap="round" stroke-linejoin="round"/>
        </symbol>
        <symbol id="share-bordered" viewBox="0 0 24 24" stroke="currentColor">
            <path fill-rule="evenodd" clip-rule="evenodd"
                  d="M12.9695 13.097V16.165C12.9695 17.032 13.9985 17.488 14.6415 16.906L20.6715 11.44C21.1195 11.034 21.1075 10.327 20.6465 9.93697L14.6165 4.81897C13.9665 4.26697 12.9695 4.72897 12.9695 5.58097V8.01797C7.50648 8.01797 2.96948 11.39 2.96948 17V18.129C4.81648 14.445 8.65648 13.097 12.9695 13.097Z"
                  stroke-width="1.5" stroke-linecap="round" stroke-linejoin="round"/>
        </symbol>
        <symbol id="copy" viewBox="0 0 28 28" stroke="currentColor" fill="none">
            <path d="M5.82991 9.3313H4.66276C4.01816 9.3313 3.49561 9.85385 3.49561 10.4985V23.3371C3.49561 23.9817 4.01816 24.5043 4.66276 24.5043H17.5014C18.146 24.5043 18.6686 23.9817 18.6686 23.3371V22.17"
                  stroke-width="1.5" stroke-linecap="round" stroke-linejoin="round"/>
            <path d="M9.3313 9.3313H17.5014C18.146 9.3313 18.6685 9.85385 18.6685 10.4985V18.6685"
                  stroke-width="1.5" stroke-linecap="round" stroke-linejoin="round"/>
            <rect x="9.3313" y="3.49561" width="15.173" height="15.173" rx="1" stroke-width="1.5"
                  stroke-linecap="round" stroke-linejoin="round"/>
        </symbol>
        <symbol id="paragraph" viewBox="0 0 28 28" fill="currentColor">
            <path d="M20.216 14.48C20.216 15.152 20.0573 15.7867 19.74 16.384C19.4413 16.9627 19.0027 17.4667 18.424 17.896C19.264 18.6053 19.684 19.5947 19.684 20.864C19.684 21.8347 19.4227 22.6933 18.9 23.44C18.396 24.1867 17.6493 24.7747 16.66 25.204C15.6893 25.6333 14.5413 25.848 13.216 25.848C12.0773 25.848 10.92 25.6893 9.744 25.372C8.58667 25.0733 7.672 24.6813 7 24.196L8.288 21.116C8.94133 21.5827 9.716 21.956 10.612 22.236C11.5267 22.516 12.4133 22.656 13.272 22.656C14.0747 22.656 14.7 22.5067 15.148 22.208C15.596 21.9093 15.82 21.508 15.82 21.004C15.82 20.4627 15.5587 20.0707 15.036 19.828C14.5133 19.5667 13.7013 19.324 12.6 19.1C11.4613 18.8387 10.528 18.5773 9.8 18.316C9.09067 18.036 8.47467 17.5973 7.952 17C7.448 16.4027 7.196 15.5813 7.196 14.536C7.196 13.024 7.79333 11.82 8.988 10.924C8.18533 10.2147 7.784 9.244 7.784 8.012C7.784 6.5 8.4 5.28667 9.632 4.372C10.864 3.45733 12.6093 3 14.868 3C15.7827 3 16.7813 3.12133 17.864 3.364C18.9653 3.60667 19.8333 3.93333 20.468 4.344L19.208 7.396C17.9013 6.59333 16.3707 6.192 14.616 6.192C13.608 6.192 12.8613 6.34133 12.376 6.64C11.8907 6.92 11.648 7.32133 11.648 7.844C11.648 8.32933 11.8813 8.684 12.348 8.908C12.8333 9.132 13.608 9.37467 14.672 9.636C15.792 9.89733 16.7253 10.1773 17.472 10.476C18.2187 10.756 18.8627 11.2227 19.404 11.876C19.9453 12.5107 20.216 13.3787 20.216 14.48ZM10.976 14.228C10.976 14.8067 11.2373 15.2267 11.76 15.488C12.3013 15.7493 13.1413 16.0013 14.28 16.244L15.092 16.44C15.5027 16.2533 15.8293 16.0013 16.072 15.684C16.3147 15.3667 16.436 15.0027 16.436 14.592C16.436 14.032 16.1653 13.6213 15.624 13.36C15.1013 13.0987 14.2707 12.828 13.132 12.548L12.348 12.38C11.9187 12.5667 11.5827 12.828 11.34 13.164C11.0973 13.4813 10.976 13.836 10.976 14.228Z"/>
        </symbol>
    </defs>
</svg>
