<svg width="2587" height="984" viewBox="0 0 2587 984" fill="none" xmlns="http://www.w3.org/2000/svg">
<path d="M22.5 727C70.5 727 120.039 732.724 362 897.5C501.5 992.5 657.413 1007.41 783.5 947.701C897.976 893.491 978.957 751.934 951 601.701C901.5 335.701 915.583 137.965 1139.66 77.002C1205.86 58.9887 1328.03 37.2772 1436.5 98.201C1544.97 159.125 1657 326 1853.5 367.5C2002.84 399.041 2180 324 2300 183C2420 41.9998 2515.5 7.99982 2585.5 1.49982" stroke="#CDD9E8" stroke-width="1.5" stroke-linecap="square"/>
<path d="M9 629.5C134 635.5 225 726 364 834.658C446.939 899.492 541 949.547 694 944C871.677 937.557 1036.74 835.415 997.5 646.163C943.1 383.763 968.315 184.18 1153.5 94.1632C1208.22 67.565 1315.5 48.1632 1415.5 94.1632C1515.5 140.163 1549.06 231.815 1633.5 301.663C1729 380.663 1829.15 399.328 1998 376C2074 365.5 2143 338.638 2221.5 284.5C2323 214.5 2380.5 72.5001 2563 46.0001" stroke="#52D3C1" stroke-width="16" stroke-linecap="square"/>
</svg>
