<svg width="214" height="54" viewBox="0 0 214 54" fill="none" xmlns="http://www.w3.org/2000/svg">
<path fill-rule="evenodd" clip-rule="evenodd" d="M27 54C41.9117 54 54 41.9117 54 27C54 12.0883 41.9117 0 27 0C12.0883 0 0 12.0883 0 27C0 41.9117 12.0883 54 27 54ZM14.4204 26.3865C14.4204 19.1001 20.3272 13.1933 27.6136 13.1933C34.9 13.1933 40.8067 19.1001 40.8067 26.3865C40.8067 33.6728 34.9 39.5796 27.6136 39.5796C25.4025 39.5796 23.3186 39.0358 21.4881 38.0745L14.4204 42.9546V27L14.4347 27.0072C14.4252 26.8015 14.4204 26.5945 14.4204 26.3865ZM27.6136 19.526C23.8246 19.526 20.7531 22.5975 20.7531 26.3865C20.7531 30.1754 23.8246 33.2469 27.6136 33.2469C31.4025 33.2469 34.474 30.1754 34.474 26.3865C34.474 22.5975 31.4025 19.526 27.6136 19.526Z" fill="white"/>
<path d="M67.8251 25.5644H69.4253C71.1978 25.5644 72.0841 24.7888 72.0841 23.2376C72.0841 21.6865 71.1978 20.9109 69.4253 20.9109H67.8251V25.5644ZM67.8251 35.6634H63V17H70.6808C72.7652 17 74.3571 17.5446 75.4567 18.6337C76.5728 19.7228 77.1308 21.2574 77.1308 23.2376C77.1308 25.2178 76.5728 26.7525 75.4567 27.8416C74.3571 28.9307 72.7652 29.4752 70.6808 29.4752H67.8251V35.6634Z" fill="white"/>
<path d="M83.1151 29.2525C83.1151 29.6815 83.1889 30.0776 83.3366 30.4406C83.5008 30.7871 83.7059 31.0924 83.9521 31.3564C84.2147 31.6205 84.5183 31.8267 84.863 31.9752C85.224 32.1238 85.6015 32.198 85.9954 32.198C86.3893 32.198 86.7586 32.1238 87.1032 31.9752C87.4643 31.8267 87.7679 31.6205 88.0141 31.3564C88.2767 31.0924 88.4818 30.7871 88.6295 30.4406C88.7937 30.0776 88.8757 29.6898 88.8757 29.2772C88.8757 28.8812 88.7937 28.5099 88.6295 28.1634C88.4818 27.8003 88.2767 27.4868 88.0141 27.2228C87.7679 26.9587 87.4643 26.7525 87.1032 26.604C86.7586 26.4554 86.3893 26.3812 85.9954 26.3812C85.6015 26.3812 85.224 26.4554 84.863 26.604C84.5183 26.7525 84.2147 26.9587 83.9521 27.2228C83.7059 27.4868 83.5008 27.7921 83.3366 28.1386C83.1889 28.4851 83.1151 28.8564 83.1151 29.2525ZM78.413 29.203C78.413 28.2624 78.6018 27.3878 78.9792 26.5792C79.3567 25.7541 79.8819 25.0446 80.5548 24.4505C81.2277 23.8399 82.0237 23.3614 82.9428 23.0149C83.8782 22.6683 84.8958 22.495 85.9954 22.495C87.0786 22.495 88.0797 22.6683 88.9988 23.0149C89.9343 23.3449 90.7385 23.8152 91.4114 24.4257C92.1007 25.0198 92.6341 25.7376 93.0116 26.5792C93.389 27.4043 93.5778 28.3201 93.5778 29.3267C93.5778 30.3333 93.3808 31.2574 92.9869 32.099C92.6095 32.9241 92.0843 33.6419 91.4114 34.2525C90.7385 34.8465 89.9261 35.3086 88.9742 35.6386C88.0387 35.9686 87.0212 36.1337 85.9215 36.1337C84.8384 36.1337 83.8372 35.9686 82.9181 35.6386C81.9991 35.3086 81.2031 34.8383 80.5302 34.2277C79.8737 33.6172 79.3567 32.8911 78.9792 32.0495C78.6018 31.1914 78.413 30.2426 78.413 29.203Z" fill="white"/>
<path d="M104.513 26.2327C103.692 25.8036 102.888 25.5891 102.1 25.5891C101.69 25.5891 101.354 25.6716 101.091 25.8366C100.845 26.0016 100.722 26.2244 100.722 26.505C100.722 26.6535 100.738 26.7772 100.771 26.8762C100.82 26.9587 100.911 27.0413 101.042 27.1238C101.19 27.2063 101.395 27.2805 101.657 27.3465C101.936 27.4125 102.297 27.495 102.741 27.5941C103.971 27.8416 104.89 28.2871 105.498 28.9307C106.105 29.5578 106.409 30.3663 106.409 31.3564C106.409 32.099 106.261 32.7673 105.965 33.3614C105.67 33.9554 105.26 34.4587 104.735 34.8713C104.209 35.2673 103.578 35.5726 102.839 35.7871C102.1 36.0182 101.288 36.1337 100.402 36.1337C98.6949 36.1337 97.0127 35.6469 95.3551 34.6733L96.9799 31.5049C98.2272 32.363 99.4089 32.7921 100.525 32.7921C100.935 32.7921 101.272 32.7013 101.534 32.5198C101.797 32.3383 101.928 32.1073 101.928 31.8267C101.928 31.6617 101.903 31.5297 101.854 31.4307C101.821 31.3152 101.739 31.2162 101.608 31.1337C101.477 31.0347 101.28 30.9521 101.017 30.8861C100.771 30.8036 100.443 30.7211 100.033 30.6386C98.6539 30.3581 97.6856 29.9455 97.1276 29.401C96.586 28.8399 96.3152 28.0726 96.3152 27.099C96.3152 26.3894 96.4465 25.7541 96.7091 25.1931C96.9717 24.6155 97.3491 24.1287 97.8415 23.7327C98.3339 23.3366 98.9247 23.0314 99.614 22.8168C100.32 22.6023 101.099 22.495 101.953 22.495C103.348 22.495 104.702 22.7673 106.015 23.3119L104.513 26.2327Z" fill="white"/>
<path d="M113.978 26.703V35.6634H109.522V26.703H108.045V22.9653H109.522V19.1535H113.978V22.9653H116.513V26.703H113.978Z" fill="white"/>
<path d="M118.189 22.9653H122.644V24.5248C123.859 23.3531 125.221 22.7673 126.731 22.7673C128.602 22.7673 130.03 23.5594 131.015 25.1436C132.016 23.5429 133.444 22.7426 135.298 22.7426C135.889 22.7426 136.447 22.8333 136.972 23.0149C137.497 23.1799 137.949 23.4521 138.326 23.8317C138.704 24.1947 138.999 24.6733 139.212 25.2673C139.442 25.8614 139.557 26.5792 139.557 27.4208V35.6634H135.101V29.401C135.101 28.7574 135.052 28.2294 134.953 27.8168C134.871 27.4043 134.74 27.0825 134.56 26.8515C134.395 26.6205 134.199 26.4637 133.969 26.3812C133.739 26.2987 133.493 26.2574 133.23 26.2574C131.802 26.2574 131.088 27.3053 131.088 29.401V35.6634H126.633V29.401C126.633 28.7574 126.592 28.2294 126.509 27.8168C126.427 27.3878 126.304 27.0495 126.14 26.802C125.992 26.5545 125.796 26.3894 125.549 26.3069C125.303 26.2079 125.016 26.1584 124.688 26.1584C124.409 26.1584 124.146 26.1997 123.9 26.2822C123.654 26.3647 123.432 26.5297 123.235 26.7772C123.055 27.0083 122.907 27.3383 122.792 27.7673C122.694 28.1799 122.644 28.7244 122.644 29.401V35.6634H118.189V22.9653Z" fill="white"/>
<path d="M146.761 33.9307L140.655 22.9653H145.825L149.198 29.4752L152.472 22.9653H157.592L147.45 42H142.452L146.761 33.9307Z" fill="white"/>
<path d="M169.199 29.3515C169.199 28.9554 169.125 28.5842 168.978 28.2376C168.846 27.8746 168.65 27.5611 168.387 27.297C168.124 27.033 167.812 26.8267 167.451 26.6782C167.107 26.5132 166.729 26.4307 166.319 26.4307C165.925 26.4307 165.556 26.5049 165.211 26.6535C164.867 26.802 164.563 27.0083 164.3 27.2723C164.054 27.5363 163.849 27.8498 163.685 28.2129C163.537 28.5594 163.463 28.9307 163.463 29.3267C163.463 29.7228 163.537 30.0941 163.685 30.4406C163.833 30.7871 164.038 31.0924 164.3 31.3564C164.563 31.604 164.867 31.8102 165.211 31.9752C165.572 32.1238 165.95 32.198 166.344 32.198C166.738 32.198 167.107 32.1238 167.451 31.9752C167.796 31.8267 168.092 31.6205 168.338 31.3564C168.6 31.0924 168.805 30.7871 168.953 30.4406C169.117 30.0941 169.199 29.731 169.199 29.3515ZM163.586 42H159.131V22.9653H163.586V24.3762C164.538 23.1716 165.835 22.5693 167.476 22.5693C168.379 22.5693 169.216 22.7508 169.987 23.1139C170.775 23.4604 171.456 23.9389 172.03 24.5495C172.605 25.1601 173.048 25.8779 173.36 26.703C173.688 27.5281 173.852 28.4109 173.852 29.3515C173.852 30.2921 173.688 31.1667 173.36 31.9752C173.048 32.7838 172.605 33.4934 172.03 34.104C171.472 34.7145 170.808 35.1931 170.036 35.5396C169.265 35.8861 168.428 36.0594 167.525 36.0594C165.95 36.0594 164.637 35.5149 163.586 34.4257V42Z" fill="white"/>
<path d="M180.602 29.2525C180.602 29.6815 180.676 30.0776 180.823 30.4406C180.987 30.7871 181.193 31.0924 181.439 31.3564C181.701 31.6205 182.005 31.8267 182.35 31.9752C182.711 32.1238 183.088 32.198 183.482 32.198C183.876 32.198 184.245 32.1238 184.59 31.9752C184.951 31.8267 185.255 31.6205 185.501 31.3564C185.763 31.0924 185.968 30.7871 186.116 30.4406C186.28 30.0776 186.362 29.6898 186.362 29.2772C186.362 28.8812 186.28 28.5099 186.116 28.1634C185.968 27.8003 185.763 27.4868 185.501 27.2228C185.255 26.9587 184.951 26.7525 184.59 26.604C184.245 26.4554 183.876 26.3812 183.482 26.3812C183.088 26.3812 182.711 26.4554 182.35 26.604C182.005 26.7525 181.701 26.9587 181.439 27.2228C181.193 27.4868 180.987 27.7921 180.823 28.1386C180.676 28.4851 180.602 28.8564 180.602 29.2525ZM175.9 29.203C175.9 28.2624 176.088 27.3878 176.466 26.5792C176.843 25.7541 177.369 25.0446 178.041 24.4505C178.714 23.8399 179.51 23.3614 180.429 23.0149C181.365 22.6683 182.382 22.495 183.482 22.495C184.565 22.495 185.566 22.6683 186.485 23.0149C187.421 23.3449 188.225 23.8152 188.898 24.4257C189.587 25.0198 190.121 25.7376 190.498 26.5792C190.876 27.4043 191.064 28.3201 191.064 29.3267C191.064 30.3333 190.867 31.2574 190.474 32.099C190.096 32.9241 189.571 33.6419 188.898 34.2525C188.225 34.8465 187.413 35.3086 186.461 35.6386C185.525 35.9686 184.508 36.1337 183.408 36.1337C182.325 36.1337 181.324 35.9686 180.405 35.6386C179.486 35.3086 178.69 34.8383 178.017 34.2277C177.36 33.6172 176.843 32.8911 176.466 32.0495C176.088 31.1914 175.9 30.2426 175.9 29.203Z" fill="white"/>
<path d="M202 26.2327C201.179 25.8036 200.375 25.5891 199.587 25.5891C199.177 25.5891 198.84 25.6716 198.578 25.8366C198.332 26.0016 198.208 26.2244 198.208 26.505C198.208 26.6535 198.225 26.7772 198.258 26.8762C198.307 26.9587 198.397 27.0413 198.528 27.1238C198.676 27.2063 198.881 27.2805 199.144 27.3465C199.423 27.4125 199.784 27.495 200.227 27.5941C201.458 27.8416 202.377 28.2871 202.984 28.9307C203.592 29.5578 203.895 30.3663 203.895 31.3564C203.895 32.099 203.748 32.7673 203.452 33.3614C203.157 33.9554 202.746 34.4587 202.221 34.8713C201.696 35.2673 201.064 35.5726 200.326 35.7871C199.587 36.0182 198.775 36.1337 197.888 36.1337C196.182 36.1337 194.499 35.6469 192.842 34.6733L194.467 31.5049C195.714 32.363 196.895 32.7921 198.012 32.7921C198.422 32.7921 198.758 32.7013 199.021 32.5198C199.283 32.3383 199.415 32.1073 199.415 31.8267C199.415 31.6617 199.39 31.5297 199.341 31.4307C199.308 31.3152 199.226 31.2162 199.095 31.1337C198.963 31.0347 198.766 30.9521 198.504 30.8861C198.258 30.8036 197.929 30.7211 197.519 30.6386C196.141 30.3581 195.172 29.9455 194.614 29.401C194.073 28.8399 193.802 28.0726 193.802 27.099C193.802 26.3894 193.933 25.7541 194.196 25.1931C194.458 24.6155 194.836 24.1287 195.328 23.7327C195.82 23.3366 196.411 23.0314 197.101 22.8168C197.806 22.6023 198.586 22.495 199.439 22.495C200.834 22.495 202.188 22.7673 203.501 23.3119L202 26.2327Z" fill="white"/>
<path d="M211.464 26.703V35.6634H207.008V26.703H205.531V22.9653H207.008V19.1535H211.464V22.9653H214V26.703H211.464Z" fill="white"/>
</svg>
