<svg width="142" height="142" viewBox="0 0 142 142" fill="none" xmlns="http://www.w3.org/2000/svg">
<g clip-path="url(#clip0_518_3504)">
<circle cx="71" cy="71" r="71" fill="url(#paint0_linear_518_3504)"/>
<path d="M91.6582 44.5382C88.9157 44.5382 86.6926 46.7556 86.6926 49.4925C86.6926 52.2269 88.9157 54.4469 91.6582 54.4469C94.402 54.4469 96.6264 52.2281 96.6264 49.4925C96.6264 46.7556 94.402 44.5382 91.6582 44.5382ZM70.935 50.9713C59.8801 50.9725 50.922 59.9093 50.9207 70.9375C50.922 81.9644 59.8814 90.8999 70.935 90.9012C81.9911 90.8999 90.9492 81.9644 90.9518 70.9375C90.9492 59.9093 81.9911 50.9738 70.935 50.9713ZM80.611 80.5865C78.125 83.0637 74.724 84.5828 70.935 84.5853C67.1472 84.5828 63.7462 83.0637 61.2602 80.5865C58.7793 78.1068 57.2539 74.7157 57.2526 70.9375C57.2539 67.1568 58.7793 63.7656 61.2602 61.2859C63.7462 58.8113 67.1472 57.2897 70.935 57.2884C74.724 57.2897 78.125 58.8113 80.611 61.2859C83.0919 63.7656 84.6174 67.1581 84.6199 70.9375C84.6174 74.7157 83.0919 78.1081 80.611 80.5865ZM110.487 53.1547C110.487 53.156 110.487 53.1598 110.487 53.1623C110.487 53.1648 110.487 53.1686 110.487 53.1711V53.1547ZM104.16 53.4245L104.158 53.3854C104.158 53.3829 104.158 53.3804 104.158 53.3791L104.16 53.4245ZM110.487 53.1623C110.308 47.1263 108.025 41.7143 104.141 37.8201C100.275 33.9222 94.8469 31.5912 88.7173 31.4362C88.1359 31.411 79.0527 31.0013 71.5934 31C64.0154 31.0013 53.6291 31.4236 53.298 31.4362C47.1494 31.5887 41.7654 33.9323 37.9448 37.8327C34.1141 41.7256 31.867 47.0872 31.5384 53.0577L31.5371 53.0879C31.4866 53.7825 31 60.6707 31 70.282C31 79.7369 31.4701 87.4811 31.5321 88.4606C31.5472 94.3831 33.8651 99.7195 37.7527 103.567C41.6567 107.447 47.1001 109.835 53.2298 110.187C53.9375 110.238 62.7769 110.872 71.2914 110.875C80.1484 110.872 88.8045 110.185 88.8512 110.183C94.7888 109.714 100.175 107.343 104.113 103.514C108.044 99.7094 110.486 94.3945 110.491 88.4127C110.517 87.5567 110.874 76.9785 110.875 70.5858C110.871 64.0052 110.496 53.4459 110.487 53.1623ZM104.349 81.8472C104.254 85.4564 104.158 88.2437 104.158 88.2488L104.155 88.303V88.3572C104.144 92.6699 102.484 96.2565 99.6925 98.9921C96.8956 101.713 92.9196 103.524 88.3482 103.886C88.3482 103.886 88.2256 103.896 87.9792 103.914C86.2566 104.042 78.762 104.558 71.2901 104.557C67.0221 104.557 62.5974 104.39 59.252 104.22C57.5787 104.136 56.1745 104.051 55.1925 103.988C54.208 103.925 53.6569 103.883 53.6544 103.883L53.6216 103.881L53.6039 103.88C48.8784 103.601 44.963 101.808 42.2217 99.0879C39.4855 96.356 37.8741 92.709 37.8627 88.3559V87.6109L37.8184 87.5214C37.6971 85.4476 37.3319 78.5002 37.3319 70.2782C37.3319 65.3389 37.4633 61.1321 37.5947 58.1658C37.6225 57.5254 37.6516 56.943 37.6782 56.4236H37.6958L37.8576 53.4371C38.118 48.7891 39.8027 44.963 42.4643 42.2539C45.1374 39.551 48.8076 37.8769 53.499 37.747H53.5255L53.5483 37.7458C53.5508 37.7458 54.2017 37.7193 55.3075 37.6789C58.6213 37.5567 65.987 37.3134 71.5922 37.3146C75.3268 37.3146 79.5544 37.4218 82.8366 37.5289C84.4783 37.5831 85.885 37.6361 86.8796 37.6777C87.8743 37.7193 88.4506 37.7445 88.4519 37.7445L88.4822 37.7458L88.5176 37.747C93.1824 37.8743 96.9411 39.5611 99.6445 42.2665C102.338 44.9806 104.009 48.7664 104.155 53.3602V53.3842C104.159 53.4573 104.182 54.1078 104.216 55.1503C104.323 58.4659 104.538 65.7436 104.538 70.5807C104.541 73.8055 104.446 78.2379 104.349 81.8472Z" fill="white"/>
</g>
<defs>
<linearGradient id="paint0_linear_518_3504" x1="13" y1="134.5" x2="142" y2="-2.08616e-06" gradientUnits="userSpaceOnUse">
<stop stop-color="#FFD600"/>
<stop offset="0.47" stop-color="#FF0069"/>
<stop offset="1" stop-color="#DD30C5"/>
</linearGradient>
<clipPath id="clip0_518_3504">
<rect width="142" height="142" fill="white"/>
</clipPath>
</defs>
</svg>
