<svg width="700" height="564" viewBox="0 0 700 564" fill="none" xmlns="http://www.w3.org/2000/svg">
<g filter="url(#filter0_d_278_3224)">
<rect x="490" y="26" width="100" height="100" rx="30" fill="white"/>
</g>
<g filter="url(#filter1_d_278_3224)">
<rect x="118" y="45" width="100" height="100" rx="30" fill="white"/>
</g>
<g filter="url(#filter2_d_278_3224)">
<rect x="546" y="175" width="79" height="79" rx="24" fill="white"/>
</g>
<g filter="url(#filter3_d_278_3224)">
<rect x="446" y="360" width="89" height="89" rx="24" fill="white"/>
</g>
<g filter="url(#filter4_d_278_3224)">
<rect x="160" y="229" width="88" height="88" rx="24" fill="white"/>
</g>
<g filter="url(#filter5_d_278_3224)">
<rect x="26" y="207" width="65" height="65" rx="20" fill="white"/>
</g>
<g filter="url(#filter6_d_278_3224)">
<rect x="100" y="345" width="75" height="75" rx="24" fill="white"/>
</g>
<g filter="url(#filter7_d_278_3224)">
<rect x="540" y="461" width="63" height="63" rx="20" fill="white"/>
</g>
<path fill-rule="evenodd" clip-rule="evenodd" d="M609.958 200.932C609.385 198.422 607.69 196.442 605.535 195.762C601.637 194.545 586 194.545 586 194.545C586 194.545 570.37 194.545 566.465 195.762C564.318 196.432 562.623 198.412 562.042 200.932C561 205.487 561 215 561 215C561 215 561 224.512 562.042 229.067C562.615 231.577 564.31 233.557 566.465 234.237C570.37 235.455 586 235.455 586 235.455C586 235.455 601.637 235.455 605.535 234.237C607.682 233.567 609.378 231.587 609.958 229.067C611 224.512 611 215 611 215C611 215 611 205.487 609.958 200.932Z" stroke="#52D3C1" stroke-width="2" stroke-linecap="round" stroke-linejoin="round"/>
<path fill-rule="evenodd" clip-rule="evenodd" d="M581.005 222.5L593.995 215L581.005 207.5V222.5Z" stroke="#52D3C1" stroke-width="2" stroke-linecap="round" stroke-linejoin="round"/>
<path fill-rule="evenodd" clip-rule="evenodd" d="M153.362 65.75H182.641C190.708 65.75 197.25 72.289 197.25 80.362V109.641C197.25 117.708 190.711 124.25 182.638 124.25H153.362C145.292 124.25 138.75 117.711 138.75 109.638V80.362C138.75 72.2922 145.289 65.75 153.362 65.75V65.75Z" stroke="#52D3C1" stroke-width="2" stroke-linecap="round" stroke-linejoin="round"/>
<path d="M184.084 77.8172C183.48 77.8205 182.989 78.3112 182.989 78.9157C182.989 79.5202 183.483 80.011 184.088 80.011C184.692 80.011 185.183 79.5202 185.183 78.9157C185.186 78.308 184.692 77.8172 184.084 77.8172" stroke="#52D3C1" stroke-width="2" stroke-linecap="round" stroke-linejoin="round"/>
<path d="M176.273 86.7268C180.842 91.296 180.842 98.704 176.273 103.273C171.704 107.842 164.296 107.842 159.727 103.273C155.158 98.704 155.158 91.296 159.727 86.7268C164.296 82.1577 171.704 82.1577 176.273 86.7268" stroke="#52D3C1" stroke-width="2" stroke-linecap="round" stroke-linejoin="round"/>
<path d="M133.387 382C128.801 382 125.083 385.694 125.083 390.25C125.083 394.806 128.801 398.5 133.387 398.5C137.973 398.5 141.691 394.806 141.691 390.25V370.083C141.998 372.222 144.274 377.05 150.917 379.25" stroke="#52D3C1" stroke-width="2" stroke-linecap="round" stroke-linejoin="round"/>
<path fill-rule="evenodd" clip-rule="evenodd" d="M126.375 359.75H149.635C156.05 359.75 161.25 364.95 161.25 371.365V394.638C161.25 401.05 156.05 406.25 149.635 406.25H126.365C119.95 406.25 114.75 401.05 114.75 394.635V371.375C114.75 364.955 119.955 359.75 126.375 359.75V359.75Z" stroke="#52D3C1" stroke-width="2" stroke-linecap="round" stroke-linejoin="round"/>
<path d="M200.018 258.708H206.346V290.342H206.337C199.823 290.342 192.667 286.386 187.587 279.094C179.966 268.412 177.884 260.335 177.884 258.708" stroke="#52D3C1" stroke-width="2" stroke-linecap="round" stroke-linejoin="round"/>
<path d="M231.125 290.342C231.125 290.342 228.823 285.49 224.155 280.15C221.043 276.503 216.659 274.527 212.671 274.527C216.659 274.527 221.043 272.55 224.155 268.903C228.823 263.56 231.125 258.708 231.125 258.708" stroke="#52D3C1" stroke-width="2" stroke-linecap="round" stroke-linejoin="round"/>
<path d="M212.665 274.535H206.334" stroke="#52D3C1" stroke-width="2" stroke-linecap="round" stroke-linejoin="round"/>
<path d="M641.587 139.496L645.314 122.655" stroke="#52D3C1" stroke-width="1.5" stroke-linecap="round" stroke-linejoin="round"/>
<path d="M658.902 113.098C665.199 119.395 665.199 129.605 658.902 135.902C652.605 142.199 642.395 142.199 636.098 135.902C629.801 129.605 629.801 119.395 636.098 113.098C642.395 106.801 652.605 106.801 658.902 113.098" stroke="#52D3C1" stroke-width="1.5" stroke-linecap="round" stroke-linejoin="round"/>
<path d="M639.077 126.254C638.753 125.421 638.542 124.538 638.542 123.604C638.542 119.152 642.553 115.542 647.5 115.542C652.447 115.542 656.458 119.152 656.458 123.604C656.458 128.056 652.848 131.667 648.396 131.667C646.622 131.667 644.997 131.077 643.666 130.106" stroke="#52D3C1" stroke-width="1.5" stroke-linecap="round" stroke-linejoin="round"/>
<path fill-rule="evenodd" clip-rule="evenodd" d="M524.25 44.5H555.764C564.454 44.5 571.5 51.5455 571.5 60.236V91.7675C571.5 100.455 564.454 107.5 555.764 107.5H524.236C515.545 107.5 508.5 100.454 508.5 91.764V60.25C508.5 51.5525 515.553 44.5 524.25 44.5V44.5Z" stroke="#52D3C1" stroke-width="2" stroke-linecap="round" stroke-linejoin="round"/>
<path d="M536.85 79.15H555.75" stroke="#52D3C1" stroke-width="2" stroke-linecap="round" stroke-linejoin="round"/>
<path d="M555.75 63.4H552.442C547.311 63.4 543.15 67.5615 543.15 72.6925V76V107.5" stroke="#52D3C1" stroke-width="2" stroke-linecap="round" stroke-linejoin="round"/>
<path fill-rule="evenodd" clip-rule="evenodd" d="M577.982 476.851C581.562 480.431 581.562 486.236 577.982 489.815C574.402 493.395 568.598 493.395 565.018 489.815C561.439 486.236 561.439 480.431 565.018 476.851C568.598 473.272 574.402 473.272 577.982 476.851Z" stroke="#52D3C1" stroke-width="2" stroke-linecap="round" stroke-linejoin="round"/>
<path d="M560.042 494.792C566.917 499.375 576.083 499.375 582.958 494.792" stroke="#52D3C1" stroke-width="2" stroke-linecap="round" stroke-linejoin="round"/>
<path d="M580.667 510.833L571.5 501.667L562.333 510.833" stroke="#52D3C1" stroke-width="2" stroke-linecap="round" stroke-linejoin="round"/>
<path d="M489.859 419.831L483.406 426.109C482.288 427.197 480.416 426.716 479.963 425.222L475.663 411.066" stroke="#52D3C1" stroke-width="2" stroke-linecap="round" stroke-linejoin="round"/>
<path d="M475.66 411.063L462.919 407.088C461.46 406.631 461.391 404.591 462.819 404.041L511.303 385.341C513.097 384.65 514.944 386.222 514.544 388.103L506.291 427C505.863 429.013 503.5 429.909 501.847 428.688L487.375 417C486.032 416.009 485.928 414.041 487.169 412.922C491.319 409.175 501.847 398.25 501.847 398.25L476.438 410.75" stroke="#52D3C1" stroke-width="2" stroke-linecap="round" stroke-linejoin="round"/>
<path d="M37.4389 220.5L54.1694 242.011L37.3335 259.5H41.1229L55.8631 244.188L67.7723 259.5H80.6668L62.9946 236.78L78.6656 220.5H74.8762L61.3017 234.602L50.3335 220.5H37.4389ZM43.0114 223.184H48.9351L75.0936 256.816H69.1699L43.0114 223.184Z" fill="#52D3C1"/>
<path fill-rule="evenodd" clip-rule="evenodd" d="M642 299H660.008C664.974 299 669 303.026 669 307.992V326.01C669 330.974 664.974 335 660.008 335H641.992C637.026 335 633 330.974 633 326.008V308C633 303.03 637.03 299 642 299V299Z" stroke="#52D3C1" stroke-width="1.5" stroke-linecap="round" stroke-linejoin="round"/>
<path d="M643.24 315.2V326" stroke="#52D3C1" stroke-width="1.5" stroke-linecap="round" stroke-linejoin="round"/>
<path d="M650.438 326V319.7C650.438 317.214 652.452 315.2 654.938 315.2V315.2C657.424 315.2 659.438 317.214 659.438 319.7V326" stroke="#52D3C1" stroke-width="1.5" stroke-linecap="round" stroke-linejoin="round"/>
<path d="M643.236 308.676C642.988 308.676 642.786 308.878 642.788 309.126C642.788 309.374 642.99 309.576 643.238 309.576C643.486 309.576 643.688 309.374 643.688 309.126C643.688 308.876 643.486 308.676 643.236 308.676" stroke="#52D3C1" stroke-width="1.5" stroke-linecap="round" stroke-linejoin="round"/>
<path d="M97.063 528.587C97.647 527.705 97.643 526.283 97.059 525.407C96.471 524.531 95.523 524.531 94.939 525.413C94.355 526.295 94.355 527.717 94.939 528.593C95.523 529.469 96.475 529.469 97.063 528.587" stroke="#52D3C1" stroke-width="1.5" stroke-linecap="round" stroke-linejoin="round"/>
<path d="M109.063 528.587C109.647 527.705 109.643 526.283 109.059 525.407C108.471 524.531 107.523 524.531 106.939 525.413C106.355 526.295 106.355 527.717 106.939 528.593C107.523 529.469 108.475 529.469 109.063 528.587" stroke="#52D3C1" stroke-width="1.5" stroke-linecap="round" stroke-linejoin="round"/>
<path d="M112 534.437C109.065 535.143 105.715 535.563 102 535.563C98.285 535.563 94.9354 535.143 92 534.437" stroke="#52D3C1" stroke-width="1.5" stroke-linecap="round" stroke-linejoin="round"/>
<path d="M106 515C105.413 515 101.743 515 101 515C100.257 515 97.5871 515 97 515" stroke="#52D3C1" stroke-width="1.5" stroke-linecap="round" stroke-linejoin="round"/>
<path d="M108 536L110 539C112 539 116 538 119 535C119 530 119 523 114 515C113.333 514.667 111 513.8 107 513L106 514" stroke="#52D3C1" stroke-width="1.5" stroke-linecap="round"/>
<path d="M95 536L93 539C91 539 87 538 84 535C84 530 84 523 89 515C89.6667 514.667 92 513.8 96 513L97 514" stroke="#52D3C1" stroke-width="1.5" stroke-linecap="round"/>
<path d="M617.001 414.608C616.765 414.608 616.574 414.799 616.576 415.035C616.576 415.271 616.767 415.462 617.003 415.462C617.238 415.462 617.43 415.271 617.43 415.035C617.43 414.799 617.238 414.608 617.001 414.608" stroke="#52D3C1" stroke-width="1.5" stroke-linecap="round" stroke-linejoin="round"/>
<path d="M605.926 414.465C605.69 414.465 605.499 414.656 605.5 414.892C605.5 415.127 605.692 415.319 605.927 415.319C606.163 415.319 606.354 415.127 606.354 414.892C606.354 414.656 606.163 414.465 605.926 414.465" stroke="#52D3C1" stroke-width="1.5" stroke-linecap="round" stroke-linejoin="round"/>
<path d="M621.842 400.97C622.091 400.719 622.09 400.314 621.84 400.065C621.589 399.816 621.184 399.816 620.935 400.067C620.685 400.318 620.685 400.723 620.935 400.972C621.184 401.222 621.591 401.222 621.842 400.97" stroke="#52D3C1" stroke-width="1.5" stroke-linecap="round" stroke-linejoin="round"/>
<path d="M617.11 420.032C615.463 420.635 613.584 420.994 611.5 420.994C609.416 420.994 607.536 420.635 605.89 420.032" stroke="#52D3C1" stroke-width="1.5" stroke-linecap="round" stroke-linejoin="round"/>
<path fill-rule="evenodd" clip-rule="evenodd" d="M597.433 415.599C597.141 415.449 596.861 415.278 596.62 415.052C595.216 413.73 595.148 411.521 596.47 410.117C597.777 408.728 599.951 408.651 601.359 409.931C603.92 408.096 607.494 406.931 611.5 406.931C615.506 406.931 619.08 408.096 621.64 409.929C623.046 408.649 625.221 408.726 626.53 410.115C627.852 411.519 627.784 413.73 626.379 415.051C626.14 415.276 625.858 415.449 625.566 415.597C625.635 415.983 625.681 416.373 625.681 416.767C625.681 422.05 619.428 426.606 611.5 426.606C603.571 426.606 597.319 422.05 597.319 416.767C597.319 416.373 597.365 415.983 597.433 415.599Z" stroke="#52D3C1" stroke-width="1.5" stroke-linecap="round" stroke-linejoin="round"/>
<path d="M611.5 406.931L612.575 402.139C612.981 400.326 614.76 399.172 616.581 399.537L620.775 400.378" stroke="#52D3C1" stroke-width="1.5" stroke-linecap="round" stroke-linejoin="round"/>
<path d="M60 145.832C58.8851 146.318 57.8408 147.017 56.9288 147.929C53.0237 151.834 53.0237 158.166 56.9288 162.071C58.8814 164.024 61.4407 165 64 165H90" stroke="#52D3C1" stroke-width="1.5" stroke-linecap="round" stroke-linejoin="round"/>
<path d="M78.5207 139.761C78.1193 139.109 77.6361 138.494 77.0712 137.929C73.1661 134.024 66.8339 134.024 62.9288 137.929C60.8124 140.045 59.843 142.875 60.0206 145.644" stroke="#52D3C1" stroke-width="1.5" stroke-linecap="round" stroke-linejoin="round"/>
<path d="M90.0039 165C92.0501 164.999 94.096 164.218 95.6571 162.657C98.7811 159.533 98.7811 154.467 95.6571 151.343C94.096 149.782 92.0501 149.001 90.0039 149" stroke="#52D3C1" stroke-width="1.5" stroke-linecap="round" stroke-linejoin="round"/>
<path d="M78.4448 139.831C81.4369 138.347 85.1648 138.851 87.6571 141.343C89.7321 143.418 90.4289 146.35 89.7475 149" stroke="#52D3C1" stroke-width="1.5" stroke-linecap="round" stroke-linejoin="round"/>
<path fill-rule="evenodd" clip-rule="evenodd" d="M81.6569 147.343C84.781 150.467 84.781 155.533 81.6569 158.657C78.5329 161.781 73.4671 161.781 70.3431 158.657C67.219 155.533 67.219 150.467 70.3431 147.343C73.4671 144.219 78.5329 144.219 81.6569 147.343Z" stroke="#52D3C1" stroke-width="1.5" stroke-linecap="round" stroke-linejoin="round"/>
<path d="M76 150V153H79" stroke="#52D3C1" stroke-width="1.5" stroke-linecap="round" stroke-linejoin="round"/>
<path d="M50.2186 408.104C51.1173 405.879 50.6646 403.235 48.8607 401.431C46.4526 399.023 42.5477 399.023 40.1396 401.431C37.7315 403.839 37.7315 407.744 40.1396 410.152C40.6779 410.691 41.291 411.109 41.9454 411.406L36.021 420.438" stroke="#52D3C1" stroke-width="1.5" stroke-linejoin="round"/>
<path d="M49.3896 425.569C51.7978 427.977 55.7026 427.977 58.1108 425.569C60.5189 423.161 60.5189 419.256 58.1108 416.848C56.0037 414.741 52.7508 414.477 50.3572 416.057L45.2705 407.333" stroke="#52D3C1" stroke-width="1.5" stroke-linejoin="round"/>
<path d="M34.1288 415.144C32.9422 415.362 31.8072 415.93 30.8896 416.848C28.4815 419.256 28.4815 423.161 30.8896 425.569C33.2977 427.977 37.2026 427.977 39.6107 425.569C40.8141 424.366 41.4161 422.789 41.4168 421.211H52.2085" stroke="#52D3C1" stroke-width="1.5" stroke-linejoin="round"/>
<path d="M45.5903 406.882C46.1923 406.28 46.1923 405.304 45.5903 404.702C44.9883 404.099 44.0121 404.099 43.41 404.702C42.808 405.304 42.808 406.28 43.41 406.882C44.0121 407.484 44.9883 407.484 45.5903 406.882" stroke="#52D3C1" stroke-width="1.5" stroke-linecap="round" stroke-linejoin="round"/>
<path d="M54.8403 422.298C55.4423 421.696 55.4423 420.72 54.8403 420.118C54.2383 419.516 53.2621 419.516 52.66 420.118C52.058 420.72 52.058 421.696 52.66 422.298C53.2621 422.901 54.2383 422.901 54.8403 422.298" stroke="#52D3C1" stroke-width="1.5" stroke-linecap="round" stroke-linejoin="round"/>
<path d="M36.3403 422.298C36.9423 421.696 36.9423 420.72 36.3403 420.118C35.7383 419.516 34.7621 419.516 34.16 420.118C33.558 420.72 33.558 421.696 34.16 422.298C34.7621 422.901 35.7383 422.901 36.3403 422.298" stroke="#52D3C1" stroke-width="1.5" stroke-linecap="round" stroke-linejoin="round"/>
<defs>
<filter id="filter0_d_278_3224" x="466" y="8" width="148" height="148" filterUnits="userSpaceOnUse" color-interpolation-filters="sRGB">
<feFlood flood-opacity="0" result="BackgroundImageFix"/>
<feColorMatrix in="SourceAlpha" type="matrix" values="0 0 0 0 0 0 0 0 0 0 0 0 0 0 0 0 0 0 127 0" result="hardAlpha"/>
<feOffset dy="6"/>
<feGaussianBlur stdDeviation="12"/>
<feComposite in2="hardAlpha" operator="out"/>
<feColorMatrix type="matrix" values="0 0 0 0 0.680339 0 0 0 0 0.737448 0 0 0 0 0.808835 0 0 0 1 0"/>
<feBlend mode="normal" in2="BackgroundImageFix" result="effect1_dropShadow_278_3224"/>
<feBlend mode="normal" in="SourceGraphic" in2="effect1_dropShadow_278_3224" result="shape"/>
</filter>
<filter id="filter1_d_278_3224" x="94" y="27" width="148" height="148" filterUnits="userSpaceOnUse" color-interpolation-filters="sRGB">
<feFlood flood-opacity="0" result="BackgroundImageFix"/>
<feColorMatrix in="SourceAlpha" type="matrix" values="0 0 0 0 0 0 0 0 0 0 0 0 0 0 0 0 0 0 127 0" result="hardAlpha"/>
<feOffset dy="6"/>
<feGaussianBlur stdDeviation="12"/>
<feComposite in2="hardAlpha" operator="out"/>
<feColorMatrix type="matrix" values="0 0 0 0 0.680339 0 0 0 0 0.737448 0 0 0 0 0.808835 0 0 0 1 0"/>
<feBlend mode="normal" in2="BackgroundImageFix" result="effect1_dropShadow_278_3224"/>
<feBlend mode="normal" in="SourceGraphic" in2="effect1_dropShadow_278_3224" result="shape"/>
</filter>
<filter id="filter2_d_278_3224" x="522" y="157" width="127" height="127" filterUnits="userSpaceOnUse" color-interpolation-filters="sRGB">
<feFlood flood-opacity="0" result="BackgroundImageFix"/>
<feColorMatrix in="SourceAlpha" type="matrix" values="0 0 0 0 0 0 0 0 0 0 0 0 0 0 0 0 0 0 127 0" result="hardAlpha"/>
<feOffset dy="6"/>
<feGaussianBlur stdDeviation="12"/>
<feComposite in2="hardAlpha" operator="out"/>
<feColorMatrix type="matrix" values="0 0 0 0 0.680339 0 0 0 0 0.737448 0 0 0 0 0.808835 0 0 0 1 0"/>
<feBlend mode="normal" in2="BackgroundImageFix" result="effect1_dropShadow_278_3224"/>
<feBlend mode="normal" in="SourceGraphic" in2="effect1_dropShadow_278_3224" result="shape"/>
</filter>
<filter id="filter3_d_278_3224" x="422" y="342" width="137" height="137" filterUnits="userSpaceOnUse" color-interpolation-filters="sRGB">
<feFlood flood-opacity="0" result="BackgroundImageFix"/>
<feColorMatrix in="SourceAlpha" type="matrix" values="0 0 0 0 0 0 0 0 0 0 0 0 0 0 0 0 0 0 127 0" result="hardAlpha"/>
<feOffset dy="6"/>
<feGaussianBlur stdDeviation="12"/>
<feComposite in2="hardAlpha" operator="out"/>
<feColorMatrix type="matrix" values="0 0 0 0 0.680339 0 0 0 0 0.737448 0 0 0 0 0.808835 0 0 0 1 0"/>
<feBlend mode="normal" in2="BackgroundImageFix" result="effect1_dropShadow_278_3224"/>
<feBlend mode="normal" in="SourceGraphic" in2="effect1_dropShadow_278_3224" result="shape"/>
</filter>
<filter id="filter4_d_278_3224" x="136" y="211" width="136" height="136" filterUnits="userSpaceOnUse" color-interpolation-filters="sRGB">
<feFlood flood-opacity="0" result="BackgroundImageFix"/>
<feColorMatrix in="SourceAlpha" type="matrix" values="0 0 0 0 0 0 0 0 0 0 0 0 0 0 0 0 0 0 127 0" result="hardAlpha"/>
<feOffset dy="6"/>
<feGaussianBlur stdDeviation="12"/>
<feComposite in2="hardAlpha" operator="out"/>
<feColorMatrix type="matrix" values="0 0 0 0 0.680339 0 0 0 0 0.737448 0 0 0 0 0.808835 0 0 0 1 0"/>
<feBlend mode="normal" in2="BackgroundImageFix" result="effect1_dropShadow_278_3224"/>
<feBlend mode="normal" in="SourceGraphic" in2="effect1_dropShadow_278_3224" result="shape"/>
</filter>
<filter id="filter5_d_278_3224" x="2" y="189" width="113" height="113" filterUnits="userSpaceOnUse" color-interpolation-filters="sRGB">
<feFlood flood-opacity="0" result="BackgroundImageFix"/>
<feColorMatrix in="SourceAlpha" type="matrix" values="0 0 0 0 0 0 0 0 0 0 0 0 0 0 0 0 0 0 127 0" result="hardAlpha"/>
<feOffset dy="6"/>
<feGaussianBlur stdDeviation="12"/>
<feComposite in2="hardAlpha" operator="out"/>
<feColorMatrix type="matrix" values="0 0 0 0 0.680339 0 0 0 0 0.737448 0 0 0 0 0.808835 0 0 0 1 0"/>
<feBlend mode="normal" in2="BackgroundImageFix" result="effect1_dropShadow_278_3224"/>
<feBlend mode="normal" in="SourceGraphic" in2="effect1_dropShadow_278_3224" result="shape"/>
</filter>
<filter id="filter6_d_278_3224" x="76" y="327" width="123" height="123" filterUnits="userSpaceOnUse" color-interpolation-filters="sRGB">
<feFlood flood-opacity="0" result="BackgroundImageFix"/>
<feColorMatrix in="SourceAlpha" type="matrix" values="0 0 0 0 0 0 0 0 0 0 0 0 0 0 0 0 0 0 127 0" result="hardAlpha"/>
<feOffset dy="6"/>
<feGaussianBlur stdDeviation="12"/>
<feComposite in2="hardAlpha" operator="out"/>
<feColorMatrix type="matrix" values="0 0 0 0 0.680339 0 0 0 0 0.737448 0 0 0 0 0.808835 0 0 0 1 0"/>
<feBlend mode="normal" in2="BackgroundImageFix" result="effect1_dropShadow_278_3224"/>
<feBlend mode="normal" in="SourceGraphic" in2="effect1_dropShadow_278_3224" result="shape"/>
</filter>
<filter id="filter7_d_278_3224" x="516" y="443" width="111" height="111" filterUnits="userSpaceOnUse" color-interpolation-filters="sRGB">
<feFlood flood-opacity="0" result="BackgroundImageFix"/>
<feColorMatrix in="SourceAlpha" type="matrix" values="0 0 0 0 0 0 0 0 0 0 0 0 0 0 0 0 0 0 127 0" result="hardAlpha"/>
<feOffset dy="6"/>
<feGaussianBlur stdDeviation="12"/>
<feComposite in2="hardAlpha" operator="out"/>
<feColorMatrix type="matrix" values="0 0 0 0 0.680339 0 0 0 0 0.737448 0 0 0 0 0.808835 0 0 0 1 0"/>
<feBlend mode="normal" in2="BackgroundImageFix" result="effect1_dropShadow_278_3224"/>
<feBlend mode="normal" in="SourceGraphic" in2="effect1_dropShadow_278_3224" result="shape"/>
</filter>
</defs>
</svg>
