<svg width="700" height="564" viewBox="0 0 700 564" fill="none" xmlns="http://www.w3.org/2000/svg">
<g filter="url(#filter0_d_278_3224)">
<rect x="490" y="26" width="100" height="100" rx="30" fill="#F0F4F9"/>
</g>
<g filter="url(#filter1_d_278_3224)">
<rect x="118" y="45" width="100" height="100" rx="30" fill="#F0F4F9"/>
</g>
<g filter="url(#filter2_d_278_3224)">
<rect x="546" y="175" width="79" height="79" rx="24" fill="#F0F4F9"/>
</g>
<g filter="url(#filter3_d_278_3224)">
<rect x="446" y="360" width="89" height="89" rx="24" fill="#F0F4F9"/>
</g>
<g filter="url(#filter4_d_278_3224)">
<rect x="160" y="229" width="88" height="88" rx="24" fill="#F0F4F9"/>
</g>
<g filter="url(#filter5_d_278_3224)">
<rect x="26" y="207" width="65" height="65" rx="20" fill="#F0F4F9"/>
</g>
<g filter="url(#filter6_d_278_3224)">
<rect x="100" y="345" width="75" height="75" rx="24" fill="#F0F4F9"/>
</g>
<g filter="url(#filter7_d_278_3224)">
<rect x="540" y="461" width="63" height="63" rx="20" fill="#F0F4F9"/>
</g>
<path fill-rule="evenodd" clip-rule="evenodd" d="M609.958 200.932C609.385 198.422 607.69 196.442 605.535 195.762C601.637 194.545 586 194.545 586 194.545C586 194.545 570.37 194.545 566.465 195.762C564.318 196.432 562.623 198.412 562.042 200.932C561 205.487 561 215 561 215C561 215 561 224.512 562.042 229.067C562.615 231.577 564.31 233.557 566.465 234.237C570.37 235.455 586 235.455 586 235.455C586 235.455 601.637 235.455 605.535 234.237C607.682 233.567 609.378 231.587 609.958 229.067C611 224.512 611 215 611 215C611 215 611 205.487 609.958 200.932Z" stroke="#52D3C1" stroke-width="2" stroke-linecap="round" stroke-linejoin="round"/>
<path fill-rule="evenodd" clip-rule="evenodd" d="M581.005 222.5L593.995 215L581.005 207.5V222.5Z" stroke="#52D3C1" stroke-width="2" stroke-linecap="round" stroke-linejoin="round"/>
<path fill-rule="evenodd" clip-rule="evenodd" d="M153.674 65.75H183.329C191.499 65.75 198.125 72.289 198.125 80.362V109.641C198.125 117.708 191.502 124.25 183.326 124.25H153.674C145.501 124.25 138.875 117.711 138.875 109.638V80.362C138.875 72.2922 145.498 65.75 153.674 65.75V65.75Z" stroke="#52D3C1" stroke-width="2" stroke-linecap="round" stroke-linejoin="round"/>
<path d="M184.791 77.8172C184.178 77.8205 183.681 78.3112 183.681 78.9157C183.681 79.5202 184.182 80.011 184.794 80.011C185.406 80.011 185.903 79.5202 185.903 78.9157C185.907 78.308 185.406 77.8172 184.791 77.8172" stroke="#52D3C1" stroke-width="2" stroke-linecap="round" stroke-linejoin="round"/>
<path d="M176.879 86.7268C181.507 91.296 181.507 98.704 176.879 103.273C172.251 107.842 164.748 107.842 160.121 103.273C155.493 98.704 155.493 91.296 160.121 86.7268C164.748 82.1577 172.251 82.1577 176.879 86.7268" stroke="#52D3C1" stroke-width="2" stroke-linecap="round" stroke-linejoin="round"/>
<path d="M133.387 382C128.801 382 125.083 385.694 125.083 390.25C125.083 394.806 128.801 398.5 133.387 398.5C137.973 398.5 141.691 394.806 141.691 390.25V370.083C141.998 372.222 144.274 377.05 150.917 379.25" stroke="#52D3C1" stroke-width="2" stroke-linecap="round" stroke-linejoin="round"/>
<path fill-rule="evenodd" clip-rule="evenodd" d="M126.375 359.75H149.635C156.05 359.75 161.25 364.95 161.25 371.365V394.638C161.25 401.05 156.05 406.25 149.635 406.25H126.365C119.95 406.25 114.75 401.05 114.75 394.635V371.375C114.75 364.955 119.955 359.75 126.375 359.75V359.75Z" stroke="#52D3C1" stroke-width="2" stroke-linecap="round" stroke-linejoin="round"/>
<path d="M200.018 258.708H206.346V290.342H206.337C199.823 290.342 192.667 286.386 187.587 279.094C179.966 268.412 177.884 260.335 177.884 258.708" stroke="#52D3C1" stroke-width="2" stroke-linecap="round" stroke-linejoin="round"/>
<path d="M231.125 290.342C231.125 290.342 228.823 285.49 224.155 280.15C221.043 276.503 216.659 274.527 212.671 274.527C216.659 274.527 221.043 272.55 224.155 268.903C228.823 263.56 231.125 258.708 231.125 258.708" stroke="#52D3C1" stroke-width="2" stroke-linecap="round" stroke-linejoin="round"/>
<path d="M212.665 274.535H206.334" stroke="#52D3C1" stroke-width="2" stroke-linecap="round" stroke-linejoin="round"/>
<path d="M641.587 139.496L645.314 122.655" stroke="#52D3C1" stroke-width="1.5" stroke-linecap="round" stroke-linejoin="round"/>
<path d="M658.902 113.098C665.199 119.395 665.199 129.605 658.902 135.902C652.605 142.199 642.395 142.199 636.098 135.902C629.801 129.605 629.801 119.395 636.098 113.098C642.395 106.801 652.605 106.801 658.902 113.098" stroke="#52D3C1" stroke-width="1.5" stroke-linecap="round" stroke-linejoin="round"/>
<path d="M639.077 126.254C638.753 125.421 638.542 124.538 638.542 123.604C638.542 119.152 642.553 115.542 647.5 115.542C652.447 115.542 656.458 119.152 656.458 123.604C656.458 128.056 652.848 131.667 648.396 131.667C646.622 131.667 644.997 131.077 643.666 130.106" stroke="#52D3C1" stroke-width="1.5" stroke-linecap="round" stroke-linejoin="round"/>
<path fill-rule="evenodd" clip-rule="evenodd" d="M524.25 42.625H555.764C564.454 42.625 571.5 49.7544 571.5 58.5483V90.4552C571.5 99.2456 564.454 106.375 555.764 106.375H524.236C515.545 106.375 508.5 99.2456 508.5 90.4517V58.5625C508.5 49.7615 515.553 42.625 524.25 42.625V42.625Z" stroke="#52D3C1" stroke-width="2" stroke-linecap="round" stroke-linejoin="round"/>
<path d="M536.85 77.6875H555.75" stroke="#52D3C1" stroke-width="2" stroke-linecap="round" stroke-linejoin="round"/>
<path d="M555.75 61.75H552.442C547.311 61.75 543.15 65.961 543.15 71.1531V74.5V106.375" stroke="#52D3C1" stroke-width="2" stroke-linecap="round" stroke-linejoin="round"/>
<path fill-rule="evenodd" clip-rule="evenodd" d="M577.982 476.851C581.562 480.431 581.562 486.236 577.982 489.815C574.402 493.395 568.598 493.395 565.018 489.815C561.439 486.236 561.439 480.431 565.018 476.851C568.598 473.272 574.402 473.272 577.982 476.851Z" stroke="#52D3C1" stroke-width="2" stroke-linecap="round" stroke-linejoin="round"/>
<path d="M560.042 494.792C566.917 499.375 576.083 499.375 582.958 494.792" stroke="#52D3C1" stroke-width="2" stroke-linecap="round" stroke-linejoin="round"/>
<path d="M580.667 510.833L571.5 501.667L562.333 510.833" stroke="#52D3C1" stroke-width="2" stroke-linecap="round" stroke-linejoin="round"/>
<path d="M489.859 417.831L483.406 424.109C482.288 425.197 480.416 424.716 479.963 423.222L475.663 409.066" stroke="#52D3C1" stroke-width="2" stroke-linecap="round" stroke-linejoin="round"/>
<path d="M475.66 409.063L462.919 405.088C461.46 404.631 461.391 402.591 462.819 402.041L511.303 383.341C513.097 382.65 514.944 384.222 514.544 386.103L506.291 425C505.863 427.013 503.5 427.909 501.847 426.688L487.375 415C486.032 414.009 485.928 412.041 487.169 410.922C491.319 407.175 501.847 396.25 501.847 396.25L476.438 408.75" stroke="#52D3C1" stroke-width="2" stroke-linecap="round" stroke-linejoin="round"/>
<path d="M75.6 234.258C75.6 233.706 75.1523 233.258 74.6 233.258C74.0477 233.258 73.6 233.706 73.6 234.258H75.6ZM40.3075 249.269C39.9818 248.823 39.3562 248.725 38.9102 249.051C38.4642 249.377 38.3667 250.002 38.6925 250.448L40.3075 249.269ZM39.3301 248.873C38.7858 248.967 38.4207 249.484 38.5145 250.028C38.6084 250.573 39.1257 250.938 39.6699 250.844L39.3301 248.873ZM45.35 247.908L45.6677 248.857C45.9952 248.747 46.2428 248.476 46.3228 248.14C46.4028 247.804 46.3038 247.451 46.061 247.205L45.35 247.908ZM43.4 224.508L44.2808 224.035C44.1173 223.731 43.8085 223.532 43.464 223.51C43.1194 223.488 42.7879 223.646 42.5869 223.926L43.4 224.508ZM55.1 234.258L54.8638 235.23C55.1563 235.301 55.4652 235.237 55.7049 235.055C55.9446 234.873 56.0895 234.592 56.0995 234.291L55.1 234.258ZM72.65 228.408L71.8151 228.959C72.0001 229.239 72.3138 229.408 72.65 229.408V228.408ZM78.5 228.408L79.3321 228.963C79.5366 228.656 79.5557 228.262 79.3817 227.937C79.2077 227.611 78.8688 227.408 78.5 227.408V228.408ZM73.768 233.704C73.4616 234.163 73.5858 234.784 74.0453 235.09C74.5048 235.397 75.1257 235.273 75.4321 234.813L73.768 233.704ZM73.6 234.258C73.6 240.899 71.7035 246.495 68.2439 250.415C64.7981 254.321 59.7207 256.658 53.15 256.658V258.658C60.2293 258.658 65.8769 256.121 69.7436 251.739C73.5965 247.372 75.6 241.267 75.6 234.258H73.6ZM53.15 256.658C49.4428 256.658 46.9159 255.697 44.9989 254.34C43.0514 252.962 41.674 251.139 40.3075 249.269L38.6925 250.448C40.0495 252.306 41.5971 254.383 43.8437 255.973C46.1208 257.584 49.0572 258.658 53.15 258.658V256.658ZM39.6699 250.844C39.7208 250.835 39.7618 250.824 39.762 250.824C39.7737 250.82 39.7834 250.818 39.7888 250.816C39.8003 250.813 39.8114 250.809 39.8198 250.807C39.8375 250.801 39.8594 250.794 39.8833 250.786C39.9319 250.771 39.9994 250.749 40.082 250.721C40.2478 250.667 40.4801 250.59 40.7561 250.498C41.3082 250.314 42.0381 250.071 42.7655 249.828C43.4931 249.585 44.2186 249.342 44.7622 249.16C45.0341 249.069 45.2604 248.993 45.4188 248.94C45.498 248.913 45.5602 248.893 45.6027 248.878C45.6239 248.871 45.6401 248.866 45.6511 248.862C45.6566 248.86 45.6607 248.859 45.6635 248.858C45.6649 248.857 45.666 248.857 45.6667 248.857C45.667 248.857 45.6673 248.857 45.6675 248.857C45.6675 248.857 45.6676 248.857 45.6677 248.857C45.6677 248.857 45.6677 248.857 45.35 247.908C45.0323 246.96 45.0323 246.96 45.0322 246.96C45.0322 246.96 45.0321 246.96 45.032 246.96C45.0318 246.96 45.0316 246.96 45.0312 246.961C45.0305 246.961 45.0295 246.961 45.0281 246.962C45.0253 246.963 45.0212 246.964 45.0157 246.966C45.0048 246.969 44.9885 246.975 44.9673 246.982C44.9249 246.996 44.8628 247.017 44.7836 247.043C44.6253 247.097 44.399 247.172 44.1273 247.263C43.5839 247.445 42.8587 247.688 42.1316 247.931C41.4044 248.174 40.6757 248.417 40.1251 248.6C39.8496 248.692 39.6196 248.768 39.4568 248.822C39.3751 248.848 39.3119 248.869 39.2688 248.883C39.2469 248.89 39.2327 248.895 39.2248 248.897C39.2204 248.898 39.2213 248.898 39.2254 248.897C39.2271 248.896 39.2337 248.895 39.243 248.892C39.2477 248.891 39.2562 248.889 39.267 248.886C39.2748 248.884 39.2988 248.878 39.3301 248.873L39.6699 250.844ZM46.061 247.205C39.8975 240.974 39.4339 231.766 44.2131 225.09L42.5869 223.926C37.2521 231.378 37.7765 241.674 44.639 248.612L46.061 247.205ZM42.5192 224.982C45.0152 229.624 49.6973 233.974 54.8638 235.23L55.3362 233.287C50.8567 232.198 46.5818 228.315 44.2808 224.035L42.5192 224.982ZM56.0995 234.291C56.1854 231.693 57.105 229.504 58.6057 227.97C60.101 226.442 62.2282 225.508 64.85 225.508V223.508C61.728 223.508 59.0734 224.633 57.1762 226.571C55.2844 228.505 54.2009 231.19 54.1005 234.225L56.0995 234.291ZM64.85 225.508C66.6763 225.508 68.0605 225.856 69.1502 226.437C70.2377 227.017 71.0936 227.864 71.8151 228.959L73.4849 227.858C72.6183 226.543 71.5296 225.44 70.0918 224.673C68.6562 223.906 66.9345 223.508 64.85 223.508V225.508ZM72.65 229.408H78.5V227.408H72.65V229.408ZM77.6679 227.854L73.768 233.704L75.4321 234.813L79.3321 228.963L77.6679 227.854Z" fill="#52D3C1"/>
<path fill-rule="evenodd" clip-rule="evenodd" d="M642 299H660.008C664.974 299 669 303.026 669 307.992V326.01C669 330.974 664.974 335 660.008 335H641.992C637.026 335 633 330.974 633 326.008V308C633 303.03 637.03 299 642 299V299Z" stroke="#52D3C1" stroke-width="1.5" stroke-linecap="round" stroke-linejoin="round"/>
<path d="M643.24 315.2V326" stroke="#52D3C1" stroke-width="1.5" stroke-linecap="round" stroke-linejoin="round"/>
<path d="M650.438 326V319.7C650.438 317.214 652.452 315.2 654.938 315.2V315.2C657.424 315.2 659.438 317.214 659.438 319.7V326" stroke="#52D3C1" stroke-width="1.5" stroke-linecap="round" stroke-linejoin="round"/>
<path d="M643.236 308.676C642.988 308.676 642.786 308.878 642.788 309.126C642.788 309.374 642.99 309.576 643.238 309.576C643.486 309.576 643.688 309.374 643.688 309.126C643.688 308.876 643.486 308.676 643.236 308.676" stroke="#52D3C1" stroke-width="1.5" stroke-linecap="round" stroke-linejoin="round"/>
<path d="M97.063 528.587C97.647 527.705 97.643 526.283 97.059 525.407C96.471 524.531 95.523 524.531 94.939 525.413C94.355 526.295 94.355 527.717 94.939 528.593C95.523 529.469 96.475 529.469 97.063 528.587" stroke="#52D3C1" stroke-width="1.5" stroke-linecap="round" stroke-linejoin="round"/>
<path d="M109.063 528.587C109.647 527.705 109.643 526.283 109.059 525.407C108.471 524.531 107.523 524.531 106.939 525.413C106.355 526.295 106.355 527.717 106.939 528.593C107.523 529.469 108.475 529.469 109.063 528.587" stroke="#52D3C1" stroke-width="1.5" stroke-linecap="round" stroke-linejoin="round"/>
<path d="M112 534.437C109.065 535.143 105.715 535.563 102 535.563C98.285 535.563 94.9354 535.143 92 534.437" stroke="#52D3C1" stroke-width="1.5" stroke-linecap="round" stroke-linejoin="round"/>
<path d="M106 515C105.413 515 101.743 515 101 515C100.257 515 97.5871 515 97 515" stroke="#52D3C1" stroke-width="1.5" stroke-linecap="round" stroke-linejoin="round"/>
<path d="M108 536L110 539C112 539 116 538 119 535C119 530 119 523 114 515C113.333 514.667 111 513.8 107 513L106 514" stroke="#52D3C1" stroke-width="1.5" stroke-linecap="round"/>
<path d="M95 536L93 539C91 539 87 538 84 535C84 530 84 523 89 515C89.6667 514.667 92 513.8 96 513L97 514" stroke="#52D3C1" stroke-width="1.5" stroke-linecap="round"/>
<path d="M617.001 414.608C616.765 414.608 616.574 414.799 616.576 415.035C616.576 415.271 616.767 415.462 617.003 415.462C617.238 415.462 617.43 415.271 617.43 415.035C617.43 414.799 617.238 414.608 617.001 414.608" stroke="#52D3C1" stroke-width="1.5" stroke-linecap="round" stroke-linejoin="round"/>
<path d="M605.926 414.465C605.69 414.465 605.499 414.656 605.5 414.892C605.5 415.127 605.692 415.319 605.927 415.319C606.163 415.319 606.354 415.127 606.354 414.892C606.354 414.656 606.163 414.465 605.926 414.465" stroke="#52D3C1" stroke-width="1.5" stroke-linecap="round" stroke-linejoin="round"/>
<path d="M621.842 400.97C622.091 400.719 622.09 400.314 621.84 400.065C621.589 399.816 621.184 399.816 620.935 400.067C620.685 400.318 620.685 400.723 620.935 400.972C621.184 401.222 621.591 401.222 621.842 400.97" stroke="#52D3C1" stroke-width="1.5" stroke-linecap="round" stroke-linejoin="round"/>
<path d="M617.11 420.032C615.463 420.635 613.584 420.994 611.5 420.994C609.416 420.994 607.536 420.635 605.89 420.032" stroke="#52D3C1" stroke-width="1.5" stroke-linecap="round" stroke-linejoin="round"/>
<path fill-rule="evenodd" clip-rule="evenodd" d="M597.433 415.599C597.141 415.449 596.861 415.278 596.62 415.052C595.216 413.73 595.148 411.521 596.47 410.117C597.777 408.728 599.951 408.651 601.359 409.931C603.92 408.096 607.494 406.931 611.5 406.931C615.506 406.931 619.08 408.096 621.64 409.929C623.046 408.649 625.221 408.726 626.53 410.115C627.852 411.519 627.784 413.73 626.379 415.051C626.14 415.276 625.858 415.449 625.566 415.597C625.635 415.983 625.681 416.373 625.681 416.767C625.681 422.05 619.428 426.606 611.5 426.606C603.571 426.606 597.319 422.05 597.319 416.767C597.319 416.373 597.365 415.983 597.433 415.599Z" stroke="#52D3C1" stroke-width="1.5" stroke-linecap="round" stroke-linejoin="round"/>
<path d="M611.5 406.931L612.575 402.139C612.981 400.326 614.76 399.172 616.581 399.537L620.775 400.378" stroke="#52D3C1" stroke-width="1.5" stroke-linecap="round" stroke-linejoin="round"/>
<path d="M60 145.832C58.8851 146.318 57.8408 147.017 56.9288 147.929C53.0237 151.834 53.0237 158.166 56.9288 162.071C58.8814 164.024 61.4407 165 64 165H90" stroke="#52D3C1" stroke-width="1.5" stroke-linecap="round" stroke-linejoin="round"/>
<path d="M78.5207 139.761C78.1193 139.109 77.6361 138.494 77.0712 137.929C73.1661 134.024 66.8339 134.024 62.9288 137.929C60.8124 140.045 59.843 142.875 60.0206 145.644" stroke="#52D3C1" stroke-width="1.5" stroke-linecap="round" stroke-linejoin="round"/>
<path d="M90.0039 165C92.0501 164.999 94.096 164.218 95.6571 162.657C98.7811 159.533 98.7811 154.467 95.6571 151.343C94.096 149.782 92.0501 149.001 90.0039 149" stroke="#52D3C1" stroke-width="1.5" stroke-linecap="round" stroke-linejoin="round"/>
<path d="M78.4448 139.831C81.4369 138.347 85.1648 138.851 87.6571 141.343C89.7321 143.418 90.4289 146.35 89.7475 149" stroke="#52D3C1" stroke-width="1.5" stroke-linecap="round" stroke-linejoin="round"/>
<path fill-rule="evenodd" clip-rule="evenodd" d="M81.6569 147.343C84.781 150.467 84.781 155.533 81.6569 158.657C78.5329 161.781 73.4671 161.781 70.3431 158.657C67.219 155.533 67.219 150.467 70.3431 147.343C73.4671 144.219 78.5329 144.219 81.6569 147.343Z" stroke="#52D3C1" stroke-width="1.5" stroke-linecap="round" stroke-linejoin="round"/>
<path d="M76 150V153H79" stroke="#52D3C1" stroke-width="1.5" stroke-linecap="round" stroke-linejoin="round"/>
<path d="M50.2186 408.104C51.1173 405.879 50.6646 403.235 48.8607 401.431C46.4526 399.023 42.5477 399.023 40.1396 401.431C37.7315 403.839 37.7315 407.744 40.1396 410.152C40.6779 410.691 41.291 411.109 41.9454 411.406L36.021 420.438" stroke="#52D3C1" stroke-width="1.5" stroke-linejoin="round"/>
<path d="M49.3896 425.569C51.7978 427.977 55.7026 427.977 58.1108 425.569C60.5189 423.161 60.5189 419.256 58.1108 416.848C56.0037 414.741 52.7508 414.477 50.3572 416.057L45.2705 407.333" stroke="#52D3C1" stroke-width="1.5" stroke-linejoin="round"/>
<path d="M34.1288 415.144C32.9422 415.362 31.8072 415.93 30.8896 416.848C28.4815 419.256 28.4815 423.161 30.8896 425.569C33.2977 427.977 37.2026 427.977 39.6107 425.569C40.8141 424.366 41.4161 422.789 41.4168 421.211H52.2085" stroke="#52D3C1" stroke-width="1.5" stroke-linejoin="round"/>
<path d="M45.5903 406.882C46.1923 406.28 46.1923 405.304 45.5903 404.702C44.9883 404.099 44.0121 404.099 43.41 404.702C42.808 405.304 42.808 406.28 43.41 406.882C44.0121 407.484 44.9883 407.484 45.5903 406.882" stroke="#52D3C1" stroke-width="1.5" stroke-linecap="round" stroke-linejoin="round"/>
<path d="M54.8403 422.298C55.4423 421.696 55.4423 420.72 54.8403 420.118C54.2383 419.516 53.2621 419.516 52.66 420.118C52.058 420.72 52.058 421.696 52.66 422.298C53.2621 422.901 54.2383 422.901 54.8403 422.298" stroke="#52D3C1" stroke-width="1.5" stroke-linecap="round" stroke-linejoin="round"/>
<path d="M36.3403 422.298C36.9423 421.696 36.9423 420.72 36.3403 420.118C35.7383 419.516 34.7621 419.516 34.16 420.118C33.558 420.72 33.558 421.696 34.16 422.298C34.7621 422.901 35.7383 422.901 36.3403 422.298" stroke="#52D3C1" stroke-width="1.5" stroke-linecap="round" stroke-linejoin="round"/>
<defs>
<filter id="filter0_d_278_3224" x="466" y="8" width="148" height="148" filterUnits="userSpaceOnUse" color-interpolation-filters="sRGB">
<feFlood flood-opacity="0" result="BackgroundImageFix"/>
<feColorMatrix in="SourceAlpha" type="matrix" values="0 0 0 0 0 0 0 0 0 0 0 0 0 0 0 0 0 0 127 0" result="hardAlpha"/>
<feOffset dy="6"/>
<feGaussianBlur stdDeviation="12"/>
<feComposite in2="hardAlpha" operator="out"/>
<feColorMatrix type="matrix" values="0 0 0 0 0.680339 0 0 0 0 0.737448 0 0 0 0 0.808835 0 0 0 1 0"/>
<feBlend mode="normal" in2="BackgroundImageFix" result="effect1_dropShadow_278_3224"/>
<feBlend mode="normal" in="SourceGraphic" in2="effect1_dropShadow_278_3224" result="shape"/>
</filter>
<filter id="filter1_d_278_3224" x="94" y="27" width="148" height="148" filterUnits="userSpaceOnUse" color-interpolation-filters="sRGB">
<feFlood flood-opacity="0" result="BackgroundImageFix"/>
<feColorMatrix in="SourceAlpha" type="matrix" values="0 0 0 0 0 0 0 0 0 0 0 0 0 0 0 0 0 0 127 0" result="hardAlpha"/>
<feOffset dy="6"/>
<feGaussianBlur stdDeviation="12"/>
<feComposite in2="hardAlpha" operator="out"/>
<feColorMatrix type="matrix" values="0 0 0 0 0.680339 0 0 0 0 0.737448 0 0 0 0 0.808835 0 0 0 1 0"/>
<feBlend mode="normal" in2="BackgroundImageFix" result="effect1_dropShadow_278_3224"/>
<feBlend mode="normal" in="SourceGraphic" in2="effect1_dropShadow_278_3224" result="shape"/>
</filter>
<filter id="filter2_d_278_3224" x="522" y="157" width="127" height="127" filterUnits="userSpaceOnUse" color-interpolation-filters="sRGB">
<feFlood flood-opacity="0" result="BackgroundImageFix"/>
<feColorMatrix in="SourceAlpha" type="matrix" values="0 0 0 0 0 0 0 0 0 0 0 0 0 0 0 0 0 0 127 0" result="hardAlpha"/>
<feOffset dy="6"/>
<feGaussianBlur stdDeviation="12"/>
<feComposite in2="hardAlpha" operator="out"/>
<feColorMatrix type="matrix" values="0 0 0 0 0.680339 0 0 0 0 0.737448 0 0 0 0 0.808835 0 0 0 1 0"/>
<feBlend mode="normal" in2="BackgroundImageFix" result="effect1_dropShadow_278_3224"/>
<feBlend mode="normal" in="SourceGraphic" in2="effect1_dropShadow_278_3224" result="shape"/>
</filter>
<filter id="filter3_d_278_3224" x="422" y="342" width="137" height="137" filterUnits="userSpaceOnUse" color-interpolation-filters="sRGB">
<feFlood flood-opacity="0" result="BackgroundImageFix"/>
<feColorMatrix in="SourceAlpha" type="matrix" values="0 0 0 0 0 0 0 0 0 0 0 0 0 0 0 0 0 0 127 0" result="hardAlpha"/>
<feOffset dy="6"/>
<feGaussianBlur stdDeviation="12"/>
<feComposite in2="hardAlpha" operator="out"/>
<feColorMatrix type="matrix" values="0 0 0 0 0.680339 0 0 0 0 0.737448 0 0 0 0 0.808835 0 0 0 1 0"/>
<feBlend mode="normal" in2="BackgroundImageFix" result="effect1_dropShadow_278_3224"/>
<feBlend mode="normal" in="SourceGraphic" in2="effect1_dropShadow_278_3224" result="shape"/>
</filter>
<filter id="filter4_d_278_3224" x="136" y="211" width="136" height="136" filterUnits="userSpaceOnUse" color-interpolation-filters="sRGB">
<feFlood flood-opacity="0" result="BackgroundImageFix"/>
<feColorMatrix in="SourceAlpha" type="matrix" values="0 0 0 0 0 0 0 0 0 0 0 0 0 0 0 0 0 0 127 0" result="hardAlpha"/>
<feOffset dy="6"/>
<feGaussianBlur stdDeviation="12"/>
<feComposite in2="hardAlpha" operator="out"/>
<feColorMatrix type="matrix" values="0 0 0 0 0.680339 0 0 0 0 0.737448 0 0 0 0 0.808835 0 0 0 1 0"/>
<feBlend mode="normal" in2="BackgroundImageFix" result="effect1_dropShadow_278_3224"/>
<feBlend mode="normal" in="SourceGraphic" in2="effect1_dropShadow_278_3224" result="shape"/>
</filter>
<filter id="filter5_d_278_3224" x="2" y="189" width="113" height="113" filterUnits="userSpaceOnUse" color-interpolation-filters="sRGB">
<feFlood flood-opacity="0" result="BackgroundImageFix"/>
<feColorMatrix in="SourceAlpha" type="matrix" values="0 0 0 0 0 0 0 0 0 0 0 0 0 0 0 0 0 0 127 0" result="hardAlpha"/>
<feOffset dy="6"/>
<feGaussianBlur stdDeviation="12"/>
<feComposite in2="hardAlpha" operator="out"/>
<feColorMatrix type="matrix" values="0 0 0 0 0.680339 0 0 0 0 0.737448 0 0 0 0 0.808835 0 0 0 1 0"/>
<feBlend mode="normal" in2="BackgroundImageFix" result="effect1_dropShadow_278_3224"/>
<feBlend mode="normal" in="SourceGraphic" in2="effect1_dropShadow_278_3224" result="shape"/>
</filter>
<filter id="filter6_d_278_3224" x="76" y="327" width="123" height="123" filterUnits="userSpaceOnUse" color-interpolation-filters="sRGB">
<feFlood flood-opacity="0" result="BackgroundImageFix"/>
<feColorMatrix in="SourceAlpha" type="matrix" values="0 0 0 0 0 0 0 0 0 0 0 0 0 0 0 0 0 0 127 0" result="hardAlpha"/>
<feOffset dy="6"/>
<feGaussianBlur stdDeviation="12"/>
<feComposite in2="hardAlpha" operator="out"/>
<feColorMatrix type="matrix" values="0 0 0 0 0.680339 0 0 0 0 0.737448 0 0 0 0 0.808835 0 0 0 1 0"/>
<feBlend mode="normal" in2="BackgroundImageFix" result="effect1_dropShadow_278_3224"/>
<feBlend mode="normal" in="SourceGraphic" in2="effect1_dropShadow_278_3224" result="shape"/>
</filter>
<filter id="filter7_d_278_3224" x="516" y="443" width="111" height="111" filterUnits="userSpaceOnUse" color-interpolation-filters="sRGB">
<feFlood flood-opacity="0" result="BackgroundImageFix"/>
<feColorMatrix in="SourceAlpha" type="matrix" values="0 0 0 0 0 0 0 0 0 0 0 0 0 0 0 0 0 0 127 0" result="hardAlpha"/>
<feOffset dy="6"/>
<feGaussianBlur stdDeviation="12"/>
<feComposite in2="hardAlpha" operator="out"/>
<feColorMatrix type="matrix" values="0 0 0 0 0.680339 0 0 0 0 0.737448 0 0 0 0 0.808835 0 0 0 1 0"/>
<feBlend mode="normal" in2="BackgroundImageFix" result="effect1_dropShadow_278_3224"/>
<feBlend mode="normal" in="SourceGraphic" in2="effect1_dropShadow_278_3224" result="shape"/>
</filter>
</defs>
</svg>
