<svg width="659" height="342" viewBox="0 0 659 342" fill="none" xmlns="http://www.w3.org/2000/svg">
<path d="M658.229 18.1103C658.229 8.3729 650.335 0.479187 640.597 0.479187C630.86 0.479187 622.966 8.3729 622.966 18.1103C622.966 19.4321 623.112 20.7199 623.388 21.9586C557.184 47.4836 524.472 97.9668 498.213 144.871C495.368 149.953 492.605 154.982 489.886 159.928L489.882 159.936C479.629 178.593 470.02 196.078 459.133 210.796C445.42 229.334 429.944 243.091 409.137 248.909C372.523 259.149 346.829 254.68 316.189 248.872L314.044 248.464C283.766 242.716 248.634 236.045 194.386 241.47C99.2895 250.979 40.9224 291.983 14.3542 321.614C13.1061 321.076 11.7303 320.778 10.2848 320.778C4.60467 320.778 0 325.383 0 331.063C0 336.743 4.60467 341.348 10.2848 341.348C15.965 341.348 20.5696 336.743 20.5696 331.063C20.5696 328.953 19.9341 326.991 18.844 325.358C44.4726 296.86 101.442 256.636 194.968 247.283C248.372 241.943 282.836 248.486 312.98 254.209L315.101 254.612C345.884 260.447 372.716 265.161 410.71 254.536C433.246 248.233 449.703 233.368 463.83 214.27C474.974 199.204 484.833 181.261 495.111 162.555L495.125 162.53C497.815 157.635 500.533 152.687 503.311 147.725C529.463 101.013 561.341 52.1038 625.591 27.3705C628.698 32.3943 634.257 35.7414 640.597 35.7414C650.335 35.7414 658.229 27.8477 658.229 18.1103Z" fill="#52D3C1"/>
</svg>
