<svg width="2036" height="925" viewBox="0 0 2036 925" fill="none" xmlns="http://www.w3.org/2000/svg">
<path d="M2 156.009C213.825 30.8061 502.796 46.7412 468.335 382.489C440.765 651.087 496.083 845.198 720.155 906.161C786.364 924.174 911.836 927.01 1020.3 866.086C1128.77 805.162 1241 668.5 1437.5 627C1595.88 593.551 1717.6 667 1852 627" stroke="#CDD9E8" stroke-width="1.5" stroke-linecap="square"/>
<path d="M204 50.9998C400 -45.0002 646 8.99982 578 337C523.6 599.4 548.815 798.983 734 889C788.719 915.598 896 935 996 889C1096 843 1129.56 751.349 1214 681.5C1309.5 602.5 1420.8 568.5 1586 610.5C1792.5 663 1900.5 712.5 2024.5 655" stroke="#52D3C1" stroke-width="16" stroke-linecap="square"/>
</svg>
