<svg width="1920" height="464" viewBox="0 0 1920 464" fill="none" xmlns="http://www.w3.org/2000/svg">
<path d="M1944.5 64.2099C1770.5 -7.79007 1609.47 0.147274 1454 64.2099C1304 126.02 1249.5 227.495 1140.5 320.21C1023.85 419.431 887.465 455.107 812.5 460.71C565.5 479.172 472.778 380.172 390 179.71C307 -21.2901 129 -16.29 -12.5 21.8159" stroke="#D4DEEB" stroke-width="1.5" stroke-linecap="square"/>
<path d="M1968.5 118.92C1784.5 -5.29005 1571.36 18.779 1427.5 74.7099C1160 178.71 1130.13 274.293 933 384.33C854.761 428.003 771.005 446.259 710.5 442.71C516.5 431.331 434.026 311.696 374.5 166.71C309.01 7.19794 130.315 10.1869 -15 67.0599" stroke="#52D3C1" stroke-width="16" stroke-linecap="square"/>
</svg>
