<svg width="2520" height="984" viewBox="0 0 2520 984" fill="none" xmlns="http://www.w3.org/2000/svg">
<path d="M-19.5 727C28.5 727 78.039 732.724 320 897.5C459.5 992.5 615.413 1007.41 741.5 947.701C855.976 893.491 936.957 751.934 909 601.701C859.5 335.701 873.583 137.965 1097.66 77.002C1163.86 58.9887 1286.03 37.2772 1394.5 98.201C1502.97 159.125 1615 326 1811.5 367.5C1960.84 399.041 2138 324 2258 183C2378 41.9998 2473.5 7.99982 2543.5 1.49982" stroke="#CDD9E8" stroke-width="1.5" stroke-linecap="square"/>
<path d="M-33 629.5C92 635.5 183 726 322 834.658C404.939 899.492 499 949.547 652 944C829.677 937.557 994.735 835.415 955.5 646.163C901.1 383.763 926.315 184.18 1111.5 94.1632C1166.22 67.565 1273.5 48.1632 1373.5 94.1632C1473.5 140.163 1507.06 231.815 1591.5 301.663C1687 380.663 1787.15 399.328 1956 376C2032 365.5 2101 338.638 2179.5 284.5C2281 214.5 2338.5 72.5001 2521 46.0001" stroke="#52D3C1" stroke-width="16" stroke-linecap="square"/>
</svg>
