<svg width="1920" height="934" viewBox="0 0 1920 934" fill="none" xmlns="http://www.w3.org/2000/svg">
<path d="M-1 844.201C110.5 922.201 303.136 956.224 441.5 890.701C555.976 836.491 636.957 694.934 609 544.702C559.5 278.702 573.583 80.9651 797.655 20.0022C863.864 1.98891 986.031 -19.7226 1094.5 41.2012C1202.97 102.125 1319.5 279.701 1516 321.201C1674.38 354.65 1823 305.701 1922.5 264.201" stroke="#CDD9E8" stroke-width="1.5" stroke-linecap="square"/>
<path d="M-3 754.701C320.5 1065.2 723.5 917.163 655.5 589.163C601.1 326.763 626.315 127.18 811.5 37.1631C866.219 10.5649 973.5 -8.83685 1073.5 37.1631C1173.5 83.1631 1207.06 174.815 1291.5 244.663C1387 323.663 1498.3 357.663 1663.5 315.663C1776.87 286.839 1867.5 244.663 1922.5 205.201" stroke="#52D3C1" stroke-width="16" stroke-linecap="square"/>
</svg>
