<svg width="2520" height="466" viewBox="0 0 2520 466" fill="none" xmlns="http://www.w3.org/2000/svg">
<path d="M2539.5 209C2506.5 187.5 2409 110.5 2208.5 52.3816C2037.95 2.94331 1898.69 6.58823 1754 66.2101C1604 128.02 1549.5 229.495 1440.5 322.21C1323.85 421.432 1187.47 457.107 1112.5 462.71C865.5 481.172 772.778 382.172 690 181.71C611.63 -8.07655 431.793 -14.057 273 13.0001C114.207 40.0572 0 106 -20.5 123" stroke="#D4DEEB" stroke-width="1.5" stroke-linecap="square"/>
<path d="M2539.5 287C2501 256 2363 142.5 2182 73.7541C2016.07 10.7313 1849.26 29.3706 1727.5 76.7099C1460 180.71 1430.13 276.293 1233 386.33C1154.76 430.002 1071.01 448.259 1010.5 444.71C816.5 433.331 734.026 313.696 674.5 168.71C613.6 20.3792 463.923 7.1691 321 39.4999C192.5 68.568 75 132 -19.5 205.5" stroke="#52D3C1" stroke-width="16" stroke-linecap="square"/>
</svg>
