<svg width="301" height="143" viewBox="0 0 301 143" fill="none" xmlns="http://www.w3.org/2000/svg">
<path d="M6.5 136.506C29.393 140.168 65.564 138.394 102.118 115.573M102.118 115.573C119.358 104.81 134.24 89.0771 143.5 66.4341C158.59 29.5315 140.397 5.24098 117.6 2.33308C100.131 0.104962 81.5879 5.93433 70.5694 29.8372C59.8676 53.0533 72.6156 90.2934 102.118 115.573ZM102.118 115.573C107.51 120.193 113.461 124.414 119.931 128.077C153.308 146.97 225.488 158.146 278.011 82.78" stroke="#CDD9E8" stroke-width="1.5" stroke-linecap="round"/>
<path d="M10.6208 124.126C27.1203 128.682 81.1756 133.962 120.958 108.974M120.958 108.974C136.128 99.4453 149.223 85.5148 157.369 65.4641C170.643 32.7864 154.629 11.2726 134.566 8.69406C119.193 6.71831 102.874 11.8779 93.181 33.0441C83.7663 53.602 94.9906 86.5827 120.958 108.974ZM120.958 108.974C178.572 158.655 253.968 103.307 289 52.7172" stroke="#52D3C1" stroke-width="16" stroke-linecap="square"/>
</svg>
