<svg width="64" height="64" viewBox="0 0 64 64" fill="none" xmlns="http://www.w3.org/2000/svg">
<path fill-rule="evenodd" clip-rule="evenodd" d="M32 64C49.6731 64 64 49.6731 64 32C64 14.3269 49.6731 0 32 0C14.3269 0 0 14.3269 0 32C0 49.6731 14.3269 64 32 64ZM17.0908 31.2728C17.0908 22.6371 24.0915 15.6365 32.7272 15.6365C41.3629 15.6365 48.3635 22.6371 48.3635 31.2728C48.3635 39.9086 41.3629 46.9092 32.7272 46.9092C30.1067 46.9092 27.6368 46.2646 25.4674 45.1253L17.0908 50.9091V32L17.1078 32.0085C17.0965 31.7647 17.0908 31.5194 17.0908 31.2728ZM32.7272 23.1419C28.2366 23.1419 24.5963 26.7823 24.5963 31.2728C24.5963 35.7634 28.2366 39.4037 32.7272 39.4037C37.2178 39.4037 40.8581 35.7634 40.8581 31.2728C40.8581 26.7823 37.2178 23.1419 32.7272 23.1419Z" fill="white"/>
</svg>
