<svg width="260" height="242" viewBox="0 0 260 242" fill="none" xmlns="http://www.w3.org/2000/svg">
<path d="M25.8549 14.9149L25.8642 14.9185L25.8736 14.9219C96.2873 40.4812 143.127 57.5196 166.412 66.3185C199.531 78.8782 219.372 86.6554 231.75 92.0313C244.134 97.4097 248.947 100.344 252.093 103.188C253.485 104.507 256.122 107.55 256.599 110.921C256.914 113.589 255.772 115.582 254.721 117.26C253.699 118.891 251.221 122.064 248.885 123.989L248.873 123.999L248.862 124.009C220.73 148.633 147.517 203.807 113.242 228.634C98.7702 239.112 90.58 238.575 86.1755 235.129C81.0081 231.016 78.2532 225.451 76.3411 218.921C75.3839 215.652 74.6444 212.164 73.914 208.513C73.7802 207.844 73.6467 207.17 73.5122 206.49C72.9149 203.473 72.2984 200.358 71.5537 197.215L71.5527 197.211C68.3628 183.987 66.1428 173.821 63.878 163.449C62.0016 154.857 60.0944 146.123 57.5794 135.393L57.5787 135.389C55.9768 128.655 55.8571 124.024 56.7519 120.832C57.6243 117.719 59.481 115.902 62.1181 114.791C64.8248 113.652 68.353 113.26 72.5039 113.122C74.3553 113.061 76.3021 113.05 78.3316 113.038C78.5649 113.037 78.7993 113.036 79.0347 113.034C81.3101 113.021 83.6784 113 86.0873 112.899C87.1135 112.871 91.3063 112.912 97.3746 112.97C106.184 113.056 118.946 113.179 131.711 113.188C142.48 113.196 153.235 113.122 161.566 112.873C165.73 112.749 169.301 112.581 171.972 112.356C173.305 112.243 174.431 112.116 175.301 111.969C175.736 111.895 176.122 111.814 176.447 111.723C176.738 111.642 177.049 111.534 177.305 111.375C177.562 111.23 177.833 110.996 178.074 110.75C178.344 110.476 178.633 110.127 178.896 109.724C179.408 108.937 179.892 107.826 179.763 106.606C179.635 105.393 178.998 104.471 178.265 103.778C177.551 103.102 176.688 102.59 175.983 102.193C175.836 102.103 175.672 102.036 175.538 101.986C175.377 101.927 175.186 101.865 174.97 101.803C174.539 101.677 173.967 101.533 173.263 101.37C171.853 101.043 169.864 100.631 167.303 100.133C162.179 99.1372 154.728 97.7913 144.953 96.0898C125.4 92.6864 96.5252 87.8559 58.3117 81.5471L58.3038 81.5459C47.1177 79.7905 39.062 76.3243 33.8417 71.1265L33.84 71.1248C30.925 68.2363 27.3258 63.2458 23.6614 57.5202C20.0094 51.814 16.3343 45.4446 13.2665 39.8483L13.2654 39.8462C12.3961 38.2692 11.541 36.7495 10.7176 35.2861C7.96941 30.4019 5.57476 26.146 4.1859 22.4861C3.28822 20.1205 2.85818 18.1159 2.98367 16.4368C3.10531 14.8092 3.75002 13.4464 5.12412 12.2981C6.50628 11.1895 8.82667 10.7081 12.3514 11.1181C15.8513 11.5251 20.3442 12.789 25.8549 14.9149Z" stroke="#52D3C1" stroke-width="2"/>
<path fill-rule="evenodd" clip-rule="evenodd" d="M36.4767 7.48495C103.291 31.7462 147.746 47.9227 169.849 56.2778C232.7 80.1199 245.245 85.8372 251.466 91.463C252.819 92.7432 255.542 95.8299 256.04 99.3723C256.386 102.26 255.131 104.402 254.123 106.009C253.116 107.617 250.703 110.712 248.387 112.618C221.666 135.996 152.184 188.324 119.672 211.859C105.867 221.848 97.5652 221.679 92.8493 217.988C82.6051 209.837 82.0756 196.023 78.6281 181.499C73.0958 158.602 70.6036 145.236 65.3496 122.858C59.2074 97.0808 75.1284 101.126 93.2818 100.369C98.0195 100.241 175.372 101.695 179.379 99.0842C179.898 98.8067 181.432 97.1847 181.251 95.4775C181.07 93.7703 179.461 92.7605 178.122 92.0066C176.377 90.8688 139.316 84.5004 66.7973 72.5104C56.0808 70.826 48.214 67.4839 43.0615 62.3559C37.3675 56.7159 29.2052 43.1093 23.3672 32.4686C16.2804 19.623 9.81853 10.1846 15.8636 5.14754C19.0816 2.55786 25.9552 3.42473 36.4767 7.48495Z" fill="#D4DEEB"/>
</svg>
